
<svg width="743" height="579" viewBox="0 0 743 579" fill="none" xmlns="http://www.w3.org/2000/svg">
<path d="M600.993 566.699C608.243 561.871 614.662 555.681 620.559 549.213C659.1 506.931 688.887 450.105 711.895 397.92C733.044 349.97 753.551 286.27 734.561 234.942C713.641 178.408 662.994 141.054 607.648 121.386C547.433 99.9946 482.185 98.225 418.287 99.0977C362.144 99.8608 305.35 102.837 249.566 94.7528C192.499 86.4827 140.155 51.4384 92.1971 21.3476C80.1087 13.7688 67.7408 6.05759 53.8477 2.79739C-0.836054 -10.047 -3.62113 55.5812 5.29551 92.4168C31.2047 199.461 144.047 285.042 223.685 353.226C273.966 396.275 326.605 436.692 381.36 473.898C433.362 509.234 518.103 600.292 589.28 572.833C593.416 571.236 597.313 569.147 600.98 566.699L600.993 566.699Z" stroke="url(#paint0_radial_2574_3253)" stroke-miterlimit="10"/>
<path d="M698.352 392.786C718.472 347.157 737.993 286.53 719.924 237.695C700.014 183.897 651.818 148.343 599.147 129.636C541.846 109.276 479.755 107.598 418.956 108.417C365.481 109.139 311.333 111.939 258.202 104.198C204.162 96.348 154.586 63.2469 109.156 34.767C97.4783 27.4614 85.5652 19.9219 72.1479 16.7705C20.1079 4.55372 17.4628 67.0093 25.9433 102.053C50.6044 203.914 157.982 285.358 233.773 350.238C281.558 391.143 331.574 429.56 383.591 464.932C432.791 498.376 512.145 582.337 580.071 558.537C584.179 557.103 588.139 555.467 591.901 553.163C599.16 548.705 605.571 542.578 611.414 536.261C648.262 496.363 676.517 442.345 698.377 392.784L698.352 392.786Z" stroke="url(#paint1_radial_2574_3253)" stroke-miterlimit="10"/>
<path d="M684.808 387.639C703.911 344.33 722.435 286.789 705.286 240.436C686.398 189.373 640.654 155.632 590.644 137.86C536.257 118.534 477.323 116.947 419.612 117.725C368.792 118.419 317.316 121.041 266.811 113.62C215.798 106.178 168.992 75.0322 126.088 48.1632C114.81 41.1438 103.363 33.7631 90.435 30.7321C41.038 19.1306 38.5328 78.4135 46.5785 111.689C69.98 208.381 171.904 285.674 243.836 347.264C289.114 386.038 336.505 422.429 385.798 455.979C432.182 487.519 506.281 564.525 570.824 544.244C574.904 542.96 578.941 541.802 582.784 539.629C590.052 535.529 596.442 529.477 602.231 523.299C637.386 485.773 664.109 434.586 684.809 387.651L684.808 387.639Z" stroke="url(#paint2_radial_2574_3253)" stroke-miterlimit="10"/>
<path d="M671.277 382.491C689.351 341.504 706.889 287.048 690.661 243.164C672.781 194.837 629.489 162.897 582.167 146.084C530.694 127.79 474.916 126.294 420.292 127.032C372.128 127.685 323.325 130.142 275.459 123.052C227.485 116.03 183.492 86.7505 143.058 61.5698C132.203 54.8105 121.212 47.6263 108.747 44.6924C61.9936 33.7185 59.6153 89.8172 67.2377 121.312C89.3912 212.822 185.851 285.977 253.935 344.264C296.718 380.894 341.485 415.283 388.04 447C431.61 476.649 500.588 546.876 561.626 529.936C565.69 528.813 569.778 528.11 573.704 526.093C580.968 522.352 587.35 516.375 593.085 510.335C626.52 475.157 651.738 426.826 671.29 382.503L671.277 382.491Z" stroke="url(#paint3_radial_2574_3253)" stroke-miterlimit="10"/>
<path d="M657.733 377.344C674.79 338.677 691.33 287.295 676.011 245.905C659.14 200.315 618.3 170.188 573.652 154.322C525.082 137.073 472.472 135.644 420.936 136.341C375.426 136.954 329.295 139.233 284.069 132.486C239.122 125.872 197.909 98.523 159.991 74.9785C149.547 68.4924 139.011 61.48 127.022 58.6672C82.9243 48.3079 80.6743 101.247 87.8729 130.949C108.766 217.277 199.773 286.294 263.999 341.29C304.273 375.776 346.43 408.165 390.234 438.035C431.001 465.793 494.98 529.433 552.367 515.643C556.427 514.669 560.554 514.433 564.575 512.559C571.834 509.165 578.208 503.262 583.902 497.374C615.592 464.533 639.331 419.068 657.734 377.357L657.733 377.344Z" stroke="url(#paint4_radial_2574_3253)" stroke-miterlimit="10"/>
<path d="M644.202 372.197C660.23 335.851 675.785 287.553 661.385 248.645C645.525 205.791 607.135 177.465 565.163 162.558C519.506 146.342 470.054 145.004 421.605 145.661C378.763 146.244 335.279 148.348 292.704 141.919C250.797 135.724 212.363 110.293 176.949 88.398C166.917 82.1974 156.836 75.3567 145.323 72.6526C103.869 62.921 101.758 112.675 108.521 140.597C128.166 221.743 213.709 286.621 274.087 338.315C311.866 370.657 351.398 401.032 392.466 429.081C430.418 454.935 489.534 512.227 543.158 501.348C547.226 500.522 551.368 500.755 555.496 499.023C562.737 495.976 569.116 490.159 574.756 484.41C604.688 453.882 626.96 411.307 644.202 372.209L644.202 372.197Z" stroke="url(#paint5_radial_2574_3253)" stroke-miterlimit="10"/>
<path d="M630.659 367.062C645.669 333.024 660.227 287.825 646.748 251.386C631.909 211.267 595.958 184.742 556.673 170.795C513.931 155.611 467.635 154.365 422.286 154.98C382.099 155.523 341.288 157.461 301.352 151.364C262.472 145.577 226.818 122.076 193.92 101.817C184.299 95.8894 174.673 89.2205 163.635 86.6252C124.824 77.5089 122.854 124.09 129.181 150.232C147.566 226.208 227.656 286.936 284.175 335.34C319.459 365.55 356.367 393.911 394.698 420.127C429.834 444.09 484.214 495.274 533.937 487.066C538.026 486.387 542.182 487.089 546.392 485.5C553.615 482.788 560 477.07 565.599 471.459C593.759 443.233 614.577 403.56 630.672 367.074L630.659 367.062Z" stroke="url(#paint6_radial_2574_3253)" stroke-miterlimit="10"/>
<path d="M617.115 361.915C631.097 330.199 644.668 288.072 632.11 254.127C618.28 216.744 584.782 192.032 548.171 179.032C508.343 164.88 465.203 163.713 422.942 164.288C385.411 164.803 347.278 166.464 309.975 160.797C274.141 155.343 241.235 133.86 210.865 115.225C201.656 109.57 192.484 103.073 181.924 100.599C145.756 92.1102 143.912 135.507 149.817 159.869C166.954 230.662 241.579 287.253 294.251 332.353C327.026 360.419 361.323 386.767 396.917 411.161C429.251 433.233 481.083 487.628 524.714 472.758C528.86 473.078 532.981 473.386 537.299 471.952C544.505 469.575 550.895 463.955 556.44 458.483C582.79 432.537 602.194 395.788 617.127 361.915L617.115 361.915Z" stroke="url(#paint7_radial_2574_3253)" stroke-miterlimit="10"/>
<path d="M603.584 356.768C616.548 327.372 629.122 288.331 617.485 256.867C604.664 222.221 573.617 199.309 539.693 187.256C502.779 174.137 462.784 173.061 423.623 173.595C388.759 174.068 353.285 175.553 318.621 170.217C285.827 165.17 255.689 145.631 227.835 128.619C219.037 123.25 210.32 116.925 200.234 114.547C166.71 106.674 165.007 146.91 170.475 169.48C186.352 235.091 255.525 287.556 304.337 329.341C334.617 355.263 366.278 379.611 399.146 402.158C428.665 422.339 475.797 471.489 515.49 458.427C519.639 459.018 523.779 459.659 528.206 458.392C535.38 456.338 541.776 450.817 547.281 445.496C571.807 421.817 589.809 388.003 603.594 356.743L603.584 356.768Z" stroke="url(#paint8_radial_2574_3253)" stroke-miterlimit="10"/>
<path d="M590.04 351.621C601.976 324.546 613.564 288.577 602.835 259.609C591.023 227.686 562.429 206.6 531.179 195.493C497.18 183.419 460.341 182.423 424.266 182.904C392.057 183.337 359.256 184.644 327.231 179.651C297.464 175.012 270.107 157.415 244.768 142.04C236.369 136.945 228.132 130.79 218.511 128.534C187.63 121.288 186.066 158.34 191.099 179.129C205.728 239.571 269.436 287.885 314.401 326.38C342.173 350.158 371.222 372.492 401.341 393.219C428.045 411.495 470.478 455.426 506.244 444.146C510.397 445.009 514.556 445.983 519.078 444.871C526.221 443.127 532.622 437.718 538.098 432.546C560.775 411.099 577.402 380.257 590.039 351.609L590.04 351.621Z" stroke="url(#paint9_radial_2574_3253)" stroke-miterlimit="10"/>
<path d="M576.509 346.474C587.428 321.719 598.018 288.836 588.209 262.336C577.406 233.149 551.263 213.864 522.689 203.717C491.603 192.676 457.921 191.759 424.934 192.211C395.381 192.616 365.251 193.733 335.865 189.072C309.137 184.84 284.537 169.199 261.725 155.435C253.737 150.613 245.955 144.63 236.809 142.483C208.584 135.851 207.148 169.731 211.746 188.753C225.127 244.012 283.37 288.188 324.488 323.38C349.764 345.014 376.19 365.347 403.571 384.24C427.46 400.625 465.194 439.311 497.021 429.839C501.177 430.974 505.355 432.268 509.985 431.323C517.095 429.878 523.505 424.604 528.94 419.571C549.741 400.345 565.019 372.485 576.495 346.45L576.509 346.474Z" stroke="url(#paint10_radial_2574_3253)" stroke-miterlimit="10"/>
<path d="M562.966 341.339C572.856 318.905 582.46 289.107 573.572 265.09C563.791 238.638 540.088 221.166 514.2 211.966C486.029 201.957 455.503 201.131 425.616 201.542C398.718 201.906 371.26 202.846 344.514 198.529C320.812 194.704 298.981 181.02 278.697 168.866C271.12 164.33 263.793 158.518 255.123 156.48C229.542 150.476 228.232 181.172 232.407 198.413C244.528 248.49 297.318 288.528 334.578 320.429C357.347 339.933 381.16 358.239 405.805 375.31C426.891 389.804 459.924 423.246 487.814 415.581C491.973 416.987 496.168 418.589 500.907 417.824C507.985 416.677 514.401 411.514 519.809 406.655C538.709 389.615 552.663 364.773 562.991 341.35L562.966 341.339Z" stroke="url(#paint11_radial_2574_3253)" stroke-miterlimit="10"/>
<path d="M549.422 336.192C558.295 316.079 566.902 289.355 558.935 267.831C550.163 244.115 528.923 228.443 505.698 220.203C480.441 211.227 453.072 210.492 426.272 210.851C402.041 211.173 377.243 211.949 353.124 207.963C332.462 204.546 313.376 192.83 295.63 182.274C288.465 178.011 281.591 172.372 273.399 170.454C250.46 165.066 249.291 192.601 253.03 208.05C263.903 252.945 311.229 288.845 344.64 317.444C364.914 334.802 386.069 351.147 408.011 366.346C426.259 378.974 454.616 407.145 478.567 401.275C482.729 402.954 486.942 404.876 491.778 404.29C498.824 403.442 505.235 398.403 510.614 393.694C527.585 378.817 540.243 357.016 549.422 336.205L549.422 336.192Z" stroke="url(#paint12_radial_2574_3253)" stroke-miterlimit="10"/>
<path d="M535.89 331.044C543.735 313.252 551.356 289.613 544.297 270.571C536.534 249.592 517.746 235.733 497.195 228.428C474.852 220.484 450.64 219.841 426.928 220.159C405.353 220.453 383.226 221.038 361.746 217.384C344.111 214.387 327.782 204.628 312.575 195.682C305.809 191.705 299.403 186.237 291.686 184.416C271.391 179.655 270.361 204.005 273.664 217.674C283.278 257.4 325.15 289.149 354.703 314.457C372.469 329.672 391.013 344.015 410.204 357.369C425.637 368.106 449.295 391.045 469.319 386.97C473.485 388.919 477.715 391.138 482.661 390.743C489.673 390.169 496.079 385.266 501.43 380.72C516.448 367.981 527.835 349.245 535.853 331.047L535.89 331.044Z" stroke="url(#paint13_radial_2574_3253)" stroke-miterlimit="10"/>
<path d="M522.347 325.898C529.174 310.426 535.785 289.873 529.659 273.3C522.906 255.057 506.569 242.999 488.705 236.652C469.277 229.753 448.22 229.177 427.596 229.454C408.676 229.708 389.209 230.129 370.381 226.805C355.785 224.228 342.201 216.437 329.532 209.077C323.178 205.386 317.226 200.077 309.985 198.377C292.334 194.232 291.444 215.409 294.324 227.297C302.689 261.84 339.097 289.452 364.803 311.457C380.073 324.528 395.993 336.87 412.447 348.39C425.078 357.235 444.023 374.93 460.108 372.65C464.277 374.872 468.525 377.398 473.58 377.183C480.571 376.894 486.946 372.092 492.296 367.731C505.331 357.084 515.475 341.459 522.345 325.873L522.347 325.898Z" stroke="url(#paint14_radial_2574_3253)" stroke-miterlimit="10"/>
<path d="M508.816 320.763C514.614 307.612 520.239 290.132 515.034 276.052C509.29 260.545 495.405 250.3 480.216 244.901C463.702 239.034 445.802 238.55 428.265 238.786C412.013 239.011 395.206 239.267 379.017 236.262C367.449 234.118 356.61 228.284 346.491 222.509C340.537 219.104 335.064 213.953 328.286 212.363C313.291 208.844 312.516 226.85 314.972 236.946C322.077 266.307 353.033 289.792 374.879 308.495C387.641 319.422 400.95 329.75 414.667 339.448C424.482 346.391 438.741 358.852 450.888 358.38C455.047 360.874 459.324 363.695 464.477 363.673C471.434 363.658 477.778 358.956 483.126 354.793C494.155 346.214 503.08 333.712 508.803 320.751L508.816 320.763Z" stroke="url(#paint15_radial_2574_3253)" stroke-miterlimit="10"/>
<path d="M495.272 315.616C500.054 304.785 504.681 290.391 500.397 278.793C495.674 266.022 484.229 257.578 471.714 253.138C458.102 248.305 443.371 247.911 428.934 248.106C415.337 248.29 401.192 248.407 387.652 245.695C379.113 243.995 371.007 240.132 363.449 235.916C357.883 232.823 352.888 227.817 346.586 226.336C334.234 223.433 333.599 238.266 335.62 246.582C341.477 270.773 366.968 290.108 384.967 305.507C395.234 314.303 405.917 322.593 416.898 330.482C423.91 335.52 433.457 342.75 441.678 344.085C445.841 346.851 450.147 349.955 455.398 350.149C462.333 350.395 468.607 345.771 473.994 341.841C482.987 335.282 490.723 325.964 495.285 315.628L495.272 315.616Z" stroke="url(#paint16_radial_2574_3253)" stroke-miterlimit="10"/>
<path d="M481.729 310.469C485.481 301.96 489.123 290.638 485.759 281.534C482.046 271.498 473.052 264.868 463.224 261.375C452.526 257.573 440.952 257.259 429.603 257.413C418.66 257.557 407.167 257.584 396.287 255.128C390.765 253.886 385.404 251.992 380.407 249.336C375.218 246.567 370.712 241.682 364.887 240.321C355.178 238.046 354.683 249.694 356.268 256.23C360.865 275.239 380.904 290.436 395.043 302.545C402.815 309.197 410.898 315.459 419.118 321.529C423.338 324.65 428.162 326.673 432.444 329.791C436.726 332.908 440.932 336.216 446.294 336.614C453.219 337.12 459.357 332.492 464.823 328.879C471.766 324.291 478.327 318.204 481.742 310.481L481.729 310.469Z" stroke="url(#paint17_radial_2574_3253)" stroke-miterlimit="10"/>
<defs>
<radialGradient id="paint0_radial_2574_3253" cx="0" cy="0" r="1" gradientUnits="userSpaceOnUse" gradientTransform="translate(378.365 285.148) rotate(90) scale(338.317 406.215)">
<stop stop-color="white"/>
<stop offset="1" stop-color="white" stop-opacity="0"/>
</radialGradient>
<radialGradient id="paint1_radial_2574_3253" cx="0" cy="0" r="1" gradientUnits="userSpaceOnUse" gradientTransform="translate(378.365 285.148) rotate(90) scale(338.317 406.215)">
<stop stop-color="white"/>
<stop offset="1" stop-color="white" stop-opacity="0"/>
</radialGradient>
<radialGradient id="paint2_radial_2574_3253" cx="0" cy="0" r="1" gradientUnits="userSpaceOnUse" gradientTransform="translate(378.365 285.148) rotate(90) scale(338.317 406.215)">
<stop stop-color="white"/>
<stop offset="1" stop-color="white" stop-opacity="0"/>
</radialGradient>
<radialGradient id="paint3_radial_2574_3253" cx="0" cy="0" r="1" gradientUnits="userSpaceOnUse" gradientTransform="translate(378.365 285.148) rotate(90) scale(338.317 406.215)">
<stop stop-color="white"/>
<stop offset="1" stop-color="white" stop-opacity="0"/>
</radialGradient>
<radialGradient id="paint4_radial_2574_3253" cx="0" cy="0" r="1" gradientUnits="userSpaceOnUse" gradientTransform="translate(378.365 285.148) rotate(90) scale(338.317 406.215)">
<stop stop-color="white"/>
<stop offset="1" stop-color="white" stop-opacity="0"/>
</radialGradient>
<radialGradient id="paint5_radial_2574_3253" cx="0" cy="0" r="1" gradientUnits="userSpaceOnUse" gradientTransform="translate(378.365 285.148) rotate(90) scale(338.317 406.215)">
<stop stop-color="white"/>
<stop offset="1" stop-color="white" stop-opacity="0"/>
</radialGradient>
<radialGradient id="paint6_radial_2574_3253" cx="0" cy="0" r="1" gradientUnits="userSpaceOnUse" gradientTransform="translate(378.365 285.148) rotate(90) scale(338.317 406.215)">
<stop stop-color="white"/>
<stop offset="1" stop-color="white" stop-opacity="0"/>
</radialGradient>
<radialGradient id="paint7_radial_2574_3253" cx="0" cy="0" r="1" gradientUnits="userSpaceOnUse" gradientTransform="translate(378.365 285.148) rotate(90) scale(338.317 406.215)">
<stop stop-color="white"/>
<stop offset="1" stop-color="white" stop-opacity="0"/>
</radialGradient>
<radialGradient id="paint8_radial_2574_3253" cx="0" cy="0" r="1" gradientUnits="userSpaceOnUse" gradientTransform="translate(378.365 285.148) rotate(90) scale(338.317 406.215)">
<stop stop-color="white"/>
<stop offset="1" stop-color="white" stop-opacity="0"/>
</radialGradient>
<radialGradient id="paint9_radial_2574_3253" cx="0" cy="0" r="1" gradientUnits="userSpaceOnUse" gradientTransform="translate(378.365 285.148) rotate(90) scale(338.317 406.215)">
<stop stop-color="white"/>
<stop offset="1" stop-color="white" stop-opacity="0"/>
</radialGradient>
<radialGradient id="paint10_radial_2574_3253" cx="0" cy="0" r="1" gradientUnits="userSpaceOnUse" gradientTransform="translate(378.365 285.148) rotate(90) scale(338.317 406.215)">
<stop stop-color="white"/>
<stop offset="1" stop-color="white" stop-opacity="0"/>
</radialGradient>
<radialGradient id="paint11_radial_2574_3253" cx="0" cy="0" r="1" gradientUnits="userSpaceOnUse" gradientTransform="translate(378.365 285.148) rotate(90) scale(338.317 406.215)">
<stop stop-color="white"/>
<stop offset="1" stop-color="white" stop-opacity="0"/>
</radialGradient>
<radialGradient id="paint12_radial_2574_3253" cx="0" cy="0" r="1" gradientUnits="userSpaceOnUse" gradientTransform="translate(378.365 285.148) rotate(90) scale(338.317 406.215)">
<stop stop-color="white"/>
<stop offset="1" stop-color="white" stop-opacity="0"/>
</radialGradient>
<radialGradient id="paint13_radial_2574_3253" cx="0" cy="0" r="1" gradientUnits="userSpaceOnUse" gradientTransform="translate(378.365 285.148) rotate(90) scale(338.317 406.215)">
<stop stop-color="white"/>
<stop offset="1" stop-color="white" stop-opacity="0"/>
</radialGradient>
<radialGradient id="paint14_radial_2574_3253" cx="0" cy="0" r="1" gradientUnits="userSpaceOnUse" gradientTransform="translate(378.365 285.148) rotate(90) scale(338.317 406.215)">
<stop stop-color="white"/>
<stop offset="1" stop-color="white" stop-opacity="0"/>
</radialGradient>
<radialGradient id="paint15_radial_2574_3253" cx="0" cy="0" r="1" gradientUnits="userSpaceOnUse" gradientTransform="translate(378.365 285.148) rotate(90) scale(338.317 406.215)">
<stop stop-color="white"/>
<stop offset="1" stop-color="white" stop-opacity="0"/>
</radialGradient>
<radialGradient id="paint16_radial_2574_3253" cx="0" cy="0" r="1" gradientUnits="userSpaceOnUse" gradientTransform="translate(378.365 285.148) rotate(90) scale(338.317 406.215)">
<stop stop-color="white"/>
<stop offset="1" stop-color="white" stop-opacity="0"/>
</radialGradient>
<radialGradient id="paint17_radial_2574_3253" cx="0" cy="0" r="1" gradientUnits="userSpaceOnUse" gradientTransform="translate(378.365 285.148) rotate(90) scale(338.317 406.215)">
<stop stop-color="white"/>
<stop offset="1" stop-color="white" stop-opacity="0"/>
</radialGradient>
</defs>
</svg>
