<svg width="707" height="707" viewBox="0 0 707 707" fill="none" xmlns="http://www.w3.org/2000/svg">
<g style="mix-blend-mode:overlay">
<path d="M481.073 24.2718C457.708 40.5218 442.39 67.8019 440.666 96.2005C439.889 108.971 441.707 121.88 439.858 134.542C436.192 159.554 418.87 180.185 401.408 198.47C383.946 216.755 365.055 235.118 356.759 258.996C351.633 273.77 350.949 289.678 351.089 305.322C351.229 320.826 352.114 336.315 353.761 351.742M427.989 8.3949C407.451 28.0937 396.592 57.44 399.342 85.761C400.585 98.5 404.391 110.959 404.546 123.745C404.841 149.021 390.953 172.107 376.567 192.908C362.181 213.71 346.397 234.792 341.939 259.679C339.189 275.075 341.007 290.89 343.586 306.316C346.149 321.603 349.442 336.766 353.482 351.742M373.072 1C355.874 23.6661 349.738 54.3484 356.884 81.8926C360.1 94.2743 365.817 105.988 367.961 118.603C372.202 143.521 362.104 168.502 351.151 191.277C340.199 214.067 327.895 237.37 327.398 262.646C327.087 278.275 331.359 293.624 336.315 308.46C341.24 323.157 346.864 337.62 353.202 351.773M317.673 2.30518C304.234 27.3948 302.961 58.6519 314.332 84.7358C319.444 96.465 326.916 107.138 331.017 119.255C339.111 143.211 333.037 169.45 325.782 193.67C318.527 217.889 310.029 242.824 313.478 267.882C315.606 283.371 322.224 297.865 329.448 311.723C336.61 325.472 344.44 338.879 352.907 351.866M263.159 12.2477C253.807 39.1238 257.442 70.1945 272.76 94.1967C279.642 104.978 288.699 114.362 294.634 125.687C306.378 148.089 304.483 174.949 301.112 200.008C297.741 225.067 293.236 251.026 300.568 275.23C305.105 290.191 313.898 303.473 323.203 316.042C332.431 328.501 342.25 340.51 352.643 352.022M210.867 30.5948C205.833 58.6051 214.285 88.7282 233.16 110.027C241.642 119.597 252.051 127.442 259.694 137.711C274.795 158 277.125 184.83 277.715 210.106C278.306 235.382 277.917 261.73 288.947 284.474C295.768 298.549 306.534 310.278 317.688 321.246C328.749 332.105 340.338 342.436 352.394 352.177M162.102 56.9117C161.511 85.3569 174.576 113.787 196.543 131.885C206.424 140.01 217.936 146.131 227.086 155.08C245.169 172.759 251.678 198.889 256.199 223.761C260.736 248.634 264.48 274.717 278.927 295.457C287.86 308.289 300.335 318.201 313.059 327.274C325.673 336.284 338.739 344.658 352.177 352.394M118.043 90.5146C121.911 118.711 139.264 144.749 163.795 159.165C174.825 165.644 187.144 169.885 197.584 177.295C218.215 191.914 228.717 216.724 237.09 240.571C245.464 264.433 253.247 289.6 270.756 307.839C281.584 319.117 295.457 326.947 309.454 333.923C323.327 340.836 337.542 347.081 352.021 352.612M79.7796 130.611C88.0134 157.845 109.219 180.853 135.707 191.261C147.607 195.938 160.455 198.206 171.92 203.876C194.586 215.093 208.832 237.945 220.841 260.192C232.85 282.438 244.454 306.099 264.619 321.354C277.079 330.8 292.008 336.362 306.922 341.069C321.712 345.729 336.719 349.675 351.897 352.876M48.274 176.192C60.6712 201.81 85.2171 221.214 113.01 227.35C125.5 230.116 138.534 230.333 150.745 234.139C174.887 241.674 192.535 262.01 207.869 282.112C223.202 302.215 238.38 323.747 260.673 335.678C274.453 343.058 290.066 346.211 305.54 348.526C320.873 350.825 336.315 352.363 351.804 353.156M24.2718 226.138C40.5218 249.504 67.8019 264.821 96.2005 266.546C108.971 267.323 121.88 265.505 134.542 267.354C159.554 271.02 180.185 288.342 198.47 305.804C216.755 323.265 235.118 342.156 258.996 350.452C273.77 355.579 289.678 356.263 305.322 356.123C320.826 355.983 336.315 355.097 351.742 353.451M8.3949 279.223C28.0937 299.761 57.44 310.62 85.761 307.87C98.5 306.627 110.959 302.821 123.745 302.666C149.021 302.37 172.107 316.259 192.908 330.645C213.71 345.031 234.792 360.814 259.679 365.273C275.075 368.023 290.89 366.205 306.316 363.626C321.603 361.063 336.766 357.77 351.742 353.73M1 334.14C23.6661 351.338 54.3484 357.474 81.8926 350.328C94.2743 347.112 105.988 341.395 118.603 339.251C143.521 335.01 168.502 345.108 191.277 356.061C214.052 367.013 237.37 379.317 262.646 379.814C278.275 380.125 293.624 375.853 308.46 370.897C323.157 365.972 337.62 360.348 351.773 354.01M2.3048 389.539C27.3944 402.978 58.6516 404.251 84.7354 392.88C96.4646 387.768 107.137 380.296 119.255 376.195C143.211 368.101 169.45 374.175 193.669 381.43C217.889 388.685 242.823 397.183 267.882 393.734C283.371 391.606 297.865 384.988 311.723 377.764C325.471 370.602 338.878 362.772 351.866 354.305M12.2473 444.053C39.1234 453.405 70.1942 449.77 94.1963 434.452C104.978 427.57 114.361 418.513 125.686 412.578C148.088 400.833 174.949 402.729 200.008 406.1C225.066 409.471 251.026 413.976 275.23 406.644C290.19 402.107 303.473 393.314 316.041 384.009C328.501 374.781 340.509 364.962 352.021 354.569M30.5948 496.345C58.6051 501.378 88.7282 492.927 110.027 474.051C119.597 465.569 127.442 455.161 137.711 447.517C158 432.417 184.83 430.086 210.106 429.496C235.382 428.906 261.73 429.294 284.474 418.264C298.549 411.444 310.278 400.678 321.246 389.524C332.105 378.462 342.436 366.873 352.177 354.818M56.9117 545.126C85.3569 545.716 113.787 532.651 131.885 510.684C140.01 500.803 146.131 489.292 155.08 480.141C172.759 462.058 198.889 455.549 223.761 451.028C248.634 446.492 274.717 442.748 295.457 428.3C308.289 419.367 318.201 406.892 327.274 394.169C336.284 381.554 344.658 368.489 352.394 355.051M90.5146 589.184C118.711 585.316 144.749 567.963 159.165 543.433C165.644 532.403 169.885 520.083 177.295 509.643C191.914 489.012 216.724 478.51 240.571 470.137C264.433 461.763 289.6 453.98 307.839 436.472C319.117 425.644 326.947 411.771 333.923 397.773C340.836 383.9 347.081 369.685 352.612 355.206M130.611 627.432C157.844 619.199 180.852 597.993 191.261 571.505C195.937 559.605 198.205 546.757 203.876 535.292C215.092 512.626 237.945 498.38 260.191 486.371C282.454 474.378 306.098 462.758 321.354 442.593C330.8 430.133 336.361 415.204 341.069 400.29C345.729 385.5 349.675 370.493 352.875 355.315M176.192 658.953C201.81 646.556 221.213 622.01 227.35 594.218C230.115 581.727 230.333 568.693 234.139 556.482C241.674 532.34 262.009 514.692 282.112 499.359C302.215 484.025 323.747 468.847 335.678 446.554C343.057 432.774 346.211 417.161 348.526 401.688C350.825 386.354 352.363 370.912 353.155 355.424M226.138 682.94C249.503 666.69 264.821 639.41 266.546 611.011C267.322 598.241 265.505 585.331 267.353 572.67C271.02 547.658 288.342 527.027 305.803 508.742C323.265 490.457 342.156 472.094 350.452 448.216C355.579 433.442 356.262 417.534 356.122 401.89C355.983 386.385 355.097 370.897 353.45 355.47M279.223 698.833C299.76 679.134 310.62 649.788 307.87 621.467C306.627 608.728 302.821 596.268 302.665 583.483C302.37 558.207 316.259 535.121 330.645 514.319C345.03 493.517 360.814 472.436 365.273 447.548C368.023 432.153 366.205 416.338 363.626 400.911C361.063 385.624 357.769 370.462 353.73 355.486M334.14 706.212C351.338 683.546 357.474 652.864 350.328 625.319C347.112 612.938 341.395 601.224 339.251 588.609C335.01 563.691 345.108 538.71 356.06 515.935C367.013 493.145 379.317 469.842 379.814 444.566C380.125 428.937 375.852 413.588 370.897 398.752C365.972 384.055 360.348 369.592 354.01 355.439M389.539 704.923C402.977 679.833 404.251 648.576 392.879 622.492C387.768 610.763 380.296 600.09 376.194 587.973C368.1 564.017 374.175 537.778 381.43 513.558C388.685 489.339 397.183 464.404 393.734 439.346C391.605 423.857 384.987 409.362 377.763 395.505C370.602 381.756 362.772 368.349 354.305 355.362M444.053 694.965C453.405 668.088 449.77 637.018 434.452 613.016C427.57 602.234 418.512 592.851 412.578 581.525C400.833 559.123 402.729 532.263 406.1 507.204C409.471 482.146 413.976 456.186 406.643 431.982C402.107 417.021 393.314 403.739 384.008 391.171C374.78 378.711 364.962 366.702 354.569 355.191M496.345 676.617C501.378 648.607 492.927 618.484 474.052 597.185C465.569 587.615 455.161 579.77 447.517 569.501C432.417 549.212 430.086 522.382 429.496 497.106C428.906 471.83 429.294 445.482 418.264 422.738C411.444 408.663 400.678 396.934 389.524 385.966C378.462 375.107 366.873 364.776 354.818 355.035M545.126 650.316C545.716 621.871 532.651 593.441 510.684 575.342C500.803 567.217 489.292 561.096 480.141 552.148C462.058 534.469 455.549 508.338 451.028 483.466C446.492 458.594 442.748 432.51 428.3 411.77C419.367 398.938 406.892 389.027 394.169 379.954C381.554 370.943 368.489 362.57 355.051 354.833M589.184 616.697C585.316 588.501 567.963 562.463 543.432 548.047C532.402 541.568 520.083 537.327 509.643 529.917C489.012 515.298 478.51 490.488 470.137 466.641C461.763 442.779 453.98 417.612 436.471 399.373C425.643 388.095 411.77 380.265 397.773 373.289C383.9 366.376 369.685 360.131 355.206 354.6M627.432 576.616C619.198 549.383 597.993 526.375 571.505 515.966C559.605 511.29 546.757 509.022 535.292 503.351C512.626 492.135 498.38 469.282 486.371 447.036C474.378 424.774 462.757 401.129 442.592 385.873C430.133 376.427 415.204 370.866 400.29 366.159C385.5 361.498 370.493 357.552 355.315 354.352M658.953 531.035C646.556 505.417 622.01 486.014 594.217 479.877C581.727 477.112 568.693 476.895 556.482 473.088C532.34 465.554 514.692 445.218 499.359 425.115C484.025 405.012 468.847 383.48 446.554 371.549C432.774 364.17 417.161 361.016 401.688 358.702C386.354 356.402 370.912 354.864 355.423 354.072M682.94 481.074C666.69 457.709 639.41 442.391 611.011 440.666C598.241 439.89 585.331 441.707 572.67 439.858C547.658 436.192 527.027 418.87 508.742 401.408C490.457 383.947 472.094 365.056 448.216 356.76C433.442 351.633 417.534 350.95 401.89 351.089C386.385 351.229 370.897 352.115 355.47 353.762M698.833 427.989C679.134 407.451 649.788 396.592 621.467 399.342C608.728 400.585 596.268 404.391 583.483 404.546C558.207 404.841 535.121 390.953 514.319 376.567C493.517 362.181 472.436 346.397 447.548 341.939C432.153 339.189 416.338 341.007 400.911 343.586C385.624 346.149 370.462 349.442 355.486 353.482M706.212 373.072C683.546 355.874 652.864 349.738 625.319 356.884C612.938 360.1 601.224 365.817 588.609 367.961C563.691 372.202 538.71 362.104 515.935 351.152C493.145 340.199 469.842 327.895 444.566 327.398C428.937 327.087 413.588 331.36 398.752 336.315C384.055 341.24 369.592 346.864 355.439 353.202M704.923 317.673C679.833 304.235 648.576 302.961 622.492 314.333C610.763 319.444 600.09 326.916 587.972 331.018C564.017 339.112 537.778 333.037 513.558 325.782C489.338 318.527 464.404 310.029 439.346 313.478C423.857 315.607 409.362 322.225 395.505 329.449C381.756 336.611 368.349 344.44 355.361 352.907M694.964 263.159C668.088 253.807 637.017 257.442 613.015 272.76C602.234 279.642 592.85 288.699 581.525 294.634C559.123 306.378 532.263 304.483 507.204 301.112C482.145 297.741 456.186 293.236 431.982 300.568C417.021 305.105 403.738 313.898 391.17 323.203C378.711 332.431 366.702 342.25 355.19 352.643M676.617 210.867C648.607 205.834 618.484 214.285 597.185 233.16C587.615 241.643 579.77 252.051 569.501 259.695C549.212 274.795 522.382 277.125 497.106 277.716C471.83 278.306 445.482 277.918 422.738 288.948C408.663 295.768 396.934 306.534 385.966 317.688C375.107 328.749 364.776 340.339 355.035 352.394M650.316 162.102C621.871 161.511 593.441 174.576 575.342 196.543C567.217 206.424 561.096 217.936 552.148 227.086C534.469 245.169 508.338 251.678 483.466 256.199C458.594 260.736 432.51 264.48 411.77 278.927C398.938 287.86 389.027 300.335 379.954 313.059C370.943 325.673 362.57 338.739 354.833 352.177M616.697 118.043C588.5 121.912 562.463 139.265 548.046 163.795C541.568 174.825 537.327 187.145 529.917 197.584C515.298 218.215 490.488 228.717 466.641 237.091C442.779 245.464 417.612 253.248 399.373 270.756C388.094 281.584 380.265 295.457 373.289 309.455C366.376 323.328 360.131 337.542 354.6 352.021M576.616 79.7796C549.382 88.0134 526.374 109.219 515.966 135.707C511.29 147.607 509.021 160.455 503.351 171.92C492.134 194.586 469.282 208.832 447.035 220.841C424.773 232.834 401.128 244.454 385.873 264.619C376.427 277.079 370.865 292.008 366.158 306.922C361.498 321.712 357.552 336.719 354.351 351.897M531.035 48.274C505.417 60.6712 486.014 85.2171 479.877 113.01C477.112 125.5 476.895 138.534 473.088 150.745C465.554 174.887 445.218 192.535 425.115 207.869C405.012 223.202 383.48 238.38 371.549 260.673C364.17 274.453 361.016 290.066 358.702 305.54C356.402 320.873 354.864 336.315 354.072 351.804" stroke="url(#paint0_radial_2561_3398)" stroke-miterlimit="10"/>
</g>
<defs>
<radialGradient id="paint0_radial_2561_3398" cx="0" cy="0" r="1" gradientUnits="userSpaceOnUse" gradientTransform="translate(353.606 353.606) rotate(90) scale(412.072)">
<stop stop-color="white"/>
<stop offset="1" stop-color="white" stop-opacity="0"/>
</radialGradient>
</defs>
</svg>
