<svg width="837" height="604" viewBox="0 0 837 604" fill="none" xmlns="http://www.w3.org/2000/svg">
<path d="M698.546 106.582L704.737 231.895C705.213 241.535 709.045 250.71 715.565 257.826L825.123 377.342C842.878 396.713 838.309 427.567 815.701 440.936L691.687 514.216C682.821 519.457 672.322 521.185 662.254 519.048L458.296 475.916C446.323 473.381 433.84 476.314 424.237 483.92L285.098 594.102C272.671 603.947 255.71 605.777 241.469 598.82L73.1805 516.524C55.1079 507.68 46.0262 487.057 51.7065 467.708L81.4119 366.462C86.7747 348.159 78.9629 328.56 62.4889 319.011L21.6043 295.308C2.20513 284.064 -4.68833 259.349 6.0827 239.648L82.0694 100.693C92.3643 81.8556 115.346 74.0682 134.927 82.7764L229.304 124.726C243.68 131.115 260.438 128.75 272.49 118.621L400.937 10.6556C414.271 -0.54218 433.171 -2.15648 448.194 6.63124L503.205 38.8037C514.135 45.1927 521.527 56.2654 523.273 68.8274L525.734 86.6075C530.348 119.894 570.53 134.048 594.884 110.97L629.056 78.5815C644.759 63.7003 669.26 63.4957 685.202 78.1267C693.217 85.4821 698.013 95.7022 698.558 106.582H698.546Z" stroke="url(#paint0_radial_2574_3252)" stroke-miterlimit="10"/>
<path d="M88.4528 504.735C71.4346 496.413 63.1579 476.121 68.4981 457.909C68.5434 457.75 96.4347 362.278 96.2873 362.199C101.344 344.976 93.6229 326.32 78.124 317.328C77.9539 317.226 39.4163 294.705 39.507 294.535C21.2529 283.951 15.4253 259.475 25.5614 240.933C25.6521 240.774 97.3644 109.924 97.5345 109.992C107.228 92.269 129.677 85.3002 148.102 93.4968C148.226 93.5536 237.206 133.013 237.308 132.934C250.846 138.947 267.728 135.776 279.077 126.249C279.191 126.147 400.257 24.5478 400.382 24.616C412.921 14.0775 431.198 12.8384 445.337 21.1032C445.427 21.16 497.264 51.5362 497.287 51.6499C507.57 57.6638 514.555 68.2363 516.187 80.0594C516.233 80.3436 518.897 97.2028 519.112 97.0096C523.455 128.341 561.573 141.38 584.498 119.655C584.634 119.53 617.015 89.0404 617.151 89.1768C631.936 75.171 654.986 74.9891 669.997 88.7448C670.065 88.813 670.111 88.8926 670.111 88.9949C677.65 95.9182 682.22 106.627 682.73 116.87C682.73 116.95 688.592 234.976 688.648 235.044C689.102 244.127 693.66 253.802 699.793 260.486C699.952 260.657 803.014 373.408 802.821 373.522C819.533 391.757 814.148 421.439 792.878 434.013C792.798 434.058 675.984 503.041 675.904 503.018C667.56 507.952 655.904 509.191 646.426 507.191C646.324 507.168 454.248 466.606 454.169 466.674C442.899 464.287 429.94 468.015 420.903 475.166C420.79 475.257 289.69 578.97 289.565 578.902C277.864 588.167 260.438 589.179 247.036 582.62C246.878 582.54 88.4188 504.906 88.4641 504.735H88.4528Z" stroke="url(#paint1_radial_2574_3252)" stroke-miterlimit="10"/>
<path d="M103.736 492.946C87.7839 485.147 80.2895 465.173 85.3009 448.109C85.3916 447.791 111.469 358.106 111.174 357.947C115.913 341.804 108.305 324.092 93.7703 315.668C93.4301 315.475 57.2395 294.125 57.4209 293.784C40.3006 283.86 35.5501 259.634 45.0512 242.252C45.2326 241.922 112.671 119.178 113.011 119.326C122.104 102.705 144.009 96.5662 161.299 104.251C161.548 104.365 245.12 141.335 245.324 141.164C258.011 146.803 275.03 142.835 285.676 133.889C285.903 133.695 399.577 38.4172 399.837 38.5763C411.595 28.6972 429.237 27.8333 442.491 35.5865C442.683 35.7001 491.346 64.2802 491.38 64.4962C501.017 70.1349 507.593 80.2072 509.124 91.2913C509.203 91.8711 512.072 107.81 512.502 107.4C516.573 136.765 552.627 148.69 574.113 128.329C574.385 128.068 604.963 99.4879 605.247 99.7494C619.102 86.6189 640.723 86.4484 654.782 99.3515C654.918 99.4765 655.009 99.6584 655.02 99.8517C662.095 106.343 666.437 117.541 666.914 127.147C666.914 127.318 672.446 238.045 672.56 238.17C672.979 246.685 678.263 256.86 684.022 263.135C684.329 263.476 780.916 369.463 780.519 369.702C796.188 386.8 789.998 415.3 770.043 427.089C769.885 427.18 660.281 491.866 660.099 491.832C652.276 496.459 639.453 497.221 630.575 495.345C630.371 495.299 450.189 457.295 450.019 457.431C439.452 455.192 426.017 459.705 417.547 466.412C417.332 466.583 294.259 563.839 294.009 563.714C283.046 572.4 265.143 572.581 252.581 566.443C252.263 566.283 103.623 493.31 103.725 492.969L103.736 492.946Z" stroke="url(#paint2_radial_2574_3252)" stroke-miterlimit="10"/>
<path d="M119.02 481.157C104.133 473.881 97.4323 454.237 102.103 438.31C102.24 437.832 126.503 353.934 126.072 353.684C130.494 338.609 122.988 321.852 109.428 313.986C108.918 313.69 75.0739 293.534 75.3573 293.011C59.3822 283.746 55.6974 259.759 64.5636 243.536C64.8357 243.047 128.011 128.409 128.521 128.636C137.002 113.118 158.385 107.809 174.519 114.971C174.893 115.142 253.057 149.622 253.374 149.361C265.222 154.624 282.376 149.849 292.297 141.505C292.649 141.21 398.919 52.275 399.316 52.5024C410.291 43.2827 427.298 42.7938 439.667 50.0241C439.951 50.1946 485.45 76.9784 485.495 77.3081C494.498 82.5716 500.654 92.1551 502.083 102.5C502.207 103.364 505.28 118.382 505.915 117.779C509.713 145.188 543.704 156 563.761 136.992C564.169 136.605 592.956 109.924 593.376 110.31C606.312 98.0553 626.482 97.8962 639.612 109.935C639.816 110.128 639.952 110.39 639.963 110.674C646.562 116.733 650.677 128.42 651.12 137.39C651.131 137.64 656.324 241.08 656.494 241.274C656.891 249.22 662.9 259.895 668.274 265.75C668.739 266.261 758.841 365.484 758.252 365.837C772.878 381.786 765.871 409.116 747.254 420.12C747.027 420.257 644.612 480.645 644.351 480.589C637.049 484.909 623.07 485.193 614.782 483.442C614.464 483.374 446.175 447.939 445.926 448.132C436.062 446.052 422.15 451.338 414.236 457.602C413.908 457.863 298.884 548.64 298.51 548.458C288.272 556.563 269.916 555.927 258.181 550.186C257.705 549.958 118.884 481.634 119.031 481.134L119.02 481.157Z" stroke="url(#paint3_radial_2574_3252)" stroke-miterlimit="10"/>
<path d="M134.303 469.368C120.482 462.604 114.575 443.301 118.918 428.51C119.099 427.874 141.548 349.762 140.97 349.432C145.074 335.438 137.671 319.624 125.074 312.315C124.394 311.928 92.8973 292.943 93.2714 292.25C78.4414 283.655 75.811 259.907 84.0537 244.844C84.4165 244.184 143.317 137.651 143.997 137.958C151.877 123.555 172.728 119.064 187.705 125.715C188.204 125.942 260.959 157.933 261.379 157.58C272.377 162.469 289.667 156.898 298.885 149.145C299.349 148.758 398.239 66.1559 398.76 66.4629C408.953 57.9025 425.325 57.7888 436.81 64.5075C437.196 64.7349 479.509 89.7225 479.577 90.1545C487.933 95.0429 493.67 104.126 495.008 113.732C495.167 114.892 498.455 128.977 499.305 128.182C502.831 153.635 534.747 163.333 553.376 145.677C553.92 145.155 580.915 120.383 581.471 120.894C593.478 109.515 612.208 109.367 624.408 120.542C624.691 120.804 624.85 121.156 624.873 121.531C631.006 127.158 634.884 139.334 635.292 147.656C635.304 147.997 640.179 244.139 640.405 244.389C640.768 251.767 647.514 262.942 652.503 268.376C653.127 269.047 736.744 361.517 735.95 361.983C749.533 376.796 741.71 402.943 724.419 413.163C724.113 413.345 628.909 469.437 628.557 469.368C621.777 473.37 606.641 473.188 598.943 471.562C598.523 471.471 442.128 438.594 441.788 438.867C432.627 436.934 418.239 443.016 410.892 448.826C410.461 449.167 303.465 533.486 302.966 533.247C293.465 540.773 274.633 539.306 263.748 533.986C263.113 533.679 134.111 470.028 134.315 469.346L134.303 469.368Z" stroke="url(#paint4_radial_2574_3252)" stroke-miterlimit="10"/>
<path d="M149.587 457.579C136.82 451.338 131.707 432.364 135.721 418.711C135.959 417.915 156.582 345.59 155.857 345.169C159.644 332.255 152.353 317.385 140.721 310.644C139.882 310.155 110.72 292.352 111.185 291.488C97.4891 283.553 95.9359 260.054 103.544 246.151C103.997 245.332 158.623 146.905 159.485 147.28C166.753 133.98 187.081 130.319 200.902 136.458C201.526 136.731 268.884 166.243 269.406 165.811C279.553 170.324 296.98 163.946 305.483 156.796C306.062 156.307 397.559 80.0367 398.216 80.4233C407.627 72.5223 423.364 72.7837 433.965 78.9795C434.441 79.2523 473.591 102.455 473.67 103.001C481.38 107.514 486.709 116.097 487.944 124.964C488.149 126.408 491.629 139.584 492.695 138.572C495.949 162.071 525.802 170.654 543.001 154.352C543.682 153.704 568.875 130.83 569.566 131.467C580.655 120.963 597.945 120.826 609.204 131.149C609.555 131.467 609.759 131.91 609.782 132.388C615.439 137.572 619.102 150.248 619.476 157.933C619.498 158.353 624.034 247.208 624.317 247.515C624.657 254.325 632.129 266 636.732 271.025C637.503 271.866 714.635 357.572 713.66 358.152C726.2 371.828 717.571 396.804 701.608 406.229C701.222 406.456 613.217 458.261 612.786 458.159C606.528 461.854 590.235 461.194 583.126 459.694C582.605 459.58 438.092 429.272 437.672 429.602C429.214 427.817 414.35 434.684 407.57 440.049C407.026 440.481 308.068 518.332 307.456 518.025C298.681 524.971 279.383 522.686 269.338 517.763C268.556 517.377 149.371 458.386 149.61 457.545L149.587 457.579Z" stroke="url(#paint5_radial_2574_3252)" stroke-miterlimit="10"/>
<path d="M164.87 445.79C153.17 440.072 148.85 421.428 152.523 408.911C152.807 407.956 171.616 341.417 170.755 340.917C174.224 329.071 167.036 315.157 156.378 308.972C155.369 308.381 128.555 291.761 129.11 290.726C116.559 283.45 116.072 260.191 123.045 247.447C123.578 246.458 173.952 156.148 174.972 156.602C181.639 144.415 201.435 141.562 214.111 147.201C214.859 147.53 276.81 174.553 277.433 174.03C286.742 178.168 304.293 170.995 312.093 164.435C312.785 163.855 396.889 93.9173 397.683 94.3834C406.311 87.1304 421.413 87.7784 431.13 93.4626C431.697 93.7923 467.683 115.187 467.774 115.847C474.849 119.985 479.758 128.068 480.881 136.196C481.119 137.936 484.815 150.179 486.085 148.974C489.067 170.506 516.856 177.975 532.616 163.048C533.432 162.275 556.833 141.301 557.661 142.074C567.82 132.445 583.67 132.32 593.988 141.778C594.407 142.165 594.657 142.699 594.691 143.267C599.872 148.019 603.308 161.195 603.648 168.232C603.67 168.732 607.877 250.3 608.217 250.675C608.523 256.917 616.732 269.092 620.949 273.696C621.879 274.708 692.526 353.65 691.347 354.355C702.832 366.894 693.399 390.688 678.773 399.328C678.308 399.601 597.514 447.109 596.992 446.995C591.255 450.383 573.806 449.246 567.287 447.871C566.664 447.734 434.032 419.984 433.534 420.382C425.79 418.745 410.438 426.396 404.225 431.318C403.579 431.83 312.66 503.223 311.912 502.859C303.873 509.226 284.1 506.111 274.893 501.609C273.952 501.143 164.587 446.813 164.882 445.802L164.87 445.79Z" stroke="url(#paint6_radial_2574_3252)" stroke-miterlimit="10"/>
<path d="M180.154 434.001C169.519 428.806 165.993 410.491 169.326 399.112C169.655 397.998 186.65 337.245 185.641 336.654C188.793 325.888 181.707 312.917 172.024 307.301C170.845 306.619 146.378 291.169 147.024 289.964C135.618 283.348 136.197 260.338 142.535 248.754C143.158 247.606 189.258 165.39 190.449 165.924C196.503 154.84 215.778 152.817 227.297 157.944C228.17 158.33 284.712 182.863 285.449 182.249C293.907 186.012 311.594 178.032 318.68 172.075C319.497 171.392 396.209 107.798 397.116 108.332C404.962 101.739 419.429 102.762 428.273 107.923C428.942 108.309 461.742 127.908 461.856 128.682C468.284 132.444 472.785 140.039 473.806 147.428C474.089 149.452 477.99 160.774 479.475 159.376C482.185 178.952 507.91 185.307 522.241 171.733C523.194 170.824 544.793 151.771 545.768 152.657C555.008 143.904 569.419 143.79 578.795 152.385C579.283 152.828 579.577 153.453 579.611 154.124C584.328 158.444 587.525 172.109 587.843 178.498C587.877 179.089 591.743 253.358 592.14 253.79C592.423 259.463 601.346 272.15 605.19 276.334C606.267 277.516 670.439 349.693 669.056 350.512C679.498 361.903 669.249 384.526 655.95 392.382C655.405 392.7 581.822 435.911 581.199 435.786C575.983 438.867 557.378 437.252 551.448 436.002C550.722 435.843 429.985 410.662 429.395 411.117C422.354 409.627 406.527 418.074 400.88 422.542C400.121 423.144 317.241 488.069 316.368 487.637C309.055 493.423 288.816 489.49 280.449 485.397C279.349 484.863 179.802 435.183 180.154 434.013V434.001Z" stroke="url(#paint7_radial_2574_3252)" stroke-miterlimit="10"/>
<path d="M195.437 422.213C185.868 417.529 183.136 399.555 186.14 389.313C186.514 388.039 201.696 333.073 200.551 332.403C203.397 322.717 196.401 310.689 187.682 305.63C186.333 304.846 164.201 290.579 164.961 289.203C154.689 283.246 156.333 260.487 162.036 250.05C162.75 248.743 204.576 174.633 205.948 175.235C211.401 165.265 230.143 164.06 240.506 168.676C241.503 169.119 292.637 191.162 293.476 190.458C301.084 193.845 318.907 185.069 325.291 179.703C326.22 178.919 395.54 121.668 396.583 122.27C403.636 116.336 417.479 117.734 425.438 122.384C426.198 122.827 455.835 140.63 455.96 141.505C461.742 144.893 465.835 151.987 466.754 158.638C467.071 160.957 471.176 171.359 472.876 169.744C475.314 187.365 498.976 192.606 511.867 180.385C512.956 179.351 532.763 162.196 533.874 163.208C542.185 155.329 555.156 155.227 563.602 162.969C564.158 163.48 564.498 164.197 564.532 164.947C568.772 168.835 571.743 182.989 572.026 188.741C572.06 189.412 575.598 256.394 576.051 256.894C576.301 261.999 585.961 275.186 589.419 278.949C590.655 280.302 648.342 345.715 646.766 346.647C656.165 356.901 645.111 378.342 633.138 385.413C632.526 385.777 566.131 424.691 565.428 424.543C560.734 427.317 540.96 425.225 535.632 424.1C534.793 423.918 425.949 401.295 425.28 401.829C418.942 400.488 402.638 409.719 397.558 413.743C396.697 414.425 321.844 472.893 320.857 472.404C314.281 477.61 293.578 472.847 286.039 469.164C284.78 468.55 195.052 423.543 195.449 422.19L195.437 422.213Z" stroke="url(#paint8_radial_2574_3252)" stroke-miterlimit="10"/>
<path d="M210.721 410.424C202.217 406.263 200.267 388.619 202.943 379.513C203.362 378.081 216.73 328.89 215.437 328.151C217.966 319.534 211.084 308.45 203.328 303.959C201.809 303.072 182.025 289.987 182.875 288.441C173.748 283.155 176.458 260.623 181.526 251.358C182.331 249.88 219.893 183.875 221.424 184.557C226.276 175.69 244.474 175.315 253.692 179.419C254.814 179.919 300.551 199.473 301.492 198.688C308.261 201.701 326.209 192.117 331.889 187.354C332.932 186.479 394.86 135.548 396.039 136.242C402.309 130.967 415.518 132.74 422.593 136.867C423.454 137.367 449.917 153.374 450.053 154.363C455.2 157.376 458.874 163.969 459.69 169.881C460.053 172.484 464.361 181.965 466.266 180.158C468.432 195.823 490.031 199.939 501.493 189.082C502.729 187.911 520.722 172.666 521.981 173.803C529.373 166.8 540.904 166.709 548.398 173.587C549.022 174.167 549.407 174.962 549.441 175.815C553.217 179.271 555.96 193.913 556.21 199.029C556.244 199.78 559.464 259.475 559.974 260.032C560.201 264.568 570.586 278.255 573.659 281.597C575.054 283.121 626.244 341.781 624.476 342.827C632.832 351.945 620.961 372.203 610.326 378.49C609.634 378.899 550.45 413.516 549.657 413.357C545.484 415.824 524.554 413.254 519.815 412.254C518.874 412.061 421.924 391.995 421.164 392.587C415.529 391.393 398.749 401.408 394.225 404.989C393.25 405.762 326.447 457.75 325.325 457.204C319.474 461.831 298.306 456.249 291.606 452.975C290.188 452.282 210.279 411.936 210.732 410.424H210.721Z" stroke="url(#paint9_radial_2574_3252)" stroke-miterlimit="10"/>
<path d="M226.004 398.635C218.555 394.997 217.41 377.683 219.746 369.713C220.211 368.122 231.764 324.718 230.324 323.888C232.535 316.35 225.755 306.21 218.975 302.288C217.286 301.31 199.848 289.396 200.789 287.68C192.807 283.053 196.583 260.771 201.016 252.654C201.911 251.017 235.2 193.118 236.912 193.879C241.152 186.126 258.828 186.57 266.9 190.151C268.148 190.708 308.477 207.771 309.52 206.896C315.438 209.534 333.522 199.154 338.488 194.982C339.644 194.004 394.191 149.418 395.495 150.179C400.983 145.564 413.556 147.701 419.747 151.328C420.699 151.885 443.987 166.095 444.146 167.187C448.647 169.813 451.901 175.929 452.627 181.101C453.024 184 457.547 192.549 459.668 190.548C461.561 204.259 481.085 207.26 491.119 197.756C492.491 196.46 508.693 183.114 510.076 184.387C516.539 178.259 526.629 178.18 533.194 184.194C533.897 184.83 534.305 185.728 534.362 186.672C537.661 189.696 540.178 204.827 540.394 209.306C540.439 210.147 543.319 262.544 543.886 263.169C544.079 267.137 555.201 281.325 557.888 284.258C559.43 285.94 604.147 337.848 602.174 339.008C609.487 346.988 596.8 366.076 587.491 371.578C586.72 372.033 534.736 402.352 533.863 402.17C530.212 404.33 508.126 401.283 503.976 400.408C502.933 400.192 417.865 382.685 417.026 383.344C412.094 382.298 394.837 393.11 390.881 396.236C389.803 397.088 331.028 442.619 329.792 442.016C324.678 446.075 303.034 439.652 297.173 436.787C295.597 436.014 225.517 400.328 226.004 398.646V398.635Z" stroke="url(#paint10_radial_2574_3252)" stroke-miterlimit="10"/>
<path d="M241.288 386.845C234.905 383.73 234.553 366.746 236.549 359.914C237.059 358.163 246.798 320.545 245.222 319.636C247.116 313.179 240.437 303.982 234.632 300.616C232.773 299.536 217.682 288.805 218.714 286.918C211.866 282.95 216.719 260.918 220.517 253.961C221.503 252.153 250.517 202.371 252.399 203.201C256.038 196.551 273.181 197.824 280.098 200.893C281.469 201.507 316.39 216.082 317.547 215.115C322.626 217.366 340.846 206.191 345.098 202.621C346.379 201.553 393.522 163.298 394.962 164.14C399.667 160.183 411.606 162.696 416.912 165.799C417.955 166.413 438.08 178.827 438.25 180.032C442.105 182.283 444.951 187.899 445.563 192.333C446.005 195.516 450.722 203.156 453.058 200.939C454.69 212.682 472.139 214.581 480.733 206.43C482.241 205.009 496.652 193.561 498.171 194.959C503.715 189.707 512.355 189.639 517.99 194.8C518.761 195.505 519.214 196.482 519.271 197.528C522.105 200.12 524.384 215.74 524.577 219.572C524.622 220.492 527.174 265.602 527.797 266.284C527.967 269.683 539.815 284.371 542.117 286.884C543.818 288.737 582.049 333.88 579.884 335.153C586.153 341.986 572.661 359.902 564.679 364.62C563.829 365.12 519.056 391.154 518.092 390.949C514.963 392.802 491.72 389.278 488.16 388.528C487.015 388.289 413.828 373.34 412.91 374.079C408.681 373.181 390.948 384.776 387.558 387.459C386.368 388.403 335.631 427.464 334.27 426.794C329.882 430.272 307.773 423.031 302.751 420.575C301.016 419.734 240.755 388.71 241.299 386.857L241.288 386.845Z" stroke="url(#paint11_radial_2574_3252)" stroke-miterlimit="10"/>
<path d="M256.583 375.056C251.265 372.453 251.696 355.81 253.374 350.114C253.93 348.204 261.855 316.373 260.132 315.373C261.708 309.995 255.143 301.742 250.29 298.934C248.261 297.763 235.517 288.202 236.639 286.145C230.937 282.836 236.844 261.043 240.018 255.257C241.095 253.29 265.846 211.602 267.887 212.512C270.914 206.975 287.535 209.067 293.295 211.625C294.803 212.296 324.304 224.38 325.563 223.323C329.792 225.199 348.148 213.228 351.685 210.249C353.08 209.079 392.831 177.168 394.407 178.077C398.33 174.78 409.633 177.668 414.055 180.26C415.2 180.93 432.151 191.549 432.332 192.856C435.541 194.732 437.978 199.847 438.488 203.542C438.965 207.021 443.897 213.728 446.436 211.318C447.797 221.106 463.182 221.891 470.348 215.104C471.992 213.546 484.6 204.008 486.266 205.532C490.881 201.155 498.092 201.098 502.774 205.395C503.614 206.168 504.112 207.237 504.169 208.374C506.527 210.534 508.58 226.643 508.738 229.837C508.784 230.849 511.006 268.66 511.686 269.399C511.822 272.241 524.396 287.429 526.323 289.51C528.183 291.533 559.929 329.913 557.559 331.311C562.786 337.006 548.478 353.741 541.822 357.674C540.893 358.22 503.319 379.956 502.276 379.729C499.668 381.275 475.269 377.273 472.298 376.648C471.051 376.386 409.758 364.006 408.749 364.802C405.223 364.052 387.014 376.432 384.191 378.671C382.887 379.695 340.2 412.299 338.703 411.571C335.053 414.47 312.479 406.41 308.284 404.352C306.39 403.432 255.948 377.068 256.549 375.045L256.583 375.056Z" stroke="url(#paint12_radial_2574_3252)" stroke-miterlimit="10"/>
<path d="M271.866 363.267C267.614 361.187 268.839 344.873 270.177 340.315C270.789 338.246 276.889 312.201 275.018 311.121C276.277 306.812 269.814 299.514 265.936 297.274C263.737 296.001 253.34 287.622 254.564 285.394C249.995 282.745 256.979 261.202 259.519 256.564C260.687 254.427 281.163 220.856 283.386 221.845C285.812 217.412 301.9 220.333 306.504 222.38C308.136 223.107 332.241 232.702 333.601 231.554C336.98 233.054 355.472 220.276 358.306 217.9C359.814 216.627 392.184 191.048 393.885 192.049C397.026 189.411 407.694 192.674 411.232 194.743C412.468 195.471 426.243 204.293 426.447 205.714C429.021 207.214 431.039 211.83 431.447 214.786C431.969 218.548 437.094 224.335 439.86 221.732C440.949 229.564 454.271 229.223 459.996 223.801C461.776 222.118 472.593 214.479 474.395 216.127C478.092 212.626 483.851 212.58 487.604 216.025C488.511 216.855 489.055 218.014 489.112 219.242C490.994 220.97 492.831 237.568 492.956 240.126C493.012 241.217 494.894 271.741 495.631 272.548C495.745 274.822 509.044 290.51 510.586 292.181C512.593 294.375 537.854 325.991 535.291 327.503C539.475 332.061 524.35 347.613 519.033 350.762C518.024 351.353 487.661 368.792 486.516 368.554C484.43 369.781 458.874 365.314 456.504 364.813C455.144 364.529 405.744 354.707 404.656 355.571C401.833 354.98 383.148 368.144 380.892 369.929C379.486 371.043 344.826 397.179 343.216 396.383C340.291 398.703 317.252 389.812 313.896 388.175C311.844 387.175 271.22 365.473 271.866 363.279V363.267Z" stroke="url(#paint13_radial_2574_3252)" stroke-miterlimit="10"/>
<path d="M287.15 351.478C283.964 349.921 285.982 333.937 286.98 330.515C287.637 328.287 291.923 308.029 289.916 306.858C290.869 303.629 284.497 297.274 281.594 295.592C279.225 294.216 271.175 287.02 272.49 284.621C269.066 282.632 277.116 261.339 279.02 257.86C280.279 255.564 296.481 230.087 298.873 231.156C300.687 227.836 316.254 231.577 319.712 233.111C321.47 233.896 340.166 241.001 341.628 239.773C344.168 240.899 362.785 227.325 364.917 225.54C366.538 224.176 391.515 204.929 393.341 205.998C395.688 204.02 405.733 207.658 408.386 209.215C409.713 209.999 420.325 217.025 420.54 218.548C422.468 219.674 424.078 223.801 424.384 226.017C424.951 230.076 430.28 234.942 433.25 232.122C434.067 238 445.325 236.545 449.622 232.475C451.538 230.656 460.552 224.926 462.502 226.7C465.269 224.073 469.6 224.039 472.411 226.62C473.386 227.518 473.976 228.769 474.044 230.087C475.461 231.383 477.06 248.47 477.151 250.391C477.207 251.562 478.772 274.799 479.566 275.663C479.645 277.368 493.681 293.557 494.838 294.807C497.003 297.172 515.779 322.023 513.024 323.649C516.153 327.071 500.235 341.452 496.244 343.805C495.167 344.441 471.992 357.583 470.767 357.322C469.203 358.243 442.479 353.297 440.711 352.922C439.248 352.615 401.742 345.362 400.563 346.283C398.454 345.84 379.282 359.789 377.592 361.13C376.073 362.335 349.452 382.002 347.717 381.15C345.529 382.889 322.014 373.181 319.497 371.953C317.297 370.873 286.492 353.832 287.184 351.478H287.15Z" stroke="url(#paint14_radial_2574_3252)" stroke-miterlimit="10"/>
<path d="M302.433 339.69C300.302 338.655 303.114 323.001 303.783 320.716C304.486 318.328 306.957 303.857 304.803 302.606C305.438 300.457 299.179 295.046 297.241 293.932C294.712 292.465 288.998 286.452 290.404 283.871C288.125 282.552 297.241 261.487 298.499 259.168C299.848 256.712 311.787 239.341 314.338 240.478C315.551 238.261 330.585 242.831 332.887 243.854C334.769 244.684 348.057 249.311 349.633 247.993C351.323 248.743 370.075 234.362 371.493 233.168C373.239 231.702 390.812 218.799 392.774 219.947C394.339 218.628 403.749 222.641 405.518 223.676C406.946 224.506 414.384 229.746 414.611 231.383C415.892 232.134 417.082 235.76 417.298 237.238C417.899 241.581 423.443 245.526 426.618 242.513C427.162 246.424 436.357 243.866 439.214 241.149C441.266 239.205 448.488 235.374 450.563 237.284C452.411 235.533 455.291 235.51 457.173 237.227C458.216 238.182 458.851 239.523 458.919 240.944C459.86 241.808 461.232 259.384 461.3 260.657C461.357 261.919 462.593 277.857 463.443 278.789C463.5 279.926 478.262 296.615 479.033 297.456C481.357 299.991 493.647 318.078 490.688 319.818C492.774 322.091 476.04 335.301 473.375 336.87C472.219 337.552 456.255 346.397 454.94 346.124C453.897 346.738 426.017 341.315 424.838 341.054C423.273 340.724 397.649 336.029 396.391 337.029C394.985 336.734 375.336 351.467 374.202 352.365C372.581 353.65 353.998 366.849 352.139 365.939C350.676 367.099 326.697 356.56 325.019 355.742C322.66 354.582 301.674 342.213 302.411 339.678L302.433 339.69Z" stroke="url(#paint15_radial_2574_3252)" stroke-miterlimit="10"/>
<path d="M317.717 327.901C316.651 327.378 320.257 312.064 320.597 310.916C321.345 308.37 322.003 299.684 319.712 298.343C320.03 297.263 313.873 292.806 312.898 292.249C310.2 290.681 306.832 285.849 308.329 283.098C307.184 282.439 317.365 261.623 318 260.464C319.44 257.837 327.105 248.584 329.837 249.789C330.438 248.686 344.951 254.063 346.096 254.575C348.103 255.461 355.982 257.599 357.66 256.189C358.511 256.564 377.388 241.387 378.103 240.785C379.962 239.227 390.155 232.645 392.241 233.873C393.023 233.214 401.799 237.602 402.683 238.125C404.203 239.011 408.477 242.445 408.715 244.195C409.361 244.571 410.132 247.697 410.234 248.436C410.881 253.074 416.618 256.087 420.019 252.881C420.291 254.836 427.411 251.164 428.851 249.8C431.039 247.731 436.459 245.798 438.681 247.833C439.6 246.958 441.051 246.947 441.98 247.811C443.103 248.834 443.761 250.255 443.84 251.778C444.316 252.21 445.461 270.274 445.484 270.911C445.552 272.253 446.448 280.904 447.355 281.893C447.377 282.461 462.876 299.65 463.262 300.071C465.733 302.765 471.538 314.099 468.398 315.964C469.441 317.101 451.89 329.128 450.563 329.913C449.327 330.64 440.575 335.199 439.169 334.892C438.647 335.199 409.611 329.288 409.021 329.162C407.354 328.81 393.613 326.684 392.275 327.741C391.572 327.594 371.447 343.111 370.88 343.566C369.146 344.942 358.601 351.672 356.617 350.705C355.892 351.285 331.436 339.928 330.608 339.519C328.091 338.291 316.923 330.572 317.717 327.878V327.901Z" stroke="url(#paint16_radial_2574_3252)" stroke-miterlimit="10"/>
<path d="M428.76 262.646L429.679 281.2C429.747 282.632 430.314 283.985 431.277 285.042L447.491 302.731C450.121 305.596 449.441 310.166 446.096 312.144L427.74 322.99C426.425 323.763 424.871 324.024 423.386 323.706L393.193 317.317C391.425 316.942 389.577 317.374 388.148 318.499L367.547 334.813C365.71 336.268 363.193 336.541 361.084 335.506L336.175 323.319C333.499 322.012 332.15 318.954 333 316.089L337.399 301.094C338.193 298.389 337.037 295.478 334.599 294.069L328.544 290.556C325.676 288.896 324.656 285.235 326.243 282.314L337.49 261.737C339.009 258.952 342.411 257.792 345.313 259.088L359.282 265.295C361.413 266.239 363.896 265.886 365.676 264.386L384.69 248.402C386.663 246.742 389.463 246.503 391.685 247.811L399.826 252.574C401.447 253.518 402.536 255.155 402.797 257.019L403.159 259.657C403.84 264.579 409.792 266.682 413.397 263.26L418.454 258.463C420.778 256.257 424.407 256.235 426.765 258.395C427.955 259.486 428.658 260.998 428.738 262.612L428.76 262.646Z" stroke="url(#paint17_radial_2574_3252)" stroke-miterlimit="10"/>
<defs>
<radialGradient id="paint0_radial_2574_3252" cx="0" cy="0" r="1" gradientUnits="userSpaceOnUse" gradientTransform="translate(418.5 302) rotate(90.0978) scale(293 406.404)">
<stop stop-color="white"/>
<stop offset="1" stop-color="white" stop-opacity="0"/>
</radialGradient>
<radialGradient id="paint1_radial_2574_3252" cx="0" cy="0" r="1" gradientUnits="userSpaceOnUse" gradientTransform="translate(418.5 302) rotate(90.0978) scale(293 406.404)">
<stop stop-color="white"/>
<stop offset="1" stop-color="white" stop-opacity="0"/>
</radialGradient>
<radialGradient id="paint2_radial_2574_3252" cx="0" cy="0" r="1" gradientUnits="userSpaceOnUse" gradientTransform="translate(418.5 302) rotate(90.0978) scale(293 406.404)">
<stop stop-color="white"/>
<stop offset="1" stop-color="white" stop-opacity="0"/>
</radialGradient>
<radialGradient id="paint3_radial_2574_3252" cx="0" cy="0" r="1" gradientUnits="userSpaceOnUse" gradientTransform="translate(418.5 302) rotate(90.0978) scale(293 406.404)">
<stop stop-color="white"/>
<stop offset="1" stop-color="white" stop-opacity="0"/>
</radialGradient>
<radialGradient id="paint4_radial_2574_3252" cx="0" cy="0" r="1" gradientUnits="userSpaceOnUse" gradientTransform="translate(418.5 302) rotate(90.0978) scale(293 406.404)">
<stop stop-color="white"/>
<stop offset="1" stop-color="white" stop-opacity="0"/>
</radialGradient>
<radialGradient id="paint5_radial_2574_3252" cx="0" cy="0" r="1" gradientUnits="userSpaceOnUse" gradientTransform="translate(418.5 302) rotate(90.0978) scale(293 406.404)">
<stop stop-color="white"/>
<stop offset="1" stop-color="white" stop-opacity="0"/>
</radialGradient>
<radialGradient id="paint6_radial_2574_3252" cx="0" cy="0" r="1" gradientUnits="userSpaceOnUse" gradientTransform="translate(418.5 302) rotate(90.0978) scale(293 406.404)">
<stop stop-color="white"/>
<stop offset="1" stop-color="white" stop-opacity="0"/>
</radialGradient>
<radialGradient id="paint7_radial_2574_3252" cx="0" cy="0" r="1" gradientUnits="userSpaceOnUse" gradientTransform="translate(418.5 302) rotate(90.0978) scale(293 406.404)">
<stop stop-color="white"/>
<stop offset="1" stop-color="white" stop-opacity="0"/>
</radialGradient>
<radialGradient id="paint8_radial_2574_3252" cx="0" cy="0" r="1" gradientUnits="userSpaceOnUse" gradientTransform="translate(418.5 302) rotate(90.0978) scale(293 406.404)">
<stop stop-color="white"/>
<stop offset="1" stop-color="white" stop-opacity="0"/>
</radialGradient>
<radialGradient id="paint9_radial_2574_3252" cx="0" cy="0" r="1" gradientUnits="userSpaceOnUse" gradientTransform="translate(418.5 302) rotate(90.0978) scale(293 406.404)">
<stop stop-color="white"/>
<stop offset="1" stop-color="white" stop-opacity="0"/>
</radialGradient>
<radialGradient id="paint10_radial_2574_3252" cx="0" cy="0" r="1" gradientUnits="userSpaceOnUse" gradientTransform="translate(418.5 302) rotate(90.0978) scale(293 406.404)">
<stop stop-color="white"/>
<stop offset="1" stop-color="white" stop-opacity="0"/>
</radialGradient>
<radialGradient id="paint11_radial_2574_3252" cx="0" cy="0" r="1" gradientUnits="userSpaceOnUse" gradientTransform="translate(418.5 302) rotate(90.0978) scale(293 406.404)">
<stop stop-color="white"/>
<stop offset="1" stop-color="white" stop-opacity="0"/>
</radialGradient>
<radialGradient id="paint12_radial_2574_3252" cx="0" cy="0" r="1" gradientUnits="userSpaceOnUse" gradientTransform="translate(418.5 302) rotate(90.0978) scale(293 406.404)">
<stop stop-color="white"/>
<stop offset="1" stop-color="white" stop-opacity="0"/>
</radialGradient>
<radialGradient id="paint13_radial_2574_3252" cx="0" cy="0" r="1" gradientUnits="userSpaceOnUse" gradientTransform="translate(418.5 302) rotate(90.0978) scale(293 406.404)">
<stop stop-color="white"/>
<stop offset="1" stop-color="white" stop-opacity="0"/>
</radialGradient>
<radialGradient id="paint14_radial_2574_3252" cx="0" cy="0" r="1" gradientUnits="userSpaceOnUse" gradientTransform="translate(418.5 302) rotate(90.0978) scale(293 406.404)">
<stop stop-color="white"/>
<stop offset="1" stop-color="white" stop-opacity="0"/>
</radialGradient>
<radialGradient id="paint15_radial_2574_3252" cx="0" cy="0" r="1" gradientUnits="userSpaceOnUse" gradientTransform="translate(418.5 302) rotate(90.0978) scale(293 406.404)">
<stop stop-color="white"/>
<stop offset="1" stop-color="white" stop-opacity="0"/>
</radialGradient>
<radialGradient id="paint16_radial_2574_3252" cx="0" cy="0" r="1" gradientUnits="userSpaceOnUse" gradientTransform="translate(418.5 302) rotate(90.0978) scale(293 406.404)">
<stop stop-color="white"/>
<stop offset="1" stop-color="white" stop-opacity="0"/>
</radialGradient>
<radialGradient id="paint17_radial_2574_3252" cx="0" cy="0" r="1" gradientUnits="userSpaceOnUse" gradientTransform="translate(418.5 302) rotate(90.0978) scale(293 406.404)">
<stop stop-color="white"/>
<stop offset="1" stop-color="white" stop-opacity="0"/>
</radialGradient>
</defs>
</svg>
