<svg width="80" height="90" viewBox="0 0 80 90" fill="none" xmlns="http://www.w3.org/2000/svg">
<g clip-path="url(#clip0_1_7)">
<path d="M79.8794 0.0401917C79.8794 0.0401917 50.8287 7.16209 39.4728 10.2548L18.7739 15.098L0.169161 10.2548C0.169161 10.2548 0.120522 24.3162 0.120522 31.4888L18.9268 36.6726C18.9268 36.6726 79.8794 21.2633 79.8794 21.6742V0.0401917Z" fill="#3400EC"/>
<path d="M69.9867 27.9787L18.6532 41.2673L0.120522 36.1154L0.16904 57.3411C4.91276 59.0983 18.8223 63.3695 18.8223 63.3695L69.9867 50.1962V27.9787Z" fill="#3400EC"/>
<path d="M19.0155 67.6886L0.120522 63.1375C0.120522 63.1375 0.16914 67.4908 0.16914 73.5347V84.5087L18.6933 89.447L79.8794 74.3518V52.8147L19.0155 67.6886Z" fill="#3400EC"/>
</g>
<defs>
<clipPath id="clip0_1_7">
<rect width="80" height="89.4472" fill="white"/>
</clipPath>
</defs>
</svg>
