<svg width="1390" height="686" viewBox="0 0 1390 686" fill="none" xmlns="http://www.w3.org/2000/svg">
<path d="M0 30C0 13.4315 13.4315 0 30 0H363.747C372.965 0 381.9 3.18404 389.042 9.01355L440.458 50.9864C447.6 56.816 456.535 60 465.753 60H695H924.247C933.465 60 942.4 56.816 949.542 50.9864L1000.96 9.01356C1008.1 3.18404 1017.04 0 1026.25 0H1360C1376.57 0 1390 13.4315 1390 30V656C1390 672.569 1376.57 686 1360 686H1032.24C1019.52 686 1007.55 679.944 1000.01 669.689L959.479 614.543C946.29 596.598 925.347 586 903.076 586H695H486.924C464.653 586 443.71 596.598 430.521 614.543L389.988 669.689C382.451 679.944 370.484 686 357.758 686H30C13.4315 686 0 672.569 0 656V30Z" fill="url(#paint0_linear_2492_3114)"/>
<defs>
<linearGradient id="paint0_linear_2492_3114" x1="695" y1="0" x2="695" y2="786" gradientUnits="userSpaceOnUse">
<stop stop-color="#0057FF"/>
<stop offset="1" stop-color="#1100D5"/>
</linearGradient>
</defs>
</svg>
