<svg width="1280" height="1280" viewBox="0 0 1280 1280" fill="none" xmlns="http://www.w3.org/2000/svg">
<g clip-path="url(#clip0_8_44)">
<rect width="1280" height="1280" fill="#3400EC"/>
<path d="M907.253 340C907.253 340 712.298 387.794 636.088 408.549L497.181 441.051L372.326 408.549C372.326 408.549 372 502.913 372 551.048L498.207 585.836C498.207 585.836 907.253 482.427 907.253 485.183V340Z" fill="white"/>
<path d="M840.865 527.492L496.371 616.67L372 582.097L372.326 724.54C404.16 736.333 497.506 764.995 497.506 764.995L840.865 676.592V527.492Z" fill="white"/>
<path d="M498.802 793.982L372 763.44C372 763.44 372.326 792.654 372.326 833.213V906.86L496.64 940L907.253 838.696V694.163L498.802 793.982Z" fill="white"/>
</g>
<defs>
<clipPath id="clip0_8_44">
<rect width="1280" height="1280" rx="640" fill="white"/>
</clipPath>
</defs>
</svg>
