<?xml version="1.0" encoding="UTF-8"?> <svg xmlns="http://www.w3.org/2000/svg" width="105" height="20" viewBox="0 0 105 20" fill="none"> <path fill-rule="evenodd" clip-rule="evenodd" d="M9.83172 0.909058C9.83172 5.92983 5.6988 9.99997 0.600586 9.99997C0.600586 4.97919 4.7335 0.909058 9.83172 0.909058ZM9.83172 19.0909C4.7335 19.0909 0.600586 15.0207 0.600586 9.99997C5.6988 9.99997 9.83172 14.0701 9.83172 19.0909ZM19.0629 9.99997C19.0629 15.0207 14.9299 19.0909 9.83172 19.0909C9.83172 14.0701 13.9646 9.99997 19.0629 9.99997ZM18.2936 1.66665C18.2936 5.8506 14.8495 9.24238 10.601 9.24238C10.601 5.05842 14.0451 1.66665 18.2936 1.66665Z" fill="white"></path> <path d="M31.7834 18.9543C30.9957 18.9543 30.2018 18.8392 29.4018 18.6089C28.6141 18.3907 27.9741 18.0998 27.4817 17.7362L28.5156 15.6634C28.9095 15.9301 29.3526 16.1362 29.8449 16.2816C30.3495 16.4392 30.8727 16.518 31.4142 16.518C32.0419 16.518 32.5527 16.4271 32.9466 16.2452C33.3404 16.0634 33.6297 15.7907 33.8143 15.4271C34.0112 15.0634 34.1097 14.6089 34.1097 14.0634V12.4634L34.6636 12.5725C34.5897 12.9483 34.3805 13.2998 34.0358 13.6271C33.7035 13.9543 33.2912 14.215 32.7989 14.4089C32.3065 14.6028 31.7896 14.6998 31.248 14.6998C30.3619 14.6998 29.568 14.4998 28.8664 14.0998C28.1648 13.6877 27.611 13.1241 27.2048 12.4089C26.811 11.6816 26.614 10.8452 26.614 9.89979C26.614 8.93011 26.811 8.06951 27.2048 7.31797C27.611 6.56647 28.1587 5.97861 28.8479 5.55433C29.5372 5.13011 30.3126 4.91797 31.1742 4.91797C31.5311 4.91797 31.8758 4.96042 32.2081 5.04524C32.5527 5.11797 32.8666 5.22706 33.1497 5.37251C33.4451 5.51797 33.7035 5.68161 33.9251 5.86342C34.1589 6.04524 34.3497 6.24524 34.4974 6.46342C34.6451 6.68161 34.7374 6.89979 34.7743 7.11797L34.1651 7.29979L34.2759 5.11797H37.1006V13.9725C37.1006 14.7604 36.9773 15.4634 36.7313 16.0816C36.4973 16.6998 36.1465 17.221 35.679 17.6452C35.2236 18.0695 34.6697 18.3907 34.0174 18.6089C33.3651 18.8392 32.6204 18.9543 31.7834 18.9543ZM31.8573 12.4271C32.3373 12.4271 32.7496 12.3241 33.0943 12.118C33.4512 11.9119 33.722 11.621 33.9066 11.2452C34.1036 10.8695 34.202 10.4332 34.202 9.93615C34.202 9.41497 34.1036 8.96647 33.9066 8.5907C33.722 8.21497 33.4512 7.92406 33.0943 7.71797C32.7496 7.49979 32.3373 7.3907 31.8573 7.3907C31.4019 7.3907 31.0019 7.49979 30.6573 7.71797C30.3126 7.92406 30.0419 8.21497 29.8449 8.5907C29.6603 8.96647 29.568 9.40888 29.568 9.91797C29.568 10.4271 29.6603 10.8695 29.8449 11.2452C30.0419 11.621 30.3126 11.9119 30.6573 12.118C31.0019 12.3241 31.4019 12.4271 31.8573 12.4271Z" fill="white"></path> <path d="M43.9669 14.9543C42.8836 14.9543 41.936 14.7422 41.1237 14.318C40.3238 13.8937 39.7021 13.3119 39.259 12.5725C38.8283 11.821 38.6128 10.9665 38.6128 10.0089C38.6128 9.25738 38.736 8.57251 38.982 7.95433C39.228 7.32406 39.5728 6.78465 40.0159 6.33615C40.4715 5.8877 41.0004 5.54224 41.6037 5.29979C42.2189 5.04524 42.89 4.91797 43.6161 4.91797C44.3052 4.91797 44.9329 5.0392 45.4992 5.2816C46.0655 5.52406 46.5576 5.86342 46.9762 6.29979C47.3948 6.73615 47.7147 7.25133 47.9362 7.84524C48.1578 8.43919 48.2626 9.0877 48.2501 9.7907L48.2316 10.5907H40.4406L39.9975 8.93615H45.8131L45.4992 9.26342V8.89979C45.4748 8.59679 45.376 8.33615 45.2038 8.11797C45.0437 7.8877 44.8286 7.70588 44.5576 7.57251C44.2992 7.4392 44.0038 7.37251 43.6715 7.37251C43.179 7.37251 42.7608 7.46951 42.416 7.66342C42.0837 7.84524 41.8312 8.11192 41.6591 8.46342C41.4869 8.81497 41.4006 9.25133 41.4006 9.77251C41.4006 10.2937 41.5114 10.7543 41.7329 11.1543C41.9669 11.5543 42.2992 11.8634 42.7299 12.0816C43.173 12.2998 43.6959 12.4089 44.2992 12.4089C44.7053 12.4089 45.0746 12.3483 45.4069 12.2271C45.7392 12.1059 46.096 11.8998 46.4777 11.6089L47.8624 13.5361C47.4807 13.8513 47.0745 14.118 46.6439 14.3361C46.2132 14.5422 45.7702 14.6937 45.3146 14.7907C44.8715 14.8998 44.4224 14.9543 43.9669 14.9543Z" fill="white"></path> <path d="M50.5748 14.7727V2.68176H53.5472V14.7727H50.5748ZM48.8394 7.68176V5.11813H55.4304V7.68176H48.8394Z" fill="white"></path> <path d="M61.1638 18.9547C60.3759 18.9547 59.5821 18.8396 58.7822 18.6092C57.9943 18.3911 57.3541 18.1002 56.8621 17.7365L57.896 15.6638C58.2897 15.9305 58.7328 16.1365 59.2253 16.282C59.7298 16.4396 60.2527 16.5183 60.7946 16.5183C61.4223 16.5183 61.9328 16.4274 62.3269 16.2456C62.7207 16.0638 63.01 15.7911 63.1947 15.4274C63.3913 15.0638 63.4901 14.6092 63.4901 14.0638V12.4638L64.0439 12.5729C63.9701 12.9487 63.7605 13.3002 63.4162 13.6274C63.0839 13.9547 62.6713 14.2153 62.1792 14.4092C61.6868 14.6032 61.1698 14.7002 60.6284 14.7002C59.7422 14.7002 58.9483 14.5002 58.2468 14.1002C57.5452 13.6881 56.9913 13.1244 56.5852 12.4092C56.191 11.682 55.9944 10.8456 55.9944 9.90015C55.9944 8.93047 56.191 8.06988 56.5852 7.31833C56.9913 6.56683 57.5388 5.97897 58.2283 5.5547C58.9174 5.13047 59.6928 4.91833 60.5546 4.91833C60.9114 4.91833 61.2561 4.96079 61.5884 5.04561C61.9328 5.11833 62.2466 5.22743 62.53 5.37288C62.8254 5.51833 63.0839 5.68197 63.3054 5.86379C63.539 6.04561 63.7301 6.24561 63.8778 6.46379C64.0255 6.68197 64.1178 6.90015 64.1547 7.11834L63.5455 7.30015L63.6562 5.11833H66.481V13.9729C66.481 14.7608 66.3577 15.4638 66.1117 16.082C65.8777 16.7002 65.5269 17.2214 65.0594 17.6456C64.6038 18.0699 64.0499 18.3911 63.3978 18.6092C62.7451 18.8396 62.0006 18.9547 61.1638 18.9547ZM61.2377 12.4274C61.7177 12.4274 62.1299 12.3244 62.4746 12.1183C62.8314 11.9123 63.1024 11.6214 63.287 11.2456C63.4836 10.8699 63.5824 10.4335 63.5824 9.93652C63.5824 9.41534 63.4836 8.96684 63.287 8.59106C63.1024 8.21534 62.8314 7.92443 62.4746 7.71833C62.1299 7.50015 61.7177 7.39106 61.2377 7.39106C60.7821 7.39106 60.3819 7.50015 60.0376 7.71833C59.6928 7.92443 59.4219 8.21534 59.2253 8.59106C59.0407 8.96684 58.9483 9.40924 58.9483 9.91834C58.9483 10.4274 59.0407 10.8699 59.2253 11.2456C59.4219 11.6214 59.6928 11.9123 60.0376 12.1183C60.3819 12.3244 60.7821 12.4274 61.2377 12.4274Z" fill="white"></path> <path d="M73.3475 14.9547C72.2642 14.9547 71.3166 14.7426 70.5043 14.3183C69.7039 13.8941 69.0827 13.3123 68.6396 12.5729C68.2085 11.8214 67.9934 10.9668 67.9934 10.0092C67.9934 9.25774 68.1162 8.57288 68.3627 7.9547C68.6087 7.32443 68.9535 6.78502 69.3965 6.33652C69.8516 5.88806 70.381 5.54261 70.9843 5.30015C71.5996 5.04561 72.2702 4.91833 72.9967 4.91833C73.6858 4.91833 74.3135 5.03956 74.8798 5.28197C75.4457 5.52443 75.9382 5.86379 76.3568 6.30015C76.775 6.73652 77.0953 7.2517 77.3169 7.84561C77.5384 8.43956 77.6427 9.08806 77.6307 9.79106L77.6123 10.5911H69.8212L69.3781 8.93652H75.1937L74.8798 9.26379V8.90015C74.8549 8.59715 74.7566 8.33652 74.5844 8.11834C74.4243 7.88806 74.2087 7.70624 73.9383 7.57288C73.6798 7.43956 73.3844 7.37288 73.0521 7.37288C72.5596 7.37288 72.141 7.46988 71.7966 7.66379C71.4643 7.84561 71.2118 8.11229 71.0397 8.46379C70.8671 8.81533 70.7812 9.2517 70.7812 9.77288C70.7812 10.2941 70.892 10.7547 71.1135 11.1547C71.3471 11.5547 71.6794 11.8638 72.1105 12.082C72.5536 12.3002 73.0765 12.4092 73.6798 12.4092C74.086 12.4092 74.4552 12.3487 74.7875 12.2274C75.1198 12.1062 75.4766 11.9002 75.8583 11.6092L77.243 13.5365C76.8613 13.8517 76.4551 14.1183 76.0245 14.3365C75.5934 14.5426 75.1503 14.6941 74.6952 14.7911C74.2521 14.9002 73.8026 14.9547 73.3475 14.9547Z" fill="white"></path> <path d="M79.124 14.7726V5.1181H81.9487L82.0411 6.86355L81.6349 6.89992C81.7701 6.58478 81.9548 6.30601 82.1888 6.06355C82.4228 5.82114 82.6812 5.62114 82.9642 5.46355C83.2596 5.29387 83.5674 5.1666 83.8873 5.08173C84.2071 4.98478 84.5275 4.93628 84.8473 4.93628C85.3398 4.93628 85.7764 5.00901 86.1581 5.15446C86.5519 5.29992 86.8906 5.53628 87.1736 5.86355C87.469 6.19083 87.703 6.62719 87.8751 7.17264L87.432 7.09991L87.5613 6.84537C87.7334 6.55446 87.943 6.29387 88.189 6.06355C88.4475 5.82114 88.7304 5.6151 89.0383 5.44537C89.3461 5.27569 89.66 5.14842 89.9798 5.06355C90.3122 4.97873 90.632 4.93628 90.9399 4.93628C91.7153 4.93628 92.3615 5.08782 92.8784 5.39082C93.3954 5.69387 93.7831 6.14237 94.0415 6.73628C94.3 7.3181 94.4292 8.03933 94.4292 8.89992V14.7726H91.4568V9.1181C91.4568 8.54842 91.3336 8.12419 91.0876 7.84537C90.8536 7.55446 90.4968 7.40901 90.0168 7.40901C89.7583 7.40901 89.5183 7.45146 89.2967 7.53628C89.0876 7.60901 88.903 7.72419 88.7429 7.88173C88.5952 8.02719 88.4784 8.19691 88.3921 8.39082C88.3058 8.58478 88.2628 8.80296 88.2628 9.04537V14.7726H85.2904V9.09992C85.2904 8.55446 85.1612 8.13628 84.9027 7.84537C84.6567 7.55446 84.3059 7.40901 83.8504 7.40901C83.6044 7.40901 83.3703 7.45146 83.1488 7.53628C82.9397 7.60901 82.7551 7.72419 82.5949 7.88173C82.4472 8.02719 82.3305 8.19691 82.2441 8.39082C82.1578 8.58478 82.1149 8.80296 82.1149 9.04537V14.7726H79.124Z" fill="white"></path> <path d="M99.8377 14.9543C98.9021 14.9543 98.0653 14.8089 97.3268 14.518C96.5883 14.215 95.9975 13.8028 95.5544 13.2816L97.3637 11.7543C97.745 12.1301 98.1761 12.4089 98.6561 12.5907C99.1361 12.7604 99.5912 12.8452 100.022 12.8452C100.182 12.8452 100.324 12.8271 100.447 12.7907C100.57 12.7543 100.674 12.7059 100.761 12.6452C100.859 12.5725 100.933 12.4937 100.982 12.4089C101.031 12.3119 101.056 12.2028 101.056 12.0816C101.056 11.8392 100.951 11.6574 100.742 11.5362C100.644 11.4756 100.465 11.4028 100.207 11.318C99.9485 11.221 99.6161 11.1241 99.21 11.0271C98.6312 10.8816 98.1267 10.7059 97.6961 10.4998C97.2774 10.2937 96.9326 10.0574 96.6622 9.7907C96.4157 9.54829 96.2251 9.26951 96.0898 8.95433C95.9666 8.6392 95.9052 8.2877 95.9052 7.89979C95.9052 7.30588 96.0834 6.78465 96.4406 6.33615C96.8099 5.8877 97.2899 5.54224 97.8807 5.29979C98.4715 5.04524 99.1112 4.91797 99.8008 4.91797C100.342 4.91797 100.853 4.97861 101.333 5.09979C101.825 5.22101 102.281 5.3907 102.699 5.60888C103.13 5.82706 103.512 6.0877 103.844 6.3907L102.275 8.11797C102.065 7.91192 101.819 7.7301 101.536 7.57251C101.253 7.40283 100.97 7.26951 100.687 7.17251C100.404 7.06342 100.139 7.00888 99.8931 7.00888C99.7085 7.00888 99.5423 7.02706 99.3946 7.06342C99.2589 7.0877 99.1421 7.13615 99.0438 7.20888C98.9575 7.26951 98.8897 7.34829 98.8407 7.44524C98.7913 7.53011 98.7669 7.62706 98.7669 7.73615C98.7669 7.86951 98.7973 7.9907 98.8592 8.09979C98.933 8.19679 99.0313 8.28769 99.1546 8.37251C99.2654 8.43315 99.456 8.51192 99.7269 8.60888C100.01 8.70588 100.379 8.81497 100.835 8.93615C101.413 9.09374 101.905 9.27556 102.312 9.48161C102.73 9.67556 103.062 9.90588 103.309 10.1725C103.518 10.3786 103.665 10.621 103.752 10.8998C103.85 11.1665 103.899 11.4574 103.899 11.7725C103.899 12.3907 103.721 12.9422 103.364 13.4271C103.019 13.8998 102.539 14.2756 101.924 14.5543C101.321 14.821 100.625 14.9543 99.8377 14.9543Z" fill="white"></path> </svg> 