<svg width="36" height="36" viewBox="0 0 36 36" fill="none" xmlns="http://www.w3.org/2000/svg">
<g clip-path="url(#clip0_55_321)">
<path d="M18.04 7.5929L31.3569 30.1165H4.72304L18.04 7.5929Z" fill="#68FF9B" fill-opacity="0.8"/>
<path fill-rule="evenodd" clip-rule="evenodd" d="M23.9058 11.8202C24.1645 11.8937 24.3146 11.7768 24.4502 11.6711C24.5644 11.5821 24.6684 11.5011 24.8182 11.5485C25.262 11.6881 25.4294 11.3146 25.4294 11.3146C25.4294 11.3146 24.9799 11.4208 24.8352 11.2136C24.7712 11.1218 24.6401 11.1344 24.4858 11.1493C24.2915 11.1681 24.0604 11.1904 23.88 11.0124C23.7161 10.8503 23.4757 10.8416 23.2782 10.8722L23.2752 10.8493C23.2732 10.8335 23.2711 10.8178 23.2686 10.802C23.4071 10.7014 23.6043 10.6039 23.849 10.6069C24.1178 10.6101 24.233 10.4578 24.3371 10.3201C24.4246 10.2042 24.5044 10.0988 24.6612 10.105C25.1256 10.1237 25.192 9.71857 25.192 9.71857C25.192 9.71857 24.7849 9.93923 24.5921 9.77705C24.5069 9.70517 24.3835 9.75185 24.2382 9.8068C24.0553 9.87597 23.8377 9.95825 23.6181 9.83371C23.4187 9.7203 23.1847 9.77451 23.0022 9.85587C22.996 9.8412 22.9894 9.82673 22.9827 9.81225L22.9733 9.7914C23.0815 9.65755 23.2472 9.51164 23.4846 9.45024C23.745 9.38264 23.8174 9.20526 23.8828 9.04496C23.9378 8.91008 23.9879 8.78728 24.141 8.75215C24.5943 8.64799 24.5551 8.23946 24.5551 8.23946C24.5551 8.23946 24.2182 8.55946 23.9909 8.4533C23.8903 8.40636 23.7831 8.4838 23.6568 8.57497C23.4977 8.68981 23.3084 8.82644 23.0643 8.76368C22.8422 8.70656 22.6292 8.82152 22.4733 8.94828C22.4594 8.92976 22.4449 8.91105 22.4305 8.8928C22.5009 8.73499 22.624 8.5503 22.838 8.42835C23.0723 8.29471 23.0969 8.10436 23.1192 7.93232C23.138 7.78758 23.155 7.6558 23.2939 7.58169C23.7054 7.36194 23.5633 6.97783 23.5633 6.97783C23.5633 6.97783 23.3197 7.37538 23.0728 7.33261C22.9637 7.31373 22.8798 7.41668 22.7811 7.53788C22.6568 7.69062 22.5088 7.87232 22.257 7.8757C22.028 7.87879 21.8518 8.04542 21.7337 8.20896C21.7211 8.19931 21.7083 8.19 21.6956 8.18068L21.6776 8.16755C21.7054 7.99666 21.7772 7.78562 21.953 7.61146C22.1453 7.42084 22.1205 7.2305 22.0981 7.05844C22.0792 6.91372 22.0621 6.78193 22.1772 6.67381C22.5189 6.35346 22.2834 6.01965 22.2834 6.01965C22.2834 6.01965 22.1494 6.46767 21.9 6.4911C21.7898 6.50151 21.7351 6.62301 21.6706 6.76603C21.5895 6.9462 21.4929 7.16053 21.2507 7.22997C21.03 7.29308 20.9022 7.50074 20.8299 7.68961C20.8086 7.6809 20.7872 7.67227 20.7655 7.66383C20.7487 7.49157 20.7641 7.26902 20.8895 7.05443C21.0265 6.81998 20.9541 6.64263 20.8886 6.48232C20.8335 6.34741 20.7833 6.22457 20.867 6.08992C21.115 5.69083 20.8026 5.43022 20.8026 5.43022C20.8026 5.43022 20.7872 5.89804 20.5526 5.98631C20.4487 6.02537 20.4268 6.15711 20.4011 6.31217C20.3686 6.50749 20.3299 6.73981 20.1136 6.87056C20.0086 6.93412 19.9396 7.03056 19.8945 7.13742C19.8785 7.02237 19.8365 6.91096 19.751 6.82179C19.5754 6.63886 19.5973 6.40433 19.6158 6.20711C19.6305 6.05053 19.643 5.91748 19.5526 5.85246C19.3482 5.70572 19.4531 5.24988 19.4531 5.24988C19.4531 5.24988 19.0847 5.41941 19.2226 5.87008C19.2691 6.02202 19.1893 6.12742 19.1018 6.2432C18.9976 6.38087 18.8824 6.53321 18.9551 6.79592C19.0217 7.03672 18.9793 7.25621 18.9188 7.41837C18.9057 7.41977 18.8928 7.42152 18.8799 7.42326C18.8702 7.42459 18.8604 7.42592 18.8505 7.42709C18.8291 7.22505 18.7588 6.98986 18.5609 6.87047C18.3447 6.7398 18.3062 6.50748 18.2738 6.31215C18.248 6.15701 18.2261 6.02521 18.1222 5.98622C17.8873 5.89822 17.8723 5.43022 17.8723 5.43022C17.8723 5.43022 17.5598 5.69083 17.8078 6.08982C17.8915 6.22441 17.8413 6.34718 17.7862 6.48204C17.7207 6.64235 17.6482 6.81974 17.7853 7.05434C17.9113 7.26964 17.9263 7.49348 17.9091 7.66592C17.8877 7.67409 17.8665 7.68263 17.8454 7.69116C17.773 7.50174 17.6453 7.29317 17.424 7.22978C17.1818 7.16048 17.0853 6.94624 17.0041 6.76607C16.9397 6.62301 16.8849 6.50144 16.7746 6.491C16.5254 6.46748 16.3913 6.01964 16.3913 6.01964C16.3913 6.01964 16.1559 6.35327 16.4972 6.67352C16.6123 6.7815 16.5952 6.91326 16.5765 7.05799C16.5541 7.23007 16.5294 7.42049 16.7217 7.61108C16.8985 7.78642 16.9702 7.99891 16.9974 8.17042L16.9947 8.17241C16.9772 8.18527 16.9598 8.19807 16.9425 8.21119C16.8244 8.04693 16.6475 7.87857 16.4171 7.8755C16.1655 7.87216 16.0176 7.69047 15.8933 7.53771C15.7946 7.41643 15.7107 7.31338 15.6015 7.33231C15.3545 7.37526 15.1111 6.97753 15.1111 6.97753C15.1111 6.97753 14.9688 7.36181 15.3802 7.58155C15.5191 7.65566 15.5362 7.78747 15.5549 7.93223C15.5772 8.10428 15.6019 8.29463 15.8361 8.42822C16.0518 8.55126 16.1754 8.73804 16.2453 8.8965C16.2332 8.91167 16.2214 8.92718 16.2096 8.94261L16.2096 8.94265L16.2035 8.95062C16.0473 8.82277 15.8332 8.70617 15.6095 8.76357C15.3657 8.82638 15.1765 8.6898 15.0175 8.57496C14.8912 8.48375 14.7839 8.40625 14.6832 8.45319C14.4556 8.55879 14.1187 8.23898 14.1187 8.23898C14.1187 8.23898 14.0793 8.6475 14.5328 8.75176C14.6859 8.78687 14.736 8.9097 14.791 9.04461C14.8564 9.20492 14.9288 9.38227 15.1891 9.44977C15.4287 9.51188 15.5956 9.65989 15.7035 9.79446L15.6921 9.81997C15.6865 9.83227 15.6809 9.84457 15.6757 9.8572C15.4925 9.77493 15.2564 9.71909 15.0557 9.83314C14.836 9.95797 14.6184 9.87567 14.4355 9.80648C14.2903 9.75155 14.167 9.70489 14.0817 9.77666C13.8891 9.93902 13.4821 9.71836 13.4821 9.71836C13.4821 9.71836 13.5484 10.1232 14.0128 10.1048C14.1696 10.0986 14.2494 10.2041 14.3369 10.3199C14.441 10.4576 14.5561 10.6099 14.8249 10.6067C15.0721 10.6038 15.2709 10.7029 15.4095 10.8047C15.4076 10.8181 15.4058 10.8316 15.4041 10.8452L15.4041 10.8452L15.4019 10.8617L15.4004 10.8729C15.2022 10.8413 14.9593 10.8489 14.7939 11.012C14.6136 11.1903 14.3825 11.168 14.1881 11.1492C14.0339 11.1343 13.9027 11.1217 13.8387 11.2135C13.6941 11.4207 13.2447 11.3144 13.2447 11.3144C13.2447 11.3144 13.4118 11.6882 13.8559 11.5483C14.0056 11.5011 14.1095 11.582 14.2237 11.6709C14.3593 11.7766 14.5094 11.8935 14.7682 11.8198C15.0064 11.7519 15.2239 11.7955 15.3838 11.8573C15.3852 11.8701 15.3869 11.8828 15.3885 11.8954L15.3885 11.8955L15.3885 11.8955C15.3899 11.9055 15.3912 11.9155 15.3923 11.9255C15.1929 11.947 14.9599 12.0182 14.8419 12.2193C14.7132 12.4388 14.4841 12.4781 14.2916 12.511H14.2916C14.1387 12.5372 14.0088 12.5595 13.9703 12.6649C13.8833 12.903 13.4223 12.9183 13.4223 12.9183C13.4223 12.9183 13.6791 13.2354 14.0724 12.984C14.205 12.899 14.326 12.9499 14.4588 13.0058C14.6168 13.0723 14.7916 13.1458 15.0229 13.0067C15.2357 12.8785 15.4566 12.8635 15.627 12.8813C15.635 12.9028 15.6432 12.9239 15.652 12.9453C15.4648 13.0185 15.2585 13.1481 15.1958 13.3731C15.1275 13.6191 14.9163 13.717 14.7387 13.7994C14.5977 13.8647 14.478 13.9202 14.4678 14.0321C14.4446 14.2852 14.0032 14.4211 14.0032 14.4211C14.0032 14.4211 14.3322 14.6598 14.6479 14.3139C14.7543 14.1968 14.8841 14.2142 15.0268 14.2333C15.1963 14.256 15.3838 14.2811 15.5716 14.086C15.7445 13.9063 15.9544 13.8337 16.1236 13.8061L16.1346 13.8215C16.1442 13.8349 16.1537 13.8484 16.1635 13.8616C16.0015 13.9814 15.8352 14.161 15.8322 14.395C15.8289 14.6505 15.6498 14.8006 15.4993 14.9267C15.3799 15.0268 15.2784 15.1119 15.2971 15.2226C15.3391 15.4732 14.9474 15.7203 14.9474 15.7203C14.9474 15.7203 15.326 15.8645 15.5429 15.4472C15.6159 15.3063 15.7457 15.289 15.8883 15.27C16.0578 15.2473 16.2454 15.2223 16.3771 14.9846C16.4981 14.7655 16.682 14.6404 16.8383 14.5693C16.8515 14.5802 16.8651 14.5909 16.8786 14.6015L16.8918 14.6119C16.7658 14.7704 16.6509 14.9876 16.7075 15.2144C16.7695 15.4621 16.6349 15.654 16.5217 15.8154C16.4318 15.9435 16.3555 16.0524 16.4019 16.1545C16.5064 16.3853 16.191 16.727 16.191 16.727C16.191 16.727 16.5936 16.7671 16.6964 16.307C16.7309 16.1518 16.8518 16.1009 16.9848 16.0451C17.1427 15.9787 17.3176 15.9052 17.3842 15.6411C17.445 15.3983 17.5904 15.2292 17.723 15.1195L17.751 15.1324C17.7623 15.1377 17.7737 15.143 17.7851 15.1481C17.7044 15.3339 17.6496 15.5729 17.7619 15.7762C17.8849 15.9989 17.8039 16.2197 17.7357 16.4054C17.6816 16.5528 17.6355 16.6782 17.7063 16.7648C17.8661 16.96 17.6487 17.3731 17.6487 17.3731C17.6487 17.3731 18.0478 17.3059 18.0297 16.8345C18.0236 16.6754 18.1275 16.5944 18.2416 16.5055C18.3773 16.3999 18.5273 16.2831 18.5241 16.0105C18.5212 15.7604 18.6182 15.5593 18.7182 15.4185C18.7845 15.429 18.8511 15.4379 18.9185 15.4453C18.9791 15.6072 19.0214 15.8269 18.9549 16.0676C18.8822 16.3302 18.9974 16.4825 19.1015 16.6202C19.1891 16.736 19.2688 16.8415 19.2223 16.9934C19.0844 17.4441 19.4528 17.6137 19.4528 17.6137C19.4528 17.6137 19.3481 17.1579 19.5523 17.0109C19.6427 16.9459 19.6302 16.8129 19.6155 16.6564C19.597 16.4591 19.575 16.2245 19.7508 16.0415C19.9109 15.8745 19.9191 15.6291 19.8884 15.4287L19.9004 15.4271L19.9093 15.4259C19.9251 15.4238 19.941 15.4217 19.9567 15.4193C20.0562 15.5599 20.1528 15.7605 20.15 16.0101C20.1468 16.2829 20.297 16.3998 20.4327 16.5054C20.5469 16.5943 20.6508 16.6752 20.6445 16.8342C20.6265 17.3057 21.0256 17.3726 21.0256 17.3726C21.0256 17.3726 20.8081 16.9598 20.9681 16.7643C21.0389 16.6778 20.9929 16.5526 20.9388 16.4051C20.8706 16.2195 20.7894 15.9987 20.9123 15.7757C21.0241 15.5732 20.97 15.3351 20.8898 15.1495C20.9031 15.1439 20.9162 15.1377 20.9292 15.1315L20.9439 15.1245L20.9526 15.1205C21.0848 15.2303 21.2292 15.3987 21.2899 15.6404C21.3565 15.9046 21.5313 15.9781 21.6893 16.0445C21.8223 16.1003 21.9433 16.1512 21.978 16.3064C22.0805 16.7667 22.4832 16.7266 22.4832 16.7266C22.4832 16.7266 22.1679 16.3849 22.2725 16.1542C22.3188 16.052 22.2424 15.9431 22.1525 15.8149L22.1525 15.8149C22.0393 15.6535 21.9047 15.4615 21.9666 15.2139C22.0229 14.9884 21.9096 14.772 21.7844 14.614L21.7938 14.6065L21.8044 14.598L21.8241 14.5823L21.8388 14.5705C21.9943 14.6416 22.1767 14.7666 22.297 14.9842C22.4287 15.2219 22.6163 15.2469 22.7859 15.2696C22.9285 15.2886 23.0584 15.306 23.1314 15.4468C23.3479 15.8644 23.7266 15.72 23.7266 15.72C23.7266 15.72 23.3349 15.4729 23.377 15.2224C23.3956 15.1114 23.294 15.0263 23.1745 14.9261C23.024 14.7999 22.8451 14.65 22.8417 14.3946C22.8387 14.1621 22.6745 13.9835 22.5134 13.8635C22.524 13.8491 22.5345 13.8345 22.5448 13.8201L22.5545 13.8066C22.7228 13.8346 22.9307 13.9076 23.1024 14.0859C23.29 14.281 23.4776 14.2559 23.6471 14.2332C23.7898 14.2141 23.9197 14.1967 24.0261 14.3137C24.3419 14.6599 24.6707 14.4212 24.6707 14.4212C24.6707 14.4212 24.2292 14.285 24.2061 14.0322C24.1959 13.9203 24.0761 13.8648 23.9351 13.7994C23.7575 13.717 23.5463 13.619 23.4778 13.3732C23.4157 13.1498 23.2119 13.0203 23.026 12.9466C23.0346 12.9249 23.0432 12.9028 23.0517 12.8808C23.221 12.8637 23.4401 12.8796 23.6508 13.0066C23.8819 13.1457 24.0567 13.0722 24.2147 13.0058C24.3477 12.9499 24.4688 12.8989 24.6016 12.984C24.9945 13.2355 25.2513 12.9186 25.2513 12.9186C25.2513 12.9186 24.7903 12.903 24.7034 12.6649C24.665 12.5595 24.5351 12.5373 24.3822 12.5111C24.1897 12.4782 23.9608 12.439 23.8321 12.2196C23.7149 12.02 23.4847 11.9482 23.2861 11.9261L23.2893 11.9012C23.2914 11.8861 23.2934 11.871 23.2948 11.8558C23.4545 11.795 23.6699 11.7529 23.9058 11.8202Z" fill="#FFC736"/>
<path d="M13.6428 24.952C15.8474 22.8796 15.9328 19.4679 13.8334 17.3324C11.7341 15.1969 8.24464 15.1457 6.04006 17.2181C3.83548 19.2905 3.75014 22.7022 5.84945 24.8377C7.94877 26.9732 11.4383 27.0244 13.6428 24.952ZM7.43585 18.638C7.78091 18.3136 8.32545 18.3221 8.65356 18.6558C8.98168 18.9896 8.96885 19.522 8.62378 19.8464C8.27971 20.1698 7.73418 20.1623 7.40606 19.8286C7.07795 19.4948 7.09178 18.9614 7.43585 18.638ZM9.7167 21.2023C10.6815 20.2954 10.7184 18.8029 9.80009 17.8688C8.89514 16.9482 7.40239 16.9178 6.43674 17.7838C6.46397 17.7563 6.48708 17.7281 6.51526 17.7016C8.44211 15.8902 11.5006 15.9361 13.3345 17.8016C15.1684 19.6671 15.0945 22.6574 13.1677 24.4687C13.0839 24.5475 12.9936 24.6198 12.9051 24.6919C12.8302 24.753 12.7575 24.8162 12.6776 24.8667C12.6679 24.874 12.6587 24.8798 12.6498 24.8863C11.6999 25.4705 10.4347 25.3512 9.6334 24.536C8.71513 23.6019 8.75298 22.1085 9.71679 21.2025L9.7167 21.2023ZM12.247 23.5322C12.5921 23.2078 12.6049 22.6754 12.2768 22.3416C11.9487 22.0078 11.4042 21.9994 11.0591 22.3237C10.715 22.6472 10.7012 23.1805 11.0293 23.5143C11.3574 23.8481 11.903 23.8556 12.247 23.5322Z" fill="#469BFF"/>
<path d="M31.3742 24.1506C31.3583 23.3043 31.1016 22.6273 30.5884 22.0958C29.9795 21.4543 29.3105 21.1733 28.5459 21.2359C27.7814 21.2985 27.2274 21.5591 26.8291 22.0348C26.7052 22.1821 26.5955 22.3413 26.4892 22.4952C26.4149 22.6052 26.3353 22.7186 26.2538 22.8337L26.2539 22.8338C26.1036 23.0401 25.9373 23.2352 25.7565 23.4178C25.4822 23.6801 25.2415 23.6954 25.0875 23.6615C24.8626 23.6055 24.6425 23.533 24.4291 23.4448L24.3212 23.4042C24.4132 23.3483 24.4983 23.2992 24.5743 23.245C25.376 22.7033 25.7159 22.0602 25.6115 21.3036C25.5159 20.5944 25.1176 20.1188 24.4628 19.9411C24.1405 19.8534 23.8114 19.79 23.4787 19.7515C22.5938 19.6449 21.8097 19.9089 21.1566 20.1814C21.0273 20.2356 20.8982 20.2981 20.7725 20.3608L20.5955 20.4455C20.5672 20.4587 20.5462 20.4827 20.5371 20.5115C20.5257 20.5387 20.5257 20.569 20.5371 20.5962L21.2981 21.9503C21.312 21.9759 21.3362 21.9953 21.3652 22.0039C21.3941 22.0125 21.4255 22.0096 21.4521 21.996L21.5212 21.9621C21.5521 21.9448 21.584 21.9289 21.6167 21.9148L21.9354 21.7641C22.1672 21.6557 22.4061 21.5424 22.6432 21.4493C23.1945 21.2163 23.8297 21.2528 24.3477 21.5475C24.5025 21.6192 24.5809 21.787 24.5335 21.9452C24.4875 22.2025 24.3212 22.3701 23.9813 22.5055C23.5689 22.6604 23.1157 22.6852 22.6876 22.5766C22.5742 22.5528 22.4593 22.5258 22.3336 22.497L22.146 22.4529C22.1063 22.4427 22.064 22.4545 22.0362 22.4834C22.0082 22.512 21.9974 22.5522 22.0079 22.5901L22.5389 24.3352C22.5474 24.3647 22.5686 24.3894 22.5973 24.4029C22.6271 24.4156 22.6613 24.4156 22.691 24.4029C23.0639 24.2747 23.465 24.2404 23.8556 24.3031C24.0892 24.3228 24.3078 24.4209 24.473 24.5801C24.6381 24.7392 24.7391 24.9491 24.7578 25.1726C24.7767 25.396 24.7123 25.6186 24.576 25.8011C24.3447 26.0884 24.032 26.3064 23.6751 26.4291C23.1447 26.5953 22.5761 26.6153 22.0345 26.4866C21.5662 26.4079 21.1341 26.1948 20.7956 25.8755C20.3071 25.3984 19.9526 24.8109 19.7655 24.1677C19.6964 23.9646 19.6451 23.7581 19.5884 23.5414C19.5636 23.4449 19.5389 23.3451 19.5124 23.2469C19.4998 23.2012 19.4579 23.1682 19.4085 23.1651C19.3593 23.162 19.3134 23.1896 19.2947 23.2332C19.2808 23.2566 19.2729 23.2827 19.2716 23.3094C19.2716 23.4229 19.2574 23.5396 19.2487 23.6479C19.2196 23.9126 19.2137 24.1794 19.2309 24.4452C19.3213 25.4088 19.7375 26.3181 20.4168 27.035C20.7731 27.4235 21.2181 27.7281 21.7177 27.9254C21.7294 27.9374 21.744 27.9466 21.7601 27.9524C22.1998 28.115 22.6674 28.1976 23.1388 28.1961H23.1636C23.6278 28.1963 24.0883 28.119 24.5246 27.9676C25.075 27.7764 25.4325 27.5038 25.6484 27.1111C25.8472 26.7312 25.9636 26.3165 25.9902 25.8924C26.0102 25.4372 25.9199 24.9835 25.7265 24.5671C25.6963 24.4943 25.6663 24.4232 25.6326 24.347C25.7299 24.347 25.8291 24.3606 25.9246 24.369C26.1599 24.3938 26.3973 24.3939 26.6326 24.3691C27.1938 24.2929 27.6468 23.99 28.0486 23.4196L28.0485 23.4194C28.2615 23.1243 28.5085 22.8529 28.7848 22.6104C28.9523 22.4581 29.1732 22.3712 29.4043 22.3666C29.6029 22.3707 29.7951 22.4344 29.9539 22.5485C30.1127 22.6627 30.23 22.8218 30.2892 23.0031C30.3595 23.2052 30.4063 23.4141 30.429 23.6259C30.4868 24.0325 30.4119 24.4463 30.2149 24.8107C29.8892 25.3811 29.0928 25.7976 28.3229 25.801C28.1889 25.8005 28.0553 25.7858 27.9246 25.757C27.6809 25.7201 27.4552 25.6114 27.2792 25.4461C27.1032 25.2807 26.9854 25.0669 26.9423 24.8345C26.9317 24.7922 26.9246 24.7498 26.9157 24.7042L26.9051 24.6416C26.8957 24.5953 26.8566 24.5599 26.8078 24.5535H26.7512C26.6929 24.5466 26.6385 24.5822 26.6238 24.6365C26.6114 24.6856 26.5955 24.7364 26.5777 24.7888C26.5351 24.9053 26.5071 25.0264 26.4945 25.1494V25.4152C26.4782 25.4375 26.4702 25.4642 26.4716 25.4912C26.5039 25.9011 26.6296 26.2991 26.8397 26.6575C26.9983 26.9604 27.2581 27.2039 27.5777 27.3498C27.9304 27.5045 28.3137 27.5853 28.7016 27.5867H28.7353C29.212 27.5889 29.6788 27.4574 30.0782 27.2087C30.4776 26.9599 30.7922 26.6047 30.9831 26.187C31.2783 25.5468 31.4122 24.8494 31.3742 24.1506Z" fill="#FF8ABB"/>
<path d="M26.9795 20.5217C27.3477 20.6308 27.7305 20.6878 28.1158 20.691C28.7105 20.687 29.297 20.557 29.8326 20.3101H29.8539L29.9052 20.2864L29.9742 20.2407L30.0131 20.2204L30.0698 20.1933L30.0981 20.1781L30.1794 20.1358C30.2981 20.0715 30.4077 20.0004 30.5228 19.9243L30.6839 19.8193C30.7103 19.8019 30.7284 19.775 30.7335 19.7448C30.7388 19.7145 30.7298 19.6834 30.7087 19.6601L30.0148 18.8459C29.9618 18.7799 29.9069 18.7156 29.852 18.6512L29.8521 18.6513C29.8118 18.5941 29.7469 18.5569 29.6751 18.5498C29.6018 18.5482 29.5309 18.575 29.4787 18.6242C29.3597 18.7224 29.2343 18.8135 29.1035 18.8967C28.6158 19.2317 28.0208 19.3921 27.422 19.3503C26.3353 19.2471 25.6008 18.7664 25.1814 17.8828C25.16 17.8389 25.1112 17.8135 25.061 17.8202C25.0109 17.8265 24.9711 17.8638 24.9637 17.9116C24.8896 18.319 24.9516 18.7383 25.1406 19.11C25.4947 19.7972 26.1124 20.2712 26.9795 20.5217Z" fill="#FF8ABB"/>
<path d="M26.4009 18.0773L26.6292 18.2619C26.9035 18.487 27.1602 18.7003 27.4345 18.9119C27.4784 18.9415 27.5313 18.9563 27.5848 18.9541C27.6426 18.9564 27.6995 18.9396 27.746 18.9067C28.0345 18.6646 28.3211 18.4141 28.599 18.172L28.7336 18.0552C28.7558 18.0354 28.7722 18.0103 28.7814 17.9825V17.9673C28.8046 17.9231 28.7937 17.8695 28.7547 17.8369L27.6733 16.9313C27.6301 16.8939 27.5643 16.8939 27.5211 16.9313L26.4043 17.9114C26.3774 17.932 26.3619 17.9632 26.3619 17.9961C26.3619 18.029 26.3774 18.0601 26.4043 18.0806L26.4009 18.0773Z" fill="#FF8ABB"/>
<path d="M18.04 7.5929L31.3569 30.1165H4.72304L18.04 7.5929Z" fill="#68FF9B" fill-opacity="0.15"/>
<mask id="mask0_55_321" style="mask-type:alpha" maskUnits="userSpaceOnUse" x="4" y="7" width="28" height="24">
<path d="M18.04 7.5929L31.3569 30.1165H4.72304L18.04 7.5929Z" fill="#D9D9D9"/>
</mask>
<g mask="url(#mask0_55_321)">
<path d="M13.6428 24.952C15.8474 22.8796 15.9327 19.4679 13.8334 17.3324C11.7341 15.1969 8.24457 15.1457 6.04 17.2181C3.83542 19.2905 3.75008 22.7022 5.84939 24.8377C7.94871 26.9732 11.4382 27.0244 13.6428 24.952ZM7.43579 18.638C7.78085 18.3136 8.32539 18.3221 8.6535 18.6558C8.98162 18.9896 8.96878 19.522 8.62372 19.8464C8.27965 20.1698 7.73412 20.1623 7.406 19.8286C7.07789 19.4948 7.09172 18.9614 7.43579 18.638ZM9.71664 21.2023C10.6814 20.2954 10.7183 18.8029 9.80003 17.8688C8.89508 16.9482 7.40233 16.9178 6.43668 17.7838C6.46391 17.7563 6.48702 17.7281 6.5152 17.7016C8.44205 15.8902 11.5005 15.9361 13.3344 17.8016C15.1683 19.6671 15.0945 22.6574 13.1676 24.4687C13.0838 24.5475 12.9935 24.6198 12.905 24.6919C12.8302 24.753 12.7574 24.8162 12.6775 24.8667C12.6678 24.874 12.6587 24.8798 12.6497 24.8863C11.6998 25.4705 10.4347 25.3512 9.63334 24.536C8.71507 23.6019 8.75292 22.1085 9.71673 21.2025L9.71664 21.2023ZM12.247 23.5322C12.592 23.2078 12.6049 22.6754 12.2768 22.3416C11.9487 22.0078 11.4041 21.9994 11.0591 22.3237C10.715 22.6472 10.7012 23.1805 11.0293 23.5143C11.3574 23.8481 11.9029 23.8556 12.247 23.5322Z" fill="black" fill-opacity="0.87"/>
<path d="M31.3742 24.1506C31.3583 23.3043 31.1016 22.6273 30.5884 22.0958C29.9795 21.4543 29.3105 21.1733 28.5459 21.2359C27.7814 21.2985 27.2274 21.5591 26.8291 22.0348C26.7052 22.1821 26.5955 22.3413 26.4892 22.4952C26.4149 22.6052 26.3353 22.7186 26.2538 22.8337L26.2539 22.8338C26.1036 23.0401 25.9373 23.2352 25.7565 23.4178C25.4822 23.6801 25.2415 23.6954 25.0875 23.6615C24.8626 23.6055 24.6425 23.533 24.4291 23.4448L24.3212 23.4042C24.4132 23.3483 24.4983 23.2992 24.5743 23.245C25.376 22.7033 25.7159 22.0602 25.6115 21.3036C25.5159 20.5944 25.1176 20.1188 24.4628 19.9411C24.1405 19.8534 23.8114 19.79 23.4787 19.7515C22.5938 19.6449 21.8097 19.9089 21.1566 20.1814C21.0273 20.2356 20.8982 20.2981 20.7725 20.3608L20.5955 20.4455C20.5672 20.4587 20.5462 20.4827 20.5371 20.5115C20.5257 20.5387 20.5257 20.569 20.5371 20.5962L21.2981 21.9503C21.312 21.9759 21.3362 21.9953 21.3652 22.0039C21.3941 22.0125 21.4255 22.0096 21.4521 21.996L21.5212 21.9621C21.5521 21.9448 21.584 21.9289 21.6167 21.9148L21.9354 21.7641C22.1672 21.6557 22.4061 21.5424 22.6432 21.4493C23.1945 21.2163 23.8297 21.2528 24.3477 21.5475C24.5025 21.6192 24.5809 21.787 24.5335 21.9452C24.4875 22.2025 24.3212 22.3701 23.9813 22.5055C23.5689 22.6604 23.1157 22.6852 22.6876 22.5766C22.5742 22.5528 22.4593 22.5258 22.3336 22.497L22.146 22.4529C22.1063 22.4427 22.064 22.4545 22.0362 22.4834C22.0082 22.512 21.9974 22.5522 22.0079 22.5901L22.5389 24.3352C22.5474 24.3647 22.5686 24.3894 22.5973 24.4029C22.6271 24.4156 22.6613 24.4156 22.691 24.4029C23.0639 24.2747 23.465 24.2404 23.8556 24.3031C24.0892 24.3228 24.3078 24.4209 24.473 24.5801C24.6381 24.7392 24.7391 24.9491 24.7578 25.1726C24.7767 25.396 24.7123 25.6186 24.576 25.8011C24.3447 26.0884 24.032 26.3064 23.6751 26.4291C23.1447 26.5953 22.5761 26.6153 22.0345 26.4866C21.5662 26.4079 21.1341 26.1948 20.7956 25.8755C20.3071 25.3984 19.9526 24.8109 19.7655 24.1677C19.6964 23.9646 19.6451 23.7581 19.5884 23.5414C19.5636 23.4449 19.5389 23.3451 19.5124 23.2469C19.4998 23.2012 19.4579 23.1682 19.4085 23.1651C19.3593 23.162 19.3134 23.1896 19.2947 23.2332C19.2808 23.2566 19.2729 23.2827 19.2716 23.3094C19.2716 23.4229 19.2574 23.5396 19.2487 23.6479C19.2196 23.9126 19.2137 24.1794 19.2309 24.4452C19.3213 25.4088 19.7375 26.3181 20.4168 27.035C20.7731 27.4235 21.2181 27.7281 21.7177 27.9254C21.7294 27.9374 21.744 27.9466 21.7601 27.9524C22.1998 28.115 22.6674 28.1976 23.1388 28.1961H23.1636C23.6278 28.1963 24.0883 28.119 24.5246 27.9676C25.075 27.7764 25.4325 27.5038 25.6484 27.1111C25.8472 26.7312 25.9636 26.3165 25.9902 25.8924C26.0102 25.4372 25.9199 24.9835 25.7265 24.5671C25.6963 24.4943 25.6663 24.4232 25.6326 24.347C25.7299 24.347 25.8291 24.3606 25.9246 24.369C26.1599 24.3938 26.3973 24.3939 26.6326 24.3691C27.1938 24.2929 27.6468 23.99 28.0486 23.4196L28.0485 23.4194C28.2615 23.1243 28.5085 22.8529 28.7848 22.6104C28.9523 22.4581 29.1732 22.3712 29.4043 22.3666C29.6029 22.3707 29.7951 22.4344 29.9539 22.5485C30.1127 22.6627 30.23 22.8218 30.2892 23.0031C30.3595 23.2052 30.4063 23.4141 30.429 23.6259C30.4868 24.0325 30.4119 24.4463 30.2149 24.8107C29.8892 25.3811 29.0928 25.7976 28.3229 25.801C28.1889 25.8005 28.0553 25.7858 27.9246 25.757C27.6809 25.7201 27.4552 25.6114 27.2792 25.4461C27.1032 25.2807 26.9854 25.0669 26.9423 24.8345C26.9317 24.7922 26.9246 24.7498 26.9157 24.7042L26.9051 24.6416C26.8957 24.5953 26.8566 24.5599 26.8078 24.5535H26.7512C26.6929 24.5466 26.6385 24.5822 26.6238 24.6365C26.6114 24.6856 26.5955 24.7364 26.5777 24.7888C26.5351 24.9053 26.5071 25.0264 26.4945 25.1494V25.4152C26.4782 25.4375 26.4702 25.4642 26.4716 25.4912C26.5039 25.9011 26.6296 26.2991 26.8397 26.6575C26.9983 26.9604 27.2581 27.2039 27.5777 27.3498C27.9304 27.5045 28.3137 27.5853 28.7016 27.5867H28.7353C29.212 27.5889 29.6788 27.4574 30.0782 27.2087C30.4776 26.9599 30.7922 26.6047 30.9831 26.187C31.2783 25.5468 31.4122 24.8494 31.3742 24.1506Z" fill="black" fill-opacity="0.87"/>
<path d="M26.9795 20.5217C27.3477 20.6308 27.7305 20.6878 28.1158 20.691C28.7105 20.687 29.297 20.557 29.8326 20.3101H29.8539L29.9052 20.2864L29.9742 20.2407L30.0131 20.2204L30.0698 20.1933L30.0981 20.1781L30.1794 20.1358C30.2981 20.0715 30.4077 20.0004 30.5228 19.9243L30.6839 19.8193C30.7103 19.8019 30.7284 19.775 30.7335 19.7448C30.7388 19.7145 30.7298 19.6834 30.7087 19.6601L30.0148 18.8459C29.9618 18.7799 29.9069 18.7156 29.852 18.6512L29.8521 18.6513C29.8118 18.5941 29.7469 18.5569 29.6751 18.5498C29.6018 18.5482 29.5309 18.575 29.4787 18.6242C29.3597 18.7224 29.2343 18.8135 29.1035 18.8967C28.6158 19.2317 28.0208 19.3921 27.422 19.3503C26.3353 19.2471 25.6008 18.7664 25.1814 17.8828C25.16 17.8389 25.1112 17.8135 25.061 17.8202C25.0109 17.8265 24.9711 17.8638 24.9637 17.9116C24.8896 18.319 24.9516 18.7383 25.1406 19.11C25.4947 19.7972 26.1124 20.2712 26.9795 20.5217Z" fill="black" fill-opacity="0.87"/>
<path d="M26.4009 18.0773L26.6292 18.2619C26.9035 18.487 27.1602 18.7003 27.4345 18.9119C27.4784 18.9415 27.5313 18.9563 27.5848 18.9541C27.6426 18.9564 27.6995 18.9396 27.746 18.9067C28.0345 18.6646 28.3211 18.4141 28.599 18.172L28.7336 18.0552C28.7558 18.0354 28.7722 18.0103 28.7814 17.9825V17.9673C28.8046 17.9231 28.7937 17.8695 28.7547 17.8369L27.6733 16.9313C27.6301 16.8939 27.5643 16.8939 27.5211 16.9313L26.4043 17.9114C26.3774 17.932 26.3619 17.9632 26.3619 17.9961C26.3619 18.029 26.3774 18.0601 26.4043 18.0806L26.4009 18.0773Z" fill="black" fill-opacity="0.87"/>
<path d="M18.1866 10.6839C18.2312 10.6839 18.2653 10.6708 18.2907 10.6438C18.3271 10.6051 18.338 10.5465 18.3411 10.5114C18.2743 10.4942 18.1999 10.4832 18.1168 10.4832C18.087 10.4832 18.0561 10.4882 18.0257 10.491C18.0308 10.5342 18.0455 10.6021 18.0873 10.645C18.1129 10.6712 18.1455 10.6839 18.1866 10.6839L18.1866 10.6839Z" fill="black"/>
<path d="M19.5731 13.0894C19.5225 13.1242 19.4681 13.1614 19.3909 13.1614C19.3264 13.1614 19.2457 13.1352 19.138 13.0597C18.967 12.9394 18.5965 12.954 18.4092 12.9705C18.5484 13.0404 18.6902 13.1557 18.8127 13.2556C18.9258 13.3481 19.0427 13.4435 19.0914 13.4435C19.1488 13.4435 19.1671 13.4237 19.1952 13.3937C19.2283 13.3582 19.2695 13.3141 19.3715 13.3141C19.4682 13.3141 19.5003 13.355 19.5261 13.3879C19.5494 13.4177 19.5696 13.4435 19.6659 13.4435C19.746 13.4435 19.8491 13.3474 19.9584 13.2455C20.0449 13.1649 20.1384 13.0794 20.2403 13.0185C19.9676 13.0186 19.6702 13.0293 19.6165 13.0612C19.6015 13.0699 19.5873 13.0798 19.5731 13.0894L19.5731 13.0894Z" fill="black"/>
<path d="M18.1618 10.8329C18.2687 10.8329 18.3503 10.8035 18.404 10.7456C18.4628 10.6826 18.4754 10.6009 18.478 10.5603C18.4596 10.5522 18.4407 10.5442 18.4206 10.5368C18.4142 10.5846 18.397 10.6515 18.3499 10.7015C18.3088 10.7451 18.2537 10.7673 18.1865 10.7673C18.1233 10.7673 18.0703 10.7458 18.0289 10.7035C17.9692 10.6423 17.9501 10.5529 17.944 10.4981C17.8917 10.5068 17.8383 10.5207 17.7843 10.5371C17.8057 10.6214 17.8861 10.8329 18.1618 10.8329L18.1618 10.8329Z" fill="black"/>
<path d="M19.5273 13.0206C19.5428 13.0099 19.5584 12.9994 19.5746 12.9896C19.6388 12.9515 19.8843 12.9392 20.1091 12.9363C20.0015 12.8744 19.9353 12.7903 19.8809 12.7199C19.8253 12.6478 19.7915 12.607 19.7446 12.607C19.6682 12.607 19.6299 12.6409 19.5815 12.6835C19.5259 12.7327 19.4626 12.7886 19.3374 12.7886C19.273 12.7886 19.2425 12.7517 19.218 12.722C19.1869 12.6847 19.1547 12.646 19.0336 12.646C18.9505 12.646 18.8809 12.6976 18.7928 12.7631C18.743 12.8 18.6889 12.8402 18.6252 12.8763C18.8196 12.8749 19.0501 12.8965 19.1848 12.9914C19.3748 13.1245 19.4421 13.079 19.5273 13.0206H19.5273Z" fill="black"/>
<path d="M20.4922 10.6839C20.5334 10.6839 20.5658 10.671 20.5915 10.6447C20.6313 10.6041 20.6475 10.5373 20.6531 10.4908C20.6227 10.4881 20.5916 10.483 20.5617 10.483C20.4789 10.483 20.4042 10.494 20.3372 10.5112C20.3404 10.5466 20.3512 10.6049 20.388 10.6439C20.4137 10.671 20.4478 10.6839 20.4922 10.6839V10.6839Z" fill="black"/>
<path d="M20.7087 10.9161C20.5783 10.9161 20.4767 10.878 20.4068 10.8027C20.3453 10.7361 20.3229 10.6562 20.3148 10.5998C20.2308 10.6487 20.1736 10.7007 20.1462 10.7293C20.2122 10.8134 20.4053 10.9253 20.718 10.9253C20.9611 10.9253 21.228 10.8553 21.4936 10.722C21.3807 10.6536 21.2709 10.6027 21.1635 10.5635C21.1332 10.6711 21.0305 10.9161 20.7087 10.9161H20.7087Z" fill="black"/>
<path d="M19.3393 7.7612C17.3449 7.7612 15.7225 9.40766 15.7225 11.4315C15.7225 13.4555 17.3449 15.102 19.3393 15.102C21.3337 15.102 22.9561 13.4556 22.9561 11.4315C22.9561 9.40782 21.3337 7.7612 19.3393 7.7612ZM21.4054 10.3124C21.3862 10.3241 21.3609 10.3173 21.3494 10.2974C21.3396 10.2799 21.097 9.86885 20.4997 9.86885C19.9495 9.86885 19.6951 9.86885 19.6899 11.8024C19.7672 11.7778 19.8746 11.7702 19.896 11.7702C19.9709 11.7702 20.0319 11.7858 20.0771 11.8164C20.1177 11.8443 20.1662 11.8992 20.1662 12.0038C20.1662 12.0978 20.1432 12.1638 20.0963 12.2064C20.0197 12.2753 19.9002 12.2608 19.785 12.2469C19.7463 12.2422 19.7066 12.2376 19.6696 12.236C19.6329 12.2862 19.5246 12.4126 19.3712 12.4126C19.215 12.4126 19.0591 12.2784 19.0138 12.2359C18.9756 12.237 18.9339 12.2421 18.8935 12.2469C18.778 12.2611 18.6589 12.2757 18.5823 12.2064C18.5352 12.164 18.5124 12.0978 18.5124 12.0038C18.5124 11.8991 18.5609 11.8441 18.6015 11.8164C18.6468 11.7858 18.7076 11.7702 18.7826 11.7702C18.804 11.7702 18.9114 11.778 18.9888 11.8024C18.9837 9.86885 18.7293 9.86885 18.1789 9.86885C17.5798 9.86885 17.3317 10.2931 17.3292 10.2974C17.3176 10.3172 17.2922 10.3235 17.2732 10.3126C17.2537 10.3012 17.2469 10.2758 17.2582 10.2558C17.2691 10.2366 17.533 9.78567 18.1789 9.78567C18.8532 9.78567 19.0712 9.94712 19.0712 11.8657C19.0712 11.9 19.0244 11.9174 19.0016 11.8955C18.9623 11.8757 18.7603 11.8199 18.6559 11.8802C18.6145 11.9039 18.5944 11.9443 18.5944 12.0037C18.5944 12.0725 18.6083 12.1183 18.6369 12.1439C18.6859 12.1883 18.7866 12.1764 18.8839 12.1641C18.9324 12.1582 18.9826 12.152 19.0302 12.152C19.0411 12.152 19.0515 12.1565 19.0591 12.1643C19.0607 12.166 19.2239 12.3292 19.3714 12.3292C19.5128 12.3292 19.613 12.173 19.614 12.1713C19.6216 12.1595 19.6347 12.1521 19.6487 12.1521C19.6963 12.1521 19.7464 12.1584 19.7949 12.1642C19.8924 12.1762 19.9931 12.1883 20.0419 12.144C20.0706 12.1184 20.0844 12.0726 20.0844 12.0038C20.0844 11.9444 20.0643 11.9039 20.023 11.8803C19.9188 11.82 19.7167 11.8758 19.6774 11.8956C19.6549 11.9173 19.6079 11.8996 19.6079 11.8658C19.6079 9.94712 19.8256 9.78577 20.4999 9.78577C21.1459 9.78577 21.4099 10.2367 21.4208 10.2559C21.4317 10.2756 21.425 10.301 21.4054 10.3124ZM21.426 10.7271C21.4254 10.7419 21.4173 10.7553 21.4042 10.7623C21.1057 10.9235 20.8021 11.0087 20.526 11.0087C20.1689 11.0087 20.0263 10.8561 19.9591 10.7293C19.9511 10.7149 19.9011 10.6954 19.9111 10.6825C19.9184 10.6731 20.0117 10.523 20.2745 10.4428C20.2796 10.4397 20.2857 10.4382 20.2925 10.4385C20.3716 10.416 20.4602 10.4003 20.5618 10.4003C20.6038 10.4003 20.647 10.4069 20.6899 10.412C20.6924 10.4116 20.6939 10.4091 20.6965 10.4091H20.697C20.7011 10.4091 20.7041 10.4123 20.7079 10.4136C20.786 10.4239 20.8656 10.4404 20.9468 10.4667C20.9473 10.4668 20.9477 10.4662 20.9482 10.4665C20.9494 10.4666 20.9497 10.4677 20.9506 10.4679C21.0984 10.5163 21.2508 10.5898 21.4071 10.6908C21.4193 10.6986 21.4265 10.7124 21.426 10.7271ZM18.1528 11.0087C17.8767 11.0087 17.573 10.9235 17.2746 10.7623C17.2616 10.7554 17.2534 10.7419 17.2528 10.7271C17.2522 10.7124 17.2595 10.6983 17.2717 10.6904C17.4281 10.5892 17.5803 10.5159 17.7281 10.4676C17.7291 10.4672 17.7295 10.4663 17.7305 10.4662C17.7311 10.4661 17.7314 10.4665 17.732 10.4664C17.8132 10.4401 17.8928 10.4235 17.9709 10.4133C17.9747 10.412 17.9774 10.4088 17.9815 10.4088C17.9839 10.4087 17.9859 10.4112 17.9884 10.4117C18.0313 10.4066 18.0748 10.4 18.1167 10.4C18.5705 10.4 18.7986 10.6875 18.8081 10.6999C18.8182 10.7129 18.8197 10.7308 18.8119 10.7452C18.745 10.8721 18.5098 11.0087 18.1528 11.0087ZM20.6622 13.4367C20.6563 13.4396 20.6501 13.4412 20.644 13.4412C20.6288 13.4412 20.6144 13.4327 20.6073 13.418C20.5421 13.2851 20.5036 13.1475 20.481 13.0223C20.3103 13.0305 20.1527 13.1771 20.0136 13.307C19.8869 13.4249 19.7775 13.527 19.6656 13.527C19.5401 13.527 19.4989 13.4874 19.4618 13.4399C19.4404 13.4126 19.4286 13.3975 19.3713 13.3975C19.3048 13.3975 19.2837 13.4199 19.2546 13.4512C19.223 13.485 19.1838 13.5271 19.0912 13.5271C19.0173 13.5271 18.9226 13.4525 18.7613 13.3208C18.584 13.1761 18.3648 12.998 18.1935 12.9908C18.1906 13.1164 18.1587 13.2619 18.0707 13.4202C18.0631 13.4338 18.0494 13.4413 18.035 13.4413C18.0281 13.4413 18.0213 13.4395 18.0149 13.4359C17.9951 13.4245 17.9882 13.3993 17.9994 13.3792C18.2471 12.934 18.0047 12.5937 18.0023 12.5903C17.9887 12.5717 17.9925 12.5456 18.0106 12.532C18.0289 12.5184 18.0546 12.5223 18.068 12.5404C18.075 12.5499 18.1733 12.6893 18.1908 12.9058C18.2233 12.9055 18.2542 12.9037 18.2833 12.9007C18.2836 12.9007 18.2852 12.9004 18.2859 12.9004C18.5001 12.8769 18.6288 12.7815 18.7441 12.6961C18.8405 12.6246 18.9237 12.5629 19.0337 12.5629C19.1928 12.5629 19.2435 12.624 19.2804 12.6686C19.3036 12.6965 19.3124 12.7052 19.3373 12.7052C19.4318 12.7052 19.4762 12.666 19.5276 12.6208C19.579 12.5755 19.6371 12.5239 19.7442 12.5239C19.8333 12.5239 19.8878 12.5942 19.9451 12.6686C20.0357 12.7858 20.1492 12.9301 20.4484 12.9372C20.4549 12.9375 20.4619 12.9376 20.4675 12.9378C20.4397 12.7297 20.4542 12.5722 20.4551 12.5612C20.4575 12.5384 20.476 12.5211 20.5001 12.524C20.5225 12.5264 20.5391 12.5468 20.5368 12.5697C20.5362 12.5738 20.4965 13.0062 20.6803 13.3811C20.6908 13.4015 20.6826 13.4266 20.6622 13.4367Z" fill="black"/>
<path d="M23.9058 11.8202C24.3822 11.9556 24.4904 11.4449 24.8182 11.5485C25.262 11.6881 25.4294 11.3146 25.4294 11.3146C25.4294 11.3146 24.9799 11.4208 24.8352 11.2136C24.6906 11.0062 24.2037 11.3319 23.88 11.0124C23.7161 10.8503 23.4757 10.8416 23.2782 10.8722C23.275 10.8487 23.2723 10.8254 23.2686 10.802C23.4071 10.7014 23.6043 10.6039 23.849 10.6069C24.344 10.6128 24.318 10.0913 24.6612 10.105C25.1256 10.1237 25.192 9.71857 25.192 9.71857C25.192 9.71857 24.7849 9.93923 24.5921 9.77705C24.3997 9.61469 24.0122 10.0572 23.6181 9.83371C23.4187 9.7203 23.1847 9.77451 23.0022 9.85587C22.993 9.83417 22.9829 9.81292 22.9733 9.7914C23.0815 9.65755 23.2472 9.51164 23.4846 9.45024C23.9641 9.32575 23.8061 8.82904 24.141 8.75215C24.5943 8.64799 24.5551 8.23946 24.5551 8.23946C24.5551 8.23946 24.2182 8.55946 23.9909 8.4533C23.7636 8.34724 23.5022 8.87626 23.0643 8.76368C22.8422 8.70656 22.6292 8.82152 22.4733 8.94828C22.4594 8.92976 22.4449 8.91105 22.4305 8.8928C22.5009 8.73499 22.624 8.5503 22.838 8.42835C23.2693 8.18227 22.9901 7.74388 23.2939 7.58169C23.7054 7.36194 23.5633 6.97783 23.5633 6.97783C23.5633 6.97783 23.3197 7.37538 23.0727 7.33261C22.8262 7.28993 22.7086 7.86964 22.257 7.8757C22.028 7.87879 21.8518 8.04542 21.7337 8.20896C21.7152 8.19479 21.6963 8.18135 21.6776 8.16755C21.7054 7.99666 21.7772 7.78562 21.953 7.61146C22.3071 7.2605 21.9252 6.91046 22.1772 6.67381C22.5189 6.35346 22.2834 6.01965 22.2834 6.01965C22.2834 6.01965 22.1494 6.46767 21.9 6.4911C21.6509 6.51462 21.6853 7.1054 21.2507 7.22997C21.03 7.29308 20.9022 7.50074 20.8299 7.68961C20.8086 7.6809 20.7872 7.67227 20.7655 7.66383C20.7487 7.49157 20.7641 7.26902 20.8895 7.05443C21.1419 6.62266 20.6838 6.38458 20.867 6.08992C21.115 5.69083 20.8026 5.43022 20.8026 5.43022C20.8026 5.43022 20.7872 5.89804 20.5526 5.98631C20.3179 6.07457 20.5017 6.63601 20.1136 6.87056C20.0086 6.93412 19.9396 7.03056 19.8945 7.13742C19.8785 7.02237 19.8365 6.91096 19.751 6.82179C19.4359 6.49363 19.7569 5.99937 19.5526 5.85246C19.3482 5.70572 19.4531 5.24988 19.4531 5.24988C19.4531 5.24988 19.0847 5.41941 19.2226 5.87008C19.3244 6.2027 18.8212 6.31229 18.9551 6.79592C19.0217 7.03672 18.9793 7.25621 18.9188 7.41837C18.8958 7.42082 18.8734 7.42437 18.8505 7.42709C18.8291 7.22505 18.7588 6.98986 18.5609 6.87047C18.173 6.63601 18.357 6.07429 18.1222 5.98622C17.8873 5.89822 17.8723 5.43022 17.8723 5.43022C17.8723 5.43022 17.5598 5.69083 17.8078 6.08982C17.9909 6.38439 17.5329 6.62239 17.7853 7.05434C17.9113 7.26964 17.9263 7.49348 17.9091 7.66592C17.8877 7.67409 17.8665 7.68263 17.8454 7.69116C17.773 7.50174 17.6453 7.29317 17.424 7.22978C16.9895 7.10546 17.0239 6.51459 16.7746 6.491C16.5254 6.46748 16.3913 6.01964 16.3913 6.01964C16.3913 6.01964 16.1559 6.35327 16.4972 6.67352C16.7492 6.90989 16.3677 7.2602 16.7217 7.61108C16.8985 7.78642 16.9702 7.99891 16.9974 8.17042C16.979 8.18395 16.9606 8.19739 16.9425 8.21119C16.8244 8.04693 16.6475 7.87857 16.4171 7.8755C15.9657 7.86951 15.8482 7.28954 15.6015 7.33231C15.3545 7.37526 15.1111 6.97753 15.1111 6.97753C15.1111 6.97753 14.9688 7.36181 15.3802 7.58155C15.6841 7.74373 15.4047 8.18223 15.8361 8.42822C16.0518 8.55126 16.1754 8.73804 16.2453 8.8965C16.2311 8.9143 16.2173 8.93255 16.2035 8.95062C16.0473 8.82277 15.8332 8.70617 15.6095 8.76357C15.172 8.87626 14.9107 8.34714 14.6832 8.45319C14.4556 8.55879 14.1187 8.23898 14.1187 8.23898C14.1187 8.23898 14.0793 8.6475 14.5328 8.75176C14.8677 8.82858 14.7097 9.32547 15.1891 9.44977C15.4287 9.51188 15.5956 9.65989 15.7035 9.79446C15.6944 9.81543 15.6845 9.83586 15.6757 9.8572C15.4925 9.77493 15.2564 9.71909 15.0557 9.83314C14.6617 10.0571 14.2743 9.61448 14.0817 9.77666C13.8891 9.93902 13.4821 9.71836 13.4821 9.71836C13.4821 9.71836 13.5484 10.1232 14.0128 10.1048C14.356 10.0913 14.33 10.6125 14.8249 10.6067C15.0721 10.6038 15.2709 10.7029 15.4095 10.8047C15.4062 10.8273 15.4035 10.8501 15.4004 10.8729C15.2022 10.8413 14.9593 10.8489 14.7939 11.012C14.4705 11.332 13.9834 11.0061 13.8387 11.2135C13.6941 11.4207 13.2447 11.3144 13.2447 11.3144C13.2447 11.3144 13.4118 11.6882 13.8559 11.5483C14.1837 11.445 14.2917 11.9555 14.7682 11.8198C15.0064 11.7519 15.2239 11.7955 15.3838 11.8573C15.3863 11.8802 15.3897 11.9029 15.3923 11.9255C15.1929 11.947 14.9599 12.0182 14.8419 12.2193C14.611 12.6131 14.0573 12.4267 13.9703 12.6649C13.8833 12.903 13.4223 12.9183 13.4223 12.9183C13.4223 12.9183 13.6791 13.2354 14.0724 12.984C14.3627 12.7981 14.597 13.2628 15.0229 13.0067C15.2357 12.8785 15.4566 12.8635 15.627 12.8813C15.635 12.9028 15.6432 12.9239 15.652 12.9453C15.4648 13.0185 15.2585 13.1481 15.1958 13.3731C15.0733 13.8143 14.4908 13.7793 14.4678 14.0321C14.4446 14.2852 14.0032 14.4211 14.0032 14.4211C14.0032 14.4211 14.3322 14.6598 14.6479 14.3139C14.8808 14.0578 15.2258 14.4453 15.5716 14.086C15.7445 13.9063 15.9544 13.8337 16.1236 13.8061C16.1369 13.8247 16.15 13.8433 16.1635 13.8616C16.0015 13.9814 15.8352 14.161 15.8322 14.395C15.8263 14.8532 15.2549 14.9724 15.2971 15.2226C15.3391 15.4732 14.9474 15.7203 14.9474 15.7203C14.9474 15.7203 15.326 15.8645 15.5429 15.4472C15.7027 15.1389 16.1346 15.4223 16.3771 14.9846C16.4981 14.7655 16.682 14.6404 16.8383 14.5693C16.8558 14.5838 16.874 14.5978 16.8918 14.6119C16.7658 14.7704 16.6509 14.9876 16.7075 15.2144C16.8188 15.6587 16.2971 15.9238 16.4019 16.1545C16.5064 16.3853 16.191 16.727 16.191 16.727C16.191 16.727 16.5936 16.7671 16.6964 16.307C16.7719 15.9674 17.2615 16.1274 17.3842 15.6411C17.445 15.3983 17.5904 15.2292 17.723 15.1195C17.7437 15.1288 17.7643 15.1389 17.7851 15.1481C17.7044 15.3339 17.6496 15.5729 17.7619 15.7762C17.9826 16.1758 17.5464 16.5691 17.7063 16.7648C17.8661 16.96 17.6487 17.3731 17.6487 17.3731C17.6487 17.3731 18.0478 17.3059 18.0297 16.8345C18.0164 16.4863 18.5299 16.5124 18.5241 16.0105C18.5212 15.7604 18.6182 15.5593 18.7182 15.4185C18.7845 15.429 18.8511 15.4379 18.9185 15.4453C18.9791 15.6072 19.0214 15.8269 18.9549 16.0676C18.8211 16.551 19.3242 16.6608 19.2223 16.9934C19.0844 17.4441 19.4528 17.6137 19.4528 17.6137C19.4528 17.6137 19.3481 17.1579 19.5523 17.0109C19.7565 16.864 19.4356 16.3698 19.7508 16.0415C19.9109 15.8745 19.9191 15.6291 19.8884 15.4287C19.9111 15.4256 19.9341 15.4228 19.9567 15.4193C20.0562 15.5599 20.1528 15.7605 20.15 16.0101C20.1442 16.5123 20.6582 16.4862 20.6445 16.8342C20.6265 17.3057 21.0256 17.3726 21.0256 17.3726C21.0256 17.3726 20.8081 16.9598 20.9681 16.7643C21.1281 16.5689 20.6919 16.1758 20.9123 15.7757C21.0241 15.5732 20.97 15.3351 20.8898 15.1495C20.9111 15.1405 20.9318 15.13 20.9526 15.1205C21.0848 15.2303 21.2292 15.3987 21.2899 15.6404C21.4126 16.1269 21.902 15.9667 21.978 16.3064C22.0805 16.7667 22.4832 16.7266 22.4832 16.7266C22.4832 16.7266 22.1679 16.3849 22.2725 16.1542C22.377 15.9233 21.8556 15.6581 21.9666 15.2139C22.0229 14.9884 21.9096 14.772 21.7844 14.614C21.8026 14.5993 21.8208 14.5851 21.8388 14.5705C21.9943 14.6416 22.1767 14.7666 22.297 14.9842C22.5395 15.4218 22.9716 15.1385 23.1314 15.4468C23.3479 15.8644 23.7266 15.72 23.7266 15.72C23.7266 15.72 23.3349 15.4729 23.377 15.2224C23.419 14.9717 22.8478 14.8528 22.8417 14.3946C22.8387 14.1621 22.6745 13.9835 22.5134 13.8635C22.5273 13.8446 22.5409 13.8254 22.5545 13.8066C22.7228 13.8346 22.9307 13.9076 23.1024 14.0859C23.4479 14.4452 23.7932 14.0577 24.0261 14.3137C24.3419 14.6599 24.6707 14.4212 24.6707 14.4212C24.6707 14.4212 24.2292 14.285 24.2061 14.0322C24.183 13.7794 23.6006 13.8142 23.4778 13.3732C23.4157 13.1498 23.2119 13.0203 23.026 12.9466C23.0346 12.9249 23.0432 12.9028 23.0517 12.8808C23.221 12.8637 23.4401 12.8796 23.6508 13.0066C24.0764 13.2628 24.3111 12.7979 24.6016 12.984C24.9945 13.2355 25.2513 12.9186 25.2513 12.9186C25.2513 12.9186 24.7903 12.903 24.7034 12.6649C24.6165 12.4268 24.063 12.6133 23.8321 12.2196C23.7149 12.02 23.4847 11.9482 23.2861 11.9261C23.289 11.9026 23.2926 11.8793 23.2948 11.8558C23.4545 11.795 23.6699 11.7529 23.9058 11.8202ZM19.323 14.9842C17.2836 14.9842 15.774 13.5016 15.774 11.4318C15.774 9.36229 17.2836 7.8757 19.323 7.8757C21.3624 7.8757 22.8417 9.24483 22.8417 11.3146C22.8417 13.3843 21.3623 14.9842 19.323 14.9842Z" fill="black"/>
<path d="M20.517 10.8329C20.7927 10.8329 20.8729 10.6213 20.8945 10.5369C20.8406 10.5206 20.7871 10.5066 20.735 10.4979C20.7285 10.5526 20.7098 10.6421 20.65 10.7033C20.6087 10.7457 20.5557 10.7671 20.4923 10.7671C20.4252 10.7671 20.3701 10.7449 20.329 10.7013C20.282 10.6515 20.2647 10.5846 20.2582 10.5366C20.238 10.5441 20.2193 10.5517 20.2014 10.56C20.2039 10.6011 20.217 10.6833 20.2754 10.7461C20.3293 10.8036 20.4105 10.8329 20.517 10.8329L20.517 10.8329Z" fill="black"/>
</g>
<ellipse cx="0.870487" cy="0.854784" rx="0.870487" ry="0.854784" transform="matrix(0.879373 -0.476134 0.489528 0.871987 6.84912 18.9036)" fill="black"/>
</g>
<defs>
<clipPath id="clip0_55_321">
<rect width="35.6636" height="35.6636" fill="white" transform="translate(0.168213 0.168213)"/>
</clipPath>
</defs>
</svg>
