<svg width="80" height="90" viewBox="0 0 80 90" fill="none" xmlns="http://www.w3.org/2000/svg">
<g clip-path="url(#clip0_2_2)">
<path d="M80 0C80 0 50.8617 7.14343 39.4712 10.2455L18.7098 15.1033L0.048786 10.2455C0.048786 10.2455 0 24.3494 0 31.5437L18.8631 36.7432C18.8631 36.7432 80 21.2874 80 21.6993V0Z" fill="white"/>
<path d="M70.0775 28.023L18.5888 41.3518L0 36.1843L0.0486647 57.4742C4.80673 59.2367 18.7583 63.5207 18.7583 63.5207L70.0775 50.3077V28.023Z" fill="white"/>
<path d="M18.9521 67.8531L0 63.2882C0 63.2882 0.0487659 67.6547 0.0487659 73.7167V84.7241L18.629 89.6773L80 74.5362V52.934L18.9521 67.8531Z" fill="white"/>
</g>
<defs>
<clipPath id="clip0_2_2">
<rect width="80" height="89.6773" fill="white"/>
</clipPath>
</defs>
</svg>
