<svg width="32" height="33" viewBox="0 0 32 33" fill="none" xmlns="http://www.w3.org/2000/svg">
<path d="M9.60027 8.34302C7.39367 8.34302 5.27745 9.21959 3.71715 10.7799C2.15684 12.3402 1.28027 14.4564 1.28027 16.663C1.28027 18.8696 2.15684 20.9858 3.71715 22.5461C5.27745 24.1064 7.39367 24.983 9.60027 24.983C11.8069 24.983 13.9231 24.1064 15.4834 22.5461C17.0437 20.9858 17.9203 18.8696 17.9203 16.663C17.9203 14.4564 17.0437 12.3402 15.4834 10.7799C13.9231 9.21959 11.8069 8.34302 9.60027 8.34302ZM22.7203 8.98302C20.4227 8.98302 18.5603 12.4217 18.5603 16.663C18.5603 17.4585 18.6256 18.2253 18.7472 18.9465C18.9091 19.9085 19.1708 20.7891 19.51 21.5481C19.6796 21.9277 19.8684 22.2765 20.0739 22.5894C20.4848 23.2153 20.9622 23.6985 21.4832 23.9981C21.8742 24.2221 22.2896 24.343 22.7203 24.343C23.151 24.343 23.5664 24.2221 23.9574 23.9981C24.4784 23.6985 24.9558 23.2153 25.3667 22.5894C25.5721 22.2765 25.7609 21.9277 25.9305 21.5481C26.2697 20.7897 26.5315 19.9085 26.6934 18.9465C26.815 18.2253 26.8803 17.4585 26.8803 16.663C26.8803 12.4217 25.0179 8.98302 22.7203 8.98302ZM29.1203 9.62302C28.9545 9.62302 28.7945 9.73374 28.6448 9.93982C28.5443 10.0768 28.4483 10.256 28.358 10.4729C28.3126 10.5811 28.2684 10.6989 28.2262 10.8256C28.1411 11.0784 28.0617 11.367 27.9894 11.6851C27.8448 12.3219 27.7276 13.0809 27.6464 13.9232C27.606 14.3443 27.5747 14.7865 27.5529 15.2448C27.5312 15.7024 27.5203 16.1773 27.5203 16.663C27.5203 17.1488 27.5312 17.6237 27.5529 18.0819C27.574 18.5401 27.6054 18.9824 27.6464 19.4035C27.7276 20.2457 27.8448 21.0041 27.9894 21.6416C28.0617 21.9603 28.1411 22.2483 28.2262 22.5011C28.2684 22.6278 28.3126 22.7456 28.358 22.8537C28.4489 23.0707 28.5449 23.2499 28.6448 23.3869C28.7945 23.5923 28.9545 23.703 29.1203 23.703C30.0041 23.703 30.7203 20.551 30.7203 16.663C30.7203 12.775 30.0041 9.62302 29.1203 9.62302Z" fill="white"/>
</svg>
