<svg width="33" height="33" viewBox="0 0 33 33" fill="none" xmlns="http://www.w3.org/2000/svg">
<path fill-rule="evenodd" clip-rule="evenodd" d="M0.0371094 5.66309C0.0371094 2.90166 2.27569 0.663086 5.03711 0.663086H27.0371C29.7985 0.663086 32.0371 2.90166 32.0371 5.66309V27.6631C32.0371 30.4245 29.7985 32.6631 27.0371 32.6631H5.03711C2.27569 32.6631 0.0371094 30.4245 0.0371094 27.6631V5.66309ZM7.27963 16.4942C11.944 14.462 15.0542 13.1223 16.6105 12.475C21.0538 10.6268 21.9771 10.3058 22.5789 10.2952C22.7113 10.2929 23.0072 10.3257 23.1989 10.4812C23.3608 10.6126 23.4053 10.79 23.4266 10.9145C23.448 11.039 23.4745 11.3227 23.4534 11.5444C23.2126 14.0744 22.1707 20.2139 21.6407 23.0476C21.4164 24.2466 20.9748 24.6486 20.5472 24.6879C19.8114 24.7556 19.2159 24.3311 18.553 23.8585C18.3787 23.7343 18.1999 23.6067 18.0126 23.484C17.2775 23.0021 16.7093 22.6152 16.1397 22.2273C15.6181 21.8721 15.0953 21.516 14.4419 21.0855C13.0823 20.1895 13.6515 19.6409 14.4104 18.9092C14.5333 18.7908 14.6611 18.6675 14.7865 18.5373C14.8425 18.4791 15.1164 18.2245 15.5026 17.8655C16.7413 16.7139 19.1348 14.4886 19.1952 14.2311C19.2052 14.1888 19.2143 14.0314 19.1208 13.9482C19.0272 13.8651 18.8892 13.8935 18.7895 13.9161C18.6483 13.9482 16.3987 15.4351 12.0406 18.3769C11.4021 18.8153 10.8237 19.029 10.3055 19.0178C9.73421 19.0055 8.63529 18.6948 7.81836 18.4292C7.69855 18.3903 7.58167 18.3535 7.46887 18.3181C6.63852 18.057 6.02829 17.8651 6.08933 17.3782C6.12545 17.09 6.52222 16.7954 7.27963 16.4942Z" fill="white"/>
</svg>
