<svg width="33" height="33" viewBox="0 0 33 33" fill="none" xmlns="http://www.w3.org/2000/svg">
<g clip-path="url(#clip0_2463_2917)">
<path fill-rule="evenodd" clip-rule="evenodd" d="M32.577 16.5097C32.577 25.2615 25.4822 32.3563 16.7304 32.3563C7.97855 32.3563 0.883789 25.2615 0.883789 16.5097C0.883789 7.75785 7.97855 0.663086 16.7304 0.663086C25.4822 0.663086 32.577 7.75785 32.577 16.5097ZM17.2982 12.3617C15.7569 13.0028 12.6765 14.3297 8.05687 16.3424C7.30672 16.6407 6.91376 16.9325 6.87798 17.2179C6.81753 17.7001 7.42145 17.89 8.24383 18.1486C8.35569 18.1838 8.4716 18.2203 8.59043 18.2589C9.39953 18.5219 10.4879 18.8296 11.0537 18.8418C11.567 18.8529 12.1398 18.6413 12.7722 18.207C17.0885 15.2934 19.3165 13.8208 19.4564 13.789C19.5551 13.7666 19.6918 13.7385 19.7845 13.8208C19.8772 13.9032 19.868 14.0592 19.8582 14.101C19.7984 14.356 17.4278 16.56 16.201 17.7005C15.8185 18.0561 15.5473 18.3083 15.4918 18.3659C15.3676 18.4949 15.241 18.617 15.1193 18.7343C14.3676 19.4589 13.8039 20.0023 15.1505 20.8897C15.7976 21.3161 16.3154 21.6687 16.832 22.0205C17.3962 22.4047 17.9589 22.7879 18.6869 23.2652C18.8724 23.3868 19.0496 23.513 19.2221 23.6361C19.8787 24.1041 20.4685 24.5246 21.1972 24.4576C21.6207 24.4186 22.0581 24.0204 22.2802 22.8329C22.8052 20.0265 23.8371 13.9458 24.0756 11.4401C24.0965 11.2205 24.0702 10.9396 24.0491 10.8162C24.028 10.6929 23.9838 10.5172 23.8235 10.3871C23.6337 10.233 23.3406 10.2005 23.2095 10.2028C22.6135 10.2133 21.699 10.5313 17.2982 12.3617Z" fill="white"/>
</g>
<defs>
<clipPath id="clip0_2463_2917">
<rect width="31.6932" height="31.6932" fill="white" transform="translate(0.883789 0.663086)"/>
</clipPath>
</defs>
</svg>
