<?xml version="1.0" encoding="UTF-8"?> <svg xmlns="http://www.w3.org/2000/svg" width="129" height="24" viewBox="0 0 129 24" fill="none"> <g clip-path="url(#clip0_193_6374)"> <path opacity="0.5" d="M11.6758 10.955L23.2073 5.72974L11.6758 23.9279V10.955Z" fill="white"></path> <path opacity="0.75" d="M11.6756 10.955L0.144043 5.72974L11.6756 23.9279V10.955Z" fill="white"></path> <path d="M11.6756 10.955L0.144043 5.72974L11.6756 0.504517L23.2071 5.72974L11.6756 10.955Z" fill="white"></path> <path d="M35.7568 18.3932V8.50179H31.856V6.20308H42.4787V8.50179H38.5779V18.3932H35.7568Z" fill="white"></path> <path d="M47.3108 18.5325C46.3124 18.5325 45.4243 18.3235 44.6464 17.9056C43.8802 17.4876 43.2707 16.9188 42.8179 16.199C42.3768 15.4676 42.1562 14.6375 42.1562 13.7087C42.1562 12.7683 42.3768 11.9382 42.8179 11.2184C43.2707 10.487 43.8802 9.91816 44.6464 9.51182C45.4243 9.09388 46.3124 8.88491 47.3108 8.88491C48.2977 8.88491 49.18 9.09388 49.9578 9.51182C50.7357 9.91816 51.3452 10.4812 51.7863 11.201C52.2275 11.9208 52.4481 12.7567 52.4481 13.7087C52.4481 14.6375 52.2275 15.4676 51.7863 16.199C51.3452 16.9188 50.7357 17.4876 49.9578 17.9056C49.18 18.3235 48.2977 18.5325 47.3108 18.5325ZM47.3108 16.3034C47.7636 16.3034 48.17 16.199 48.5299 15.99C48.8897 15.781 49.1742 15.485 49.3832 15.1019C49.5921 14.7071 49.6966 14.2427 49.6966 13.7087C49.6966 13.163 49.5921 12.6987 49.3832 12.3155C49.1742 11.9324 48.8897 11.6364 48.5299 11.4274C48.17 11.2184 47.7636 11.114 47.3108 11.114C46.8581 11.114 46.4517 11.2184 46.0918 11.4274C45.7319 11.6364 45.4417 11.9324 45.2211 12.3155C45.0121 12.6987 44.9077 13.163 44.9077 13.7087C44.9077 14.2427 45.0121 14.7071 45.2211 15.1019C45.4417 15.485 45.7319 15.781 46.0918 15.99C46.4517 16.199 46.8581 16.3034 47.3108 16.3034Z" fill="white"></path> <path d="M59.9585 8.88491C60.7015 8.88491 61.3632 9.03583 61.9437 9.33768C62.5358 9.62792 63.0002 10.0807 63.3369 10.696C63.6735 11.2997 63.8419 12.0775 63.8419 13.0295V18.3932H61.1252V13.4475C61.1252 12.6929 60.9569 12.1356 60.6202 11.7757C60.2951 11.4158 59.8308 11.2359 59.2271 11.2359C58.7975 11.2359 58.4086 11.3287 58.0603 11.5145C57.7236 11.6886 57.4566 11.9615 57.2592 12.333C57.0735 12.7045 56.9806 13.1805 56.9806 13.7609V18.3932H54.264V9.02422H56.8587V11.619L56.3711 10.8353C56.7078 10.2084 57.1896 9.7266 57.8165 9.38992C58.4434 9.05325 59.1574 8.88491 59.9585 8.88491Z" fill="white"></path> <path d="M68.5509 16.4776L68.6205 13.1689L72.9915 9.02422H76.2306L72.0337 13.2908L70.6232 14.4401L68.5509 16.4776ZM66.3044 18.3932V5.47168H69.021V18.3932H66.3044ZM73.2876 18.3932L70.1181 14.4575L71.8248 12.3504L76.5789 18.3932H73.2876Z" fill="white"></path> <path d="M82.0591 18.5325C80.991 18.5325 80.0507 18.3235 79.238 17.9056C78.4369 17.4876 77.8158 16.9188 77.3747 16.199C76.9335 15.4676 76.7129 14.6375 76.7129 13.7087C76.7129 12.7683 76.9277 11.9382 77.3572 11.2184C77.7984 10.487 78.3963 9.91816 79.1509 9.51182C79.9055 9.09388 80.7589 8.88491 81.7108 8.88491C82.628 8.88491 83.4523 9.08227 84.1837 9.477C84.9267 9.86011 85.513 10.4174 85.9425 11.1488C86.3721 11.8686 86.5869 12.7335 86.5869 13.7435C86.5869 13.848 86.5811 13.9699 86.5695 14.1092C86.5579 14.2369 86.5462 14.3588 86.5346 14.4749H78.9245V12.8902H85.1067L84.0618 13.3604C84.0618 12.8728 83.9631 12.4491 83.7657 12.0892C83.5684 11.7293 83.2956 11.4506 82.9473 11.2533C82.599 11.0443 82.1926 10.9398 81.7283 10.9398C81.2639 10.9398 80.8517 11.0443 80.4918 11.2533C80.1435 11.4506 79.8707 11.7351 79.6734 12.1066C79.476 12.4665 79.3773 12.896 79.3773 13.3952V13.8132C79.3773 14.324 79.4876 14.7768 79.7082 15.1715C79.9404 15.5546 80.2596 15.8507 80.666 16.0596C81.0839 16.257 81.5715 16.3557 82.1288 16.3557C82.628 16.3557 83.0634 16.2802 83.4349 16.1293C83.818 15.9784 84.1663 15.752 84.4797 15.4501L85.9251 17.0174C85.4956 17.505 84.9557 17.8824 84.3056 18.1494C83.6555 18.4048 82.9066 18.5325 82.0591 18.5325Z" fill="white"></path> <path d="M93.0452 18.5325C91.9771 18.5325 91.0367 18.3235 90.224 17.9056C89.423 17.4876 88.8019 16.9188 88.3607 16.199C87.9195 15.4676 87.699 14.6375 87.699 13.7087C87.699 12.7683 87.9137 11.9382 88.3433 11.2184C88.7844 10.487 89.3823 9.91816 90.137 9.51182C90.8916 9.09388 91.7449 8.88491 92.6969 8.88491C93.614 8.88491 94.4383 9.08227 95.1697 9.477C95.9128 9.86011 96.499 10.4174 96.9286 11.1488C97.3581 11.8686 97.5729 12.7335 97.5729 13.7435C97.5729 13.848 97.5671 13.9699 97.5555 14.1092C97.5439 14.2369 97.5323 14.3588 97.5207 14.4749H89.9106V12.8902H96.0927L95.0478 13.3604C95.0478 12.8728 94.9492 12.4491 94.7518 12.0892C94.5544 11.7293 94.2816 11.4506 93.9333 11.2533C93.585 11.0443 93.1787 10.9398 92.7143 10.9398C92.2499 10.9398 91.8378 11.0443 91.4779 11.2533C91.1296 11.4506 90.8568 11.7351 90.6594 12.1066C90.462 12.4665 90.3634 12.896 90.3634 13.3952V13.8132C90.3634 14.324 90.4736 14.7768 90.6942 15.1715C90.9264 15.5546 91.2457 15.8507 91.652 16.0596C92.07 16.257 92.5576 16.3557 93.1148 16.3557C93.614 16.3557 94.0494 16.2802 94.4209 16.1293C94.804 15.9784 95.1523 15.752 95.4658 15.4501L96.9112 17.0174C96.4816 17.505 95.9418 17.8824 95.2916 18.1494C94.6415 18.4048 93.8927 18.5325 93.0452 18.5325Z" fill="white"></path> <path d="M104.919 18.5325C104.13 18.5325 103.439 18.3583 102.847 18.0101C102.255 17.6618 101.791 17.1335 101.454 16.4253C101.129 15.7056 100.966 14.8 100.966 13.7087C100.966 12.6058 101.123 11.7002 101.436 10.992C101.75 10.2839 102.203 9.75563 102.795 9.40734C103.387 9.05905 104.095 8.88491 104.919 8.88491C105.802 8.88491 106.591 9.08807 107.288 9.49441C107.996 9.88914 108.553 10.4464 108.96 11.1662C109.377 11.886 109.586 12.7335 109.586 13.7087C109.586 14.6955 109.377 15.5488 108.96 16.2686C108.553 16.9884 107.996 17.5457 107.288 17.9404C106.591 18.3351 105.802 18.5325 104.919 18.5325ZM99.3816 21.7716V9.02422H101.976V10.9398L101.924 13.7261L102.098 16.495V21.7716H99.3816ZM104.449 16.3034C104.902 16.3034 105.302 16.199 105.651 15.99C106.011 15.781 106.295 15.485 106.504 15.1019C106.725 14.7071 106.835 14.2427 106.835 13.7087C106.835 13.163 106.725 12.6987 106.504 12.3155C106.295 11.9324 106.011 11.6364 105.651 11.4274C105.302 11.2184 104.902 11.114 104.449 11.114C103.996 11.114 103.59 11.2184 103.23 11.4274C102.87 11.6364 102.586 11.9324 102.377 12.3155C102.168 12.6987 102.063 13.163 102.063 13.7087C102.063 14.2427 102.168 14.7071 102.377 15.1019C102.586 15.485 102.87 15.781 103.23 15.99C103.59 16.199 103.996 16.3034 104.449 16.3034Z" fill="white"></path> <path d="M116.055 18.5325C114.987 18.5325 114.046 18.3235 113.234 17.9056C112.432 17.4876 111.811 16.9188 111.37 16.199C110.929 15.4676 110.708 14.6375 110.708 13.7087C110.708 12.7683 110.923 11.9382 111.353 11.2184C111.794 10.487 112.392 9.91816 113.146 9.51182C113.901 9.09388 114.754 8.88491 115.706 8.88491C116.624 8.88491 117.448 9.08227 118.179 9.477C118.922 9.86011 119.509 10.4174 119.938 11.1488C120.368 11.8686 120.582 12.7335 120.582 13.7435C120.582 13.848 120.577 13.9699 120.565 14.1092C120.553 14.2369 120.542 14.3588 120.53 14.4749H112.92V12.8902H119.102L118.057 13.3604C118.057 12.8728 117.959 12.4491 117.761 12.0892C117.564 11.7293 117.291 11.4506 116.943 11.2533C116.595 11.0443 116.188 10.9398 115.724 10.9398C115.259 10.9398 114.847 11.0443 114.487 11.2533C114.139 11.4506 113.866 11.7351 113.669 12.1066C113.472 12.4665 113.373 12.896 113.373 13.3952V13.8132C113.373 14.324 113.483 14.7768 113.704 15.1715C113.936 15.5546 114.255 15.8507 114.661 16.0596C115.079 16.257 115.567 16.3557 116.124 16.3557C116.624 16.3557 117.059 16.2802 117.43 16.1293C117.814 15.9784 118.162 15.752 118.475 15.4501L119.921 17.0174C119.491 17.505 118.951 17.8824 118.301 18.1494C117.651 18.4048 116.902 18.5325 116.055 18.5325Z" fill="white"></path> <path d="M122.391 18.3932V9.02422H124.986V11.6712L124.62 10.905C124.899 10.2432 125.346 9.74402 125.961 9.40734C126.576 9.05905 127.325 8.88491 128.207 8.88491V11.3926C128.091 11.381 127.987 11.3752 127.894 11.3752C127.801 11.3636 127.702 11.3578 127.598 11.3578C126.855 11.3578 126.251 11.5725 125.787 12.0021C125.334 12.42 125.108 13.076 125.108 13.9699V18.3932H122.391Z" fill="white"></path> </g> <defs> <clipPath id="clip0_193_6374"> <rect width="128.432" height="24" fill="white"></rect> </clipPath> </defs> </svg> 