<?xml version="1.0" encoding="UTF-8"?> <svg xmlns="http://www.w3.org/2000/svg" width="169" height="24" viewBox="0 0 169 24" fill="none"> <path d="M6.35242 0L0 6.35276H10.058L15.1752 0H6.35242Z" fill="#8F8F8F"></path> <path d="M0 6.35352L15.1752 24L10.058 6.35352H0Z" fill="#7A7A7A"></path> <path d="M23.9979 0L30.3503 6.35276H20.2922L15.175 0H23.9979Z" fill="white"></path> <path d="M30.3503 6.35352L15.175 24L20.2922 6.35352H30.3503Z" fill="#E6E6E6"></path> <path d="M15.1748 24L22.586 6.35352H7.76367L15.1748 24Z" fill="#B3B3B3"></path> <path d="M22.5862 6.35276H7.76392L11.4695 0H18.8807L22.5862 6.35276Z" fill="#C6C6C6"></path> <path d="M40.436 6.76952V3.39172H54.98V6.76952H49.7622V20.6H45.662V6.76952H40.436Z" fill="white"></path> <path d="M72.4668 11.9958C72.4668 13.8891 72.1028 15.494 71.3745 16.8103C70.6463 18.1269 69.6606 19.1266 68.417 19.81C67.1791 20.4934 65.79 20.8352 64.2497 20.8352C62.7036 20.8352 61.3118 20.4906 60.0739 19.8016C58.836 19.1126 57.8528 18.1129 57.1248 16.8019C56.4022 15.4856 56.0408 13.8835 56.0408 11.9958C56.0408 10.1024 56.4022 8.49755 57.1248 7.18116C57.8528 5.86477 58.836 4.86488 60.0739 4.18147C61.3118 3.49807 62.7036 3.15637 64.2497 3.15637C65.79 3.15637 67.1791 3.49807 68.417 4.18147C69.6606 4.86488 70.6463 5.86477 71.3745 7.18116C72.1028 8.49755 72.4668 10.1024 72.4668 11.9958ZM68.2153 11.9958C68.2153 10.8755 68.0558 9.92876 67.7365 9.15574C67.4229 8.38272 66.969 7.79735 66.3753 7.39963C65.7871 7.0019 65.0785 6.80305 64.2497 6.80305C63.4262 6.80305 62.7176 7.0019 62.1238 7.39963C61.5301 7.79735 61.0736 8.38272 60.7545 9.15574C60.4407 9.92876 60.2838 10.8755 60.2838 11.9958C60.2838 13.1161 60.4407 14.0628 60.7545 14.8358C61.0736 15.6088 61.5301 16.1942 62.1238 16.592C62.7176 16.9896 63.4262 17.1885 64.2497 17.1885C65.0785 17.1885 65.7871 16.9896 66.3753 16.592C66.969 16.1942 67.4229 15.6088 67.7365 14.8358C68.0558 14.0628 68.2153 13.1161 68.2153 11.9958Z" fill="white"></path> <path d="M89.5396 3.39172V20.6H86.0107L79.163 10.6683H79.0539V20.6H74.8948V3.39172H78.474L85.2461 13.3066H85.389V3.39172H89.5396Z" fill="white"></path> <path d="M97.2383 20.6V3.39172H104.346C105.635 3.39172 106.747 3.64379 107.682 4.14795C108.623 4.6465 109.348 5.3439 109.858 6.24016C110.368 7.13083 110.623 8.16714 110.623 9.34907C110.623 10.5366 110.362 11.5757 109.841 12.4664C109.326 13.3515 108.589 14.0377 107.632 14.525C106.674 15.0124 105.537 15.2561 104.22 15.2561H99.8346V11.9791H103.447C104.075 11.9791 104.598 11.8698 105.019 11.6514C105.444 11.4329 105.766 11.1276 105.985 10.7355C106.203 10.3378 106.312 9.87563 106.312 9.34907C106.312 8.81693 106.203 8.35759 105.985 7.97107C105.766 7.57897 105.444 7.27647 105.019 7.06361C104.593 6.85075 104.069 6.74431 103.447 6.74431H101.397V20.6H97.2383Z" fill="white"></path> <path d="M120.999 15.0291V7.69373H125.099V20.5999H121.184V18.1969H121.049C120.764 18.9866 120.276 19.6141 119.587 20.079C118.904 20.5383 118.078 20.768 117.109 20.768C116.229 20.768 115.456 20.5663 114.79 20.163C114.123 19.7596 113.605 19.1967 113.236 18.4741C112.866 17.7459 112.678 16.8944 112.673 15.9198V7.69373H116.781V15.1132C116.787 15.8134 116.971 16.3651 117.336 16.7683C117.7 17.1717 118.195 17.3734 118.823 17.3734C119.232 17.3734 119.599 17.2838 119.924 17.1045C120.254 16.9196 120.515 16.6536 120.705 16.3062C120.901 15.9534 120.999 15.5276 120.999 15.0291Z" fill="white"></path> <path d="M131.823 13.2396V20.6001H127.714V7.69393H131.621V10.0634H131.764C132.05 9.27359 132.537 8.65462 133.226 8.20649C133.915 7.75275 134.736 7.52588 135.688 7.52588C136.595 7.52588 137.382 7.73035 138.049 8.13927C138.721 8.54258 139.242 9.10836 139.612 9.83657C139.987 10.5592 140.172 11.405 140.166 12.3741V20.6001H136.058V13.1808C136.063 12.4637 135.881 11.9036 135.511 11.5003C135.147 11.0969 134.641 10.8953 133.991 10.8953C133.559 10.8953 133.178 10.9905 132.848 11.181C132.523 11.3658 132.271 11.6319 132.092 11.9792C131.918 12.3265 131.829 12.7466 131.823 13.2396Z" fill="white"></path> <path d="M146.416 17.2138L146.432 12.3152H147.004L150.633 7.69379H155.288L149.894 14.3149H148.81L146.416 17.2138ZM142.71 20.6V3.39172H146.819V20.6H142.71ZM150.726 20.6L147.348 15.2393L150.054 12.3236L155.473 20.6H150.726Z" fill="white"></path> <path d="M168.025 11.6347L164.253 11.7355C164.214 11.4666 164.107 11.2286 163.933 11.0213C163.76 10.8084 163.533 10.6432 163.253 10.5256C162.978 10.4023 162.659 10.3407 162.295 10.3407C161.819 10.3407 161.413 10.436 161.077 10.6264C160.746 10.8169 160.584 11.0745 160.589 11.3994C160.584 11.6515 160.685 11.87 160.892 12.0548C161.105 12.2397 161.483 12.3881 162.026 12.5001L164.513 12.9707C165.801 13.2172 166.759 13.6261 167.387 14.1975C168.02 14.7688 168.339 15.525 168.345 16.4661C168.339 17.3512 168.076 18.1215 167.555 18.7769C167.039 19.4322 166.334 19.9419 165.437 20.3061C164.541 20.6645 163.516 20.8438 162.362 20.8438C160.519 20.8438 159.066 20.4656 158.002 19.7094C156.943 18.9477 156.338 17.9282 156.187 16.651L160.245 16.5502C160.335 17.0207 160.567 17.3793 160.942 17.6256C161.318 17.8721 161.797 17.9954 162.379 17.9954C162.906 17.9954 163.334 17.8974 163.665 17.7013C163.995 17.5051 164.163 17.2448 164.169 16.9198C164.163 16.6286 164.034 16.3961 163.782 16.2224C163.53 16.0431 163.135 15.9032 162.597 15.8024L160.346 15.3737C159.052 15.1386 158.088 14.7044 157.455 14.0714C156.823 13.4328 156.509 12.6206 156.514 11.6347C156.509 10.772 156.738 10.0354 157.203 9.42484C157.668 8.80867 158.329 8.33812 159.186 8.01324C160.043 7.68833 161.054 7.52588 162.219 7.52588C163.967 7.52588 165.345 7.89279 166.353 8.62661C167.362 9.35482 167.919 10.3575 168.025 11.6347Z" fill="white"></path> </svg> 