<?xml version="1.0" encoding="UTF-8"?> <svg xmlns="http://www.w3.org/2000/svg" width="112" height="24" viewBox="0 0 112 24" fill="none"> <path fill-rule="evenodd" clip-rule="evenodd" d="M11.9336 23.3566C18.2424 23.3566 23.3567 18.2423 23.3567 11.9335C23.3567 5.62468 18.2424 0.510376 11.9336 0.510376C5.6248 0.510376 0.510498 5.62468 0.510498 11.9335C0.510498 18.2423 5.6248 23.3566 11.9336 23.3566ZM17.8734 8.09799C17.6671 7.7409 17.283 7.5191 16.8706 7.5191H8.32172L9.43191 9.44199H15.5454L12.4887 14.7365L13.5988 16.6594L17.8734 9.25577C18.0796 8.89868 18.0796 8.45508 17.8734 8.09799ZM8.32182 9.44199L11.9337 15.6979L11.9349 15.6958L13.0449 17.6189L12.9363 17.807C12.7301 18.1641 12.3458 18.3859 11.9335 18.3859C11.5212 18.3859 11.137 18.1641 10.9309 17.807L5.99388 9.25577C5.78779 8.89868 5.78767 8.45508 5.99388 8.09799C6.20009 7.7409 6.58432 7.5191 6.99662 7.5191H7.2152L8.32515 9.44199H8.32182Z" fill="white"></path> <path d="M34.844 8.25552H31.5815V6.22449H40.5373V8.25552H37.2748V17.4032H34.844V8.25552Z" fill="white"></path> <path d="M44.0653 17.643C43.1378 17.643 42.3222 17.4778 41.6185 17.1473C40.9255 16.8061 40.3871 16.3317 40.0033 15.724C39.6301 15.1056 39.4435 14.3859 39.4435 13.565C39.4435 12.7654 39.6301 12.0564 40.0033 11.438C40.3871 10.8196 40.9255 10.3399 41.6185 9.99869C42.3222 9.65752 43.1378 9.48693 44.0653 9.48693C44.9822 9.48693 45.7872 9.65752 46.4802 9.99869C47.1838 10.3399 47.7223 10.8196 48.0954 11.438C48.4792 12.0564 48.6711 12.7654 48.6711 13.565C48.6711 14.3859 48.4792 15.1056 48.0954 15.724C47.7223 16.3317 47.1892 16.8061 46.4962 17.1473C45.8032 17.4778 44.9929 17.643 44.0653 17.643ZM44.0653 15.7559C44.7157 15.7559 45.2328 15.5587 45.6166 15.1642C46.0004 14.7591 46.1923 14.226 46.1923 13.565C46.1923 12.8826 46.0004 12.3496 45.6166 11.9657C45.2434 11.5713 44.7264 11.374 44.0653 11.374C43.4043 11.374 42.8819 11.5713 42.4981 11.9657C42.1143 12.3496 41.9224 12.8826 41.9224 13.565C41.9224 14.226 42.1143 14.7591 42.4981 15.1642C42.8926 15.5587 43.415 15.7559 44.0653 15.7559Z" fill="white"></path> <path d="M50.0241 9.72682H52.359V10.6704C52.7108 10.2759 53.1266 9.98269 53.6064 9.79079C54.0968 9.58822 54.6086 9.48693 55.1417 9.48693C56.1865 9.48693 56.9648 9.76946 57.4766 10.3345C57.999 10.8889 58.2602 11.6406 58.2602 12.5894V17.4032H55.8453V12.8613C55.8453 11.8698 55.3869 11.374 54.47 11.374C54.0649 11.374 53.6864 11.4753 53.3345 11.6779C52.9827 11.8698 52.6842 12.1577 52.439 12.5415V17.4032H50.0241V9.72682Z" fill="white"></path> <path d="M63.0137 17.643C62.4379 17.643 61.8196 17.5791 61.1585 17.4511C60.5082 17.3339 59.9964 17.1633 59.6233 16.9394V15.0523C60.0497 15.3082 60.5615 15.5161 61.1585 15.676C61.7556 15.8359 62.31 15.9159 62.8218 15.9159C63.2589 15.9159 63.5787 15.8785 63.7813 15.8039C63.9839 15.7293 64.0852 15.5907 64.0852 15.3881C64.0852 15.2282 64.0265 15.1003 63.9092 15.0043C63.792 14.8977 63.6107 14.8071 63.3655 14.7324C63.1309 14.6471 62.7365 14.5245 62.1821 14.3646C61.5317 14.1727 61.0199 13.9808 60.6468 13.7889C60.2843 13.5863 60.0071 13.3358 59.8152 13.0372C59.6339 12.7387 59.5433 12.3549 59.5433 11.8858C59.5433 11.0862 59.8578 10.4891 60.4869 10.0946C61.1266 9.6895 61.9902 9.48693 63.0776 9.48693C63.6107 9.48693 64.1598 9.54557 64.7248 9.66285C65.3006 9.76946 65.743 9.91339 66.0522 10.0946V11.9338C65.743 11.7312 65.3379 11.5659 64.8368 11.438C64.3464 11.3101 63.8666 11.2461 63.3975 11.2461C62.9604 11.2461 62.6192 11.2887 62.374 11.374C62.1394 11.4593 62.0221 11.6192 62.0221 11.8538C62.0221 12.0564 62.1341 12.211 62.358 12.3176C62.5925 12.4242 63.0243 12.5575 63.6534 12.7174L63.9732 12.7973C64.6449 12.9786 65.1673 13.1812 65.5405 13.4051C65.9136 13.6183 66.1748 13.8795 66.3241 14.1887C66.484 14.4872 66.564 14.8657 66.564 15.3241C66.564 16.0278 66.2601 16.5929 65.6524 17.0193C65.0447 17.4351 64.1651 17.643 63.0137 17.643Z" fill="white"></path> <path d="M70.902 17.643C70.0065 17.643 69.3241 17.3978 68.855 16.9074C68.3966 16.4063 68.1673 15.7133 68.1673 14.8284V11.47H67.0479V9.72682H68.1673V7.42392H70.5822V9.72682H72.3893V11.47H70.5822V14.5085C70.5822 14.9563 70.6675 15.2815 70.8381 15.4841C71.0086 15.676 71.3125 15.7719 71.7496 15.7719C72.1014 15.7719 72.4373 15.6866 72.7571 15.5161V17.3232C72.2667 17.5364 71.6483 17.643 70.902 17.643Z" fill="white"></path> <path d="M76.5005 17.643C75.5623 17.643 74.7946 17.4085 74.1976 16.9394C73.6112 16.4596 73.318 15.8092 73.318 14.9883C73.318 14.1354 73.6005 13.4744 74.1656 13.0053C74.7307 12.5255 75.5303 12.2856 76.5644 12.2856C77.0229 12.2856 77.46 12.3336 77.8758 12.4295C78.2916 12.5255 78.6594 12.6587 78.9793 12.8293V12.6374C78.9793 12.1577 78.8087 11.8058 78.4675 11.5819C78.1264 11.358 77.6039 11.2461 76.9003 11.2461C75.9621 11.2461 75.0985 11.422 74.3095 11.7738V10.0147C74.6507 9.86542 75.0931 9.74281 75.6369 9.64685C76.1806 9.54024 76.7244 9.48693 77.2681 9.48693C78.6541 9.48693 79.6883 9.77479 80.3706 10.3505C81.053 10.9156 81.3941 11.7099 81.3941 12.7334V17.4032H79.1232V16.6995C78.4729 17.3285 77.5986 17.643 76.5005 17.643ZM77.1562 16.0438C77.5506 16.0438 77.9078 15.9692 78.2277 15.8199C78.5475 15.6706 78.798 15.4627 78.9793 15.1962V14.4286C78.4356 14.0661 77.8385 13.8848 77.1881 13.8848C76.7404 13.8848 76.3939 13.9808 76.1486 14.1727C75.9141 14.3539 75.7968 14.6258 75.7968 14.9883C75.7968 15.3295 75.9141 15.5907 76.1486 15.7719C76.3832 15.9532 76.719 16.0438 77.1562 16.0438Z" fill="white"></path> <path d="M82.9927 9.72682H85.3276V10.8303C85.6368 10.4571 86.0686 10.1746 86.623 9.98269C87.1774 9.78012 87.8065 9.67884 88.5101 9.67884V11.518C87.7745 11.518 87.1241 11.6299 86.559 11.8538C86.0046 12.0777 85.6208 12.4189 85.4076 12.8773V17.4032H82.9927V9.72682Z" fill="white"></path> <path d="M92.751 17.643C91.8554 17.643 91.1731 17.3978 90.7039 16.9074C90.2455 16.4063 90.0163 15.7133 90.0163 14.8284V11.47H88.8968V9.72682H90.0163V7.42392H92.4311V9.72682H94.2383V11.47H92.4311V14.5085C92.4311 14.9563 92.5164 15.2815 92.687 15.4841C92.8576 15.676 93.1614 15.7719 93.5986 15.7719C93.9504 15.7719 94.2862 15.6866 94.6061 15.5161V17.3232C94.1157 17.5364 93.4973 17.643 92.751 17.643Z" fill="white"></path> <path d="M100.135 17.643C98.6636 17.643 97.5069 17.2912 96.6646 16.5875C95.8223 15.8732 95.4012 14.8764 95.4012 13.597C95.4012 12.3282 95.7744 11.3261 96.5207 10.5904C97.2776 9.85475 98.3545 9.48693 99.7511 9.48693C100.668 9.48693 101.446 9.65752 102.086 9.99869C102.726 10.3399 103.211 10.8143 103.541 11.422C103.872 12.0191 104.037 12.6961 104.037 13.453V14.4286H97.7041C97.8747 15.4094 98.7916 15.8999 100.455 15.8999C100.945 15.8999 101.452 15.8572 101.974 15.7719C102.496 15.6866 102.95 15.5694 103.333 15.4201V17.1153C102.96 17.2752 102.48 17.4032 101.894 17.4991C101.308 17.5951 100.721 17.643 100.135 17.643ZM101.75 12.8613C101.718 12.3496 101.526 11.9551 101.174 11.6779C100.823 11.39 100.338 11.2461 99.7191 11.2461C99.1114 11.2461 98.6317 11.39 98.2798 11.6779C97.928 11.9657 97.7361 12.3602 97.7041 12.8613H101.75Z" fill="white"></path> <path d="M105.373 9.72682H107.708V10.8303C108.017 10.4571 108.449 10.1746 109.003 9.98269C109.557 9.78012 110.186 9.67884 110.89 9.67884V11.518C110.154 11.518 109.504 11.6299 108.939 11.8538C108.385 12.0777 108.001 12.4189 107.788 12.8773V17.4032H105.373V9.72682Z" fill="white"></path> </svg> 