<?xml version="1.0" encoding="UTF-8"?> <svg xmlns="http://www.w3.org/2000/svg" width="100" height="25" viewBox="0 0 100 25" fill="none"> <path d="M31.1496 17.3272V9.88698H28.2979V8.25219H35.9873V9.88698H33.1356V17.3272H31.1496Z" fill="white"></path> <path d="M36.2666 12.7832C36.2666 11.8393 36.4406 11.0197 36.7885 10.3246C37.145 9.62095 37.6542 9.07602 38.3162 8.68985C38.9783 8.30368 39.7633 8.1106 40.6715 8.1106C41.5796 8.1106 42.3647 8.30368 43.0267 8.68985C43.6887 9.07602 44.1979 9.62095 44.5544 10.3246C44.9193 11.0197 45.1018 11.835 45.1018 12.7704C45.1018 13.7229 44.9193 14.551 44.5544 15.2547C44.1979 15.9498 43.6887 16.4948 43.0267 16.8895C42.3647 17.2757 41.5796 17.4688 40.6715 17.4688C39.7633 17.4688 38.9783 17.2757 38.3162 16.8895C37.6627 16.4948 37.1577 15.9456 36.8013 15.2419C36.4448 14.5382 36.2666 13.7186 36.2666 12.7832ZM38.3417 12.7832C38.3417 13.7186 38.5327 14.4524 38.9146 14.9844C39.305 15.5079 39.8906 15.7696 40.6715 15.7696C41.4353 15.7696 42.0167 15.5079 42.4156 14.9844C42.8145 14.4524 43.0139 13.7186 43.0139 12.7832C43.0139 11.8393 42.8145 11.1098 42.4156 10.595C42.0252 10.0715 41.4438 9.80974 40.6715 9.80974C39.8906 9.80974 39.305 10.0715 38.9146 10.595C38.5327 11.1098 38.3417 11.8393 38.3417 12.7832Z" fill="white"></path> <path d="M46.654 17.3272V8.25219H48.1308L53.0067 14.521H52.6629V8.25219H54.5089V17.3272H53.0321L48.1689 11.0584H48.5V17.3272H46.654Z" fill="white"></path> <path d="M62.4402 17.3272L59.2574 8.25219H61.3071L63.5859 15.2547H63.0385L65.521 8.25219H66.9723L69.2512 15.2547H68.7419L71.1608 8.25219H73.0832L69.875 17.3272H68.2582L66.0557 10.8781H66.3485L64.0697 17.3272H62.4402Z" fill="white"></path> <path d="M75.8515 17.4688C75.2914 17.4688 74.7991 17.3315 74.3747 17.0569C73.9504 16.7823 73.6194 16.3918 73.3817 15.8855C73.1441 15.3792 73.0253 14.7699 73.0253 14.0576C73.0253 13.3539 73.1441 12.7489 73.3817 12.2426C73.6194 11.7363 73.9504 11.3501 74.3747 11.0841C74.7991 10.8095 75.2914 10.6722 75.8515 10.6722C76.3692 10.6722 76.8318 10.8009 77.2392 11.0584C77.6551 11.3072 77.9267 11.6462 78.054 12.0753H77.9139L78.0667 10.8009H79.9127C79.8872 11.0841 79.8618 11.3716 79.8363 11.6634C79.8193 11.9465 79.8108 12.2254 79.8108 12.5001V17.3272H77.9012L77.8885 16.1043H78.0412C77.9054 16.5162 77.6339 16.8466 77.2265 17.0955C76.8191 17.3443 76.3608 17.4688 75.8515 17.4688ZM76.4371 16.0013C76.8785 16.0013 77.235 15.8426 77.5065 15.5251C77.7781 15.2075 77.9139 14.7184 77.9139 14.0576C77.9139 13.3968 77.7781 12.912 77.5065 12.603C77.235 12.2941 76.8785 12.1396 76.4371 12.1396C75.9958 12.1396 75.6393 12.2941 75.3678 12.603C75.0962 12.912 74.9604 13.3968 74.9604 14.0576C74.9604 14.7184 75.0919 15.2075 75.355 15.5251C75.6266 15.8426 75.9873 16.0013 76.4371 16.0013Z" fill="white"></path> <path d="M81.3874 17.3272V7.85315H83.3097V17.3272H81.3874Z" fill="white"></path> <path d="M84.8809 17.3272V7.85315H86.8033V17.3272H84.8809Z" fill="white"></path> <path d="M91.6208 17.4688C90.5005 17.4688 89.6263 17.1641 88.9982 16.5548C88.3702 15.9455 88.0562 15.1174 88.0562 14.0705C88.0562 13.3925 88.1877 12.8004 88.4508 12.2941C88.7224 11.7878 89.0958 11.393 89.5711 11.1098C90.0549 10.8181 90.6193 10.6722 91.2643 10.6722C91.9009 10.6722 92.4313 10.8095 92.8557 11.0841C93.2885 11.3587 93.6111 11.7449 93.8232 12.2426C94.0439 12.7318 94.1542 13.3024 94.1542 13.9546V14.4052H89.6348V13.4397H92.7538L92.5374 13.62C92.5374 13.0793 92.4271 12.6717 92.2064 12.3971C91.9942 12.1139 91.6845 11.9723 91.2771 11.9723C90.8272 11.9723 90.4793 12.1396 90.2331 12.4743C89.9955 12.809 89.8767 13.2896 89.8767 13.916V14.122C89.8767 14.757 90.0294 15.229 90.335 15.5379C90.649 15.8469 91.0988 16.0013 91.6845 16.0013C92.0324 16.0013 92.3592 15.9584 92.6647 15.8726C92.9788 15.7782 93.2758 15.6323 93.5559 15.4349L94.0906 16.7222C93.7681 16.9625 93.3946 17.147 92.9703 17.2757C92.5544 17.4044 92.1046 17.4688 91.6208 17.4688Z" fill="white"></path> <path d="M98.3538 17.4688C97.5136 17.4688 96.8813 17.2585 96.4569 16.838C96.0326 16.409 95.8204 15.7696 95.8204 14.9201V12.2555H94.5982V10.8009H95.8204V9.20474L97.7428 8.72847V10.8009H99.3978V12.2555H97.7428V14.8171C97.7428 15.229 97.8276 15.5122 97.9974 15.6666C98.1671 15.8211 98.3835 15.8984 98.6466 15.8984C98.8079 15.8984 98.9395 15.8898 99.0413 15.8726C99.1516 15.8469 99.2662 15.8125 99.385 15.7696V17.2757C99.2238 17.3443 99.054 17.3915 98.8758 17.4173C98.6976 17.4516 98.5236 17.4688 98.3538 17.4688Z" fill="white"></path> <path fill-rule="evenodd" clip-rule="evenodd" d="M11.6826 23.858C17.8865 23.858 22.9157 18.7728 22.9157 12.5C22.9157 6.22721 17.8865 1.14209 11.6826 1.14209C5.4787 1.14209 0.449463 6.22721 0.449463 12.5C0.449463 18.7728 5.4787 23.858 11.6826 23.858ZM14.7142 8.71405H8.41382C8.2452 8.71405 7.97785 8.71502 7.71403 8.83967C7.46799 8.95593 7.26342 9.14585 7.12754 9.38343C6.99166 9.62098 6.93088 9.89495 6.95311 10.1683C6.9773 10.4657 7.11559 10.6961 7.20501 10.8451C7.20562 10.8461 7.20623 10.8472 7.20684 10.8482C7.20735 10.849 7.20787 10.8499 7.20838 10.8507L11.1157 17.7495C11.2024 17.9026 11.3634 17.9973 11.5378 17.9979C11.7123 17.9985 11.8739 17.905 11.9616 17.7526L15.9421 10.839C15.9427 10.838 15.9432 10.837 15.9438 10.836C15.9445 10.8348 15.9451 10.8336 15.9458 10.8325C16.0735 10.6026 16.1305 10.3388 16.1305 10.0968C16.1305 9.84197 16.0677 9.60512 15.9458 9.38575C15.9388 9.37317 15.9313 9.36088 15.9232 9.34895C15.8195 9.19566 15.6716 8.98834 15.3926 8.85687C15.1598 8.74715 14.9371 8.71405 14.7142 8.71405ZM8.41382 9.7017H11.0512V15.6481L8.05295 10.3545C8.05095 10.351 8.0489 10.3475 8.04681 10.344C7.94696 10.1775 7.93003 10.1294 7.92662 10.0874C7.92068 10.0142 7.93701 9.94103 7.97312 9.87787C8.00922 9.81471 8.06322 9.76482 8.12753 9.73448C8.17403 9.71249 8.24055 9.7017 8.41382 9.7017ZM12.028 15.6743V9.7017H14.7142C14.8331 9.7017 14.9073 9.71784 14.9799 9.75204C14.9973 9.76023 15.0096 9.76908 15.0256 9.78559C15.0442 9.80489 15.0666 9.83309 15.1032 9.88631C15.1381 9.95449 15.1537 10.0206 15.1537 10.0968C15.1537 10.1906 15.1302 10.2825 15.0956 10.3461L12.028 15.6743Z" fill="white"></path> </svg> 