<svg width="32" height="686" viewBox="0 0 32 686" fill="none" xmlns="http://www.w3.org/2000/svg">
<g clip-path="url(#clip0_2466_3596)">
<rect width="32" height="686" fill="white"/>
<path d="M-32 30C-32 13.4315 -18.9183 -3.74203e-08 -2.78139 0L322.273 7.53774e-07C331.251 7.74593e-07 339.953 3.18404 346.909 9.01355L396.986 50.9864C403.942 56.816 412.644 60 421.622 60H644.898H868.173C877.152 60 885.854 56.816 892.81 50.9864L942.888 9.01356C949.843 3.18404 958.55 2.22925e-06 967.52 2.25005e-06L1292.58 3.00383e-06C1308.72 3.04125e-06 1321.8 13.4315 1321.8 30V656C1321.8 672.569 1308.72 686 1292.58 686H973.354C960.965 686 949.307 679.944 941.963 669.689L902.488 614.543C889.643 596.598 869.245 586 847.554 586H644.898H442.241C420.551 586 400.153 596.598 387.308 614.543L347.83 669.689C340.489 679.944 328.834 686 316.44 686H-2.78139C-18.9183 686 -32 672.569 -32 656V30Z" fill="url(#paint0_linear_2466_3596)"/>
</g>
<defs>
<linearGradient id="paint0_linear_2466_3596" x1="644.898" y1="1.50191e-06" x2="644.898" y2="786" gradientUnits="userSpaceOnUse">
<stop stop-color="#0057FF"/>
<stop offset="1" stop-color="#1100D5"/>
</linearGradient>
<clipPath id="clip0_2466_3596">
<rect width="32" height="686" fill="white"/>
</clipPath>
</defs>
</svg>
