<svg width="56" height="571" viewBox="0 0 56 571" fill="none" xmlns="http://www.w3.org/2000/svg">
<g clip-path="url(#clip0_2490_3112)">
<path d="M-279 30C-279 13.4315 -265.569 0 -249 0H26C42.5685 0 56 13.4315 56 30V562.566C56 568.85 49.0884 572.68 43.76 569.35L23.2961 556.56C18.5281 553.58 13.0187 552 7.39611 552H-111.5H-230.396C-236.019 552 -241.528 553.58 -246.296 556.56L-266.76 569.35C-272.088 572.68 -279 568.85 -279 562.566V30Z" fill="url(#paint0_linear_2490_3112)"/>
<mask id="mask0_2490_3112" style="mask-type:alpha" maskUnits="userSpaceOnUse" x="-279" y="0" width="335" height="571">
<path d="M-279 30C-279 13.4315 -265.569 0 -249 0H26C42.5685 0 56 13.4315 56 30V562.566C56 568.85 49.0884 572.68 43.76 569.35L23.2961 556.56C18.5281 553.58 13.0187 552 7.39611 552H-111.5H-230.396C-236.019 552 -241.528 553.58 -246.296 556.56L-266.76 569.35C-272.088 572.68 -279 568.85 -279 562.566V30Z" fill="url(#paint1_linear_2490_3112)"/>
</mask>
<g mask="url(#mask0_2490_3112)">
<g style="mix-blend-mode:hard-light" opacity="0.3" filter="url(#filter0_f_2490_3112)">
<ellipse cx="-111.5" cy="604.5" rx="343.5" ry="169.5" fill="#000626"/>
</g>
</g>
</g>
<defs>
<filter id="filter0_f_2490_3112" x="-700" y="190" width="1177" height="829" filterUnits="userSpaceOnUse" color-interpolation-filters="sRGB">
<feFlood flood-opacity="0" result="BackgroundImageFix"/>
<feBlend mode="normal" in="SourceGraphic" in2="BackgroundImageFix" result="shape"/>
<feGaussianBlur stdDeviation="122.5" result="effect1_foregroundBlur_2490_3112"/>
</filter>
<linearGradient id="paint0_linear_2490_3112" x1="-111.5" y1="0" x2="-111.5" y2="661.111" gradientUnits="userSpaceOnUse">
<stop stop-color="#0057FF"/>
<stop offset="1" stop-color="#1100D5"/>
</linearGradient>
<linearGradient id="paint1_linear_2490_3112" x1="-111.5" y1="0" x2="-111.5" y2="661.111" gradientUnits="userSpaceOnUse">
<stop stop-color="#0057FF"/>
<stop offset="1" stop-color="#1100D5"/>
</linearGradient>
<clipPath id="clip0_2490_3112">
<rect width="56" height="571" fill="white"/>
</clipPath>
</defs>
</svg>
