<svg width="32" height="686" viewBox="0 0 32 686" fill="none" xmlns="http://www.w3.org/2000/svg">
<g clip-path="url(#clip0_2463_3577)">
<path d="M-1358 30C-1358 13.4315 -1344.57 0 -1328 0H-994.253C-985.035 0 -976.1 3.18404 -968.958 9.01355L-917.542 50.9864C-910.4 56.816 -901.465 60 -892.247 60H-663H-433.753C-424.535 60 -415.6 56.816 -408.458 50.9864L-357.042 9.01356C-349.9 3.18404 -340.965 0 -331.747 0H2C18.5685 0 32 13.4315 32 30V656C32 672.569 18.5685 686 2 686H-325.758C-338.484 686 -350.451 679.944 -357.988 669.689L-398.521 614.543C-411.71 596.598 -432.653 586 -454.924 586H-663H-871.076C-893.347 586 -914.29 596.598 -927.479 614.543L-968.012 669.689C-975.549 679.944 -987.516 686 -1000.24 686H-1328C-1344.57 686 -1358 672.569 -1358 656V30Z" fill="url(#paint0_linear_2463_3577)"/>
</g>
<defs>
<linearGradient id="paint0_linear_2463_3577" x1="-663" y1="0" x2="-663" y2="786" gradientUnits="userSpaceOnUse">
<stop stop-color="#0057FF"/>
<stop offset="1" stop-color="#1100D5"/>
</linearGradient>
<clipPath id="clip0_2463_3577">
<rect width="32" height="686" fill="white" transform="matrix(-1 0 0 1 32 0)"/>
</clipPath>
</defs>
</svg>
