<svg width="1" height="571" viewBox="0 0 1 571" fill="none" xmlns="http://www.w3.org/2000/svg">
<g clip-path="url(#clip0_2490_3112)">
<path d="M-278 30C-278 13.4315 -264.569 0 -248 0H27C43.5685 0 57 13.4315 57 30V562.566C57 568.85 50.0884 572.68 44.76 569.35L24.2961 556.56C19.5281 553.58 14.0187 552 8.39611 552H-110.5H-229.396C-235.019 552 -240.528 553.58 -245.296 556.56L-265.76 569.35C-271.088 572.68 -278 568.85 -278 562.566V30Z" fill="url(#paint0_linear_2490_3112)"/>
<mask id="mask0_2490_3112" style="mask-type:alpha" maskUnits="userSpaceOnUse" x="-278" y="0" width="335" height="571">
<path d="M-278 30C-278 13.4315 -264.569 0 -248 0H27C43.5685 0 57 13.4315 57 30V562.566C57 568.85 50.0884 572.68 44.76 569.35L24.2961 556.56C19.5281 553.58 14.0187 552 8.39611 552H-110.5H-229.396C-235.019 552 -240.528 553.58 -245.296 556.56L-265.76 569.35C-271.088 572.68 -278 568.85 -278 562.566V30Z" fill="url(#paint1_linear_2490_3112)"/>
</mask>
<g mask="url(#mask0_2490_3112)">
<g style="mix-blend-mode:hard-light" opacity="0.3" filter="url(#filter0_f_2490_3112)">
<ellipse cx="0.5" cy="604.5" rx="343.5" ry="169.5" fill="#000626"/>
</g>
</g>
</g>
<defs>
<filter id="filter0_f_2490_3112" x="-588" y="190" width="1177" height="829" filterUnits="userSpaceOnUse" color-interpolation-filters="sRGB">
<feFlood flood-opacity="0" result="BackgroundImageFix"/>
<feBlend mode="normal" in="SourceGraphic" in2="BackgroundImageFix" result="shape"/>
<feGaussianBlur stdDeviation="122.5" result="effect1_foregroundBlur_2490_3112"/>
</filter>
<linearGradient id="paint0_linear_2490_3112" x1="-110.5" y1="0" x2="-110.5" y2="661.111" gradientUnits="userSpaceOnUse">
<stop stop-color="#0057FF"/>
<stop offset="1" stop-color="#1100D5"/>
</linearGradient>
<linearGradient id="paint1_linear_2490_3112" x1="-110.5" y1="0" x2="-110.5" y2="661.111" gradientUnits="userSpaceOnUse">
<stop stop-color="#0057FF"/>
<stop offset="1" stop-color="#1100D5"/>
</linearGradient>
<clipPath id="clip0_2490_3112">
<rect width="1" height="571" fill="white" transform="matrix(-1 0 0 1 1 0)"/>
</clipPath>
</defs>
</svg>
