<svg width="666" height="686" viewBox="0 0 666 686" fill="none" xmlns="http://www.w3.org/2000/svg">
<g clip-path="url(#clip0_2463_3577)">
<path d="M-362 30C-362 13.4315 -348.569 0 -332 0H1.74656C10.965 0 19.9004 3.18404 27.0416 9.01355L78.4584 50.9864C85.5995 56.816 94.535 60 103.753 60H333H562.247C571.465 60 580.4 56.816 587.542 50.9864L638.958 9.01356C646.1 3.18404 655.035 0 664.253 0H998C1014.57 0 1028 13.4315 1028 30V656C1028 672.569 1014.57 686 998 686H670.242C657.516 686 645.549 679.944 638.012 669.689L597.479 614.543C584.29 596.598 563.347 586 541.076 586H333H124.924C102.653 586 81.7105 596.598 68.5206 614.543L27.9882 669.689C20.4512 679.944 8.48416 686 -4.24232 686H-332C-348.569 686 -362 672.569 -362 656V30Z" fill="url(#paint0_linear_2463_3577)"/>
</g>
<defs>
<linearGradient id="paint0_linear_2463_3577" x1="333" y1="0" x2="333" y2="786" gradientUnits="userSpaceOnUse">
<stop stop-color="#0057FF"/>
<stop offset="1" stop-color="#1100D5"/>
</linearGradient>
<clipPath id="clip0_2463_3577">
<rect width="666" height="686" fill="white" transform="matrix(-1 0 0 1 666 0)"/>
</clipPath>
</defs>
</svg>
